<svg xmlns="http://www.w3.org/2000/svg" viewBox="0 0 298.285 48.62">
  <path id="Contact" d="M27.04,1.04A24.153,24.153,0,0,1,14.755-2.145a23.031,23.031,0,0,1-8.678-8.742A24.653,24.653,0,0,1,2.925-23.27,24.653,24.653,0,0,1,6.078-35.653,23.031,23.031,0,0,1,14.755-44.4,24.153,24.153,0,0,1,27.04-47.58,22.569,22.569,0,0,1,36.563-45.6a22.151,22.151,0,0,1,7.508,5.623L40.105-36.14a17.348,17.348,0,0,0-5.818-4.68,16.727,16.727,0,0,0-7.248-1.5,18.659,18.659,0,0,0-9.3,2.372,17.666,17.666,0,0,0-6.727,6.7,19.552,19.552,0,0,0-2.5,9.978,19.552,19.552,0,0,0,2.5,9.977,17.666,17.666,0,0,0,6.727,6.7,18.659,18.659,0,0,0,9.3,2.372q8.45,0,14.365-6.955l4.03,3.9a23.481,23.481,0,0,1-8,6.078A24.029,24.029,0,0,1,27.04,1.04Zm46.865,0A23.313,23.313,0,0,1,61.75-2.21a23.414,23.414,0,0,1-8.58-8.808A24.6,24.6,0,0,1,50.05-23.27a24.653,24.653,0,0,1,3.12-12.22,23.346,23.346,0,0,1,8.58-8.84A23.313,23.313,0,0,1,73.9-47.58,23.313,23.313,0,0,1,86.06-44.33a23.59,23.59,0,0,1,8.613,8.84,24.454,24.454,0,0,1,3.152,12.22,24.6,24.6,0,0,1-3.12,12.252A23.339,23.339,0,0,1,86.092-2.21,23.485,23.485,0,0,1,73.9,1.04Zm0-5.265a17.972,17.972,0,0,0,9.2-2.437,17.744,17.744,0,0,0,6.63-6.76A19.7,19.7,0,0,0,92.17-23.27a19.7,19.7,0,0,0-2.437-9.847,17.744,17.744,0,0,0-6.63-6.76,17.972,17.972,0,0,0-9.2-2.437,17.8,17.8,0,0,0-9.165,2.438,17.991,17.991,0,0,0-6.63,6.793,19.542,19.542,0,0,0-2.47,9.815,19.542,19.542,0,0,0,2.47,9.815,17.991,17.991,0,0,0,6.63,6.793A17.8,17.8,0,0,0,73.9-4.225ZM105.95-46.54h6.76L136.045-9.49h.26l-.26-8.97V-46.54h5.525V0h-5.72L111.41-38.805h-.26l.26,8.97V0h-5.46Zm55.575,5.265H148.46V-46.54h31.59v5.265h-13V0h-5.525ZM196.17-46.54h6.24L220.09,0h-6.045l-4.68-12.805H189.28L184.6,0h-6.045Zm11.31,28.535L201.3-34.775,199.42-39.78h-.26l-1.82,5.005-6.175,16.77ZM246.8,1.04A24.153,24.153,0,0,1,234.52-2.145a23.031,23.031,0,0,1-8.678-8.742A24.653,24.653,0,0,1,222.69-23.27a24.653,24.653,0,0,1,3.152-12.382A23.031,23.031,0,0,1,234.52-44.4,24.154,24.154,0,0,1,246.8-47.58a22.569,22.569,0,0,1,9.522,1.982,22.151,22.151,0,0,1,7.508,5.623L259.87-36.14a17.349,17.349,0,0,0-5.818-4.68,16.727,16.727,0,0,0-7.247-1.5,18.659,18.659,0,0,0-9.3,2.372,17.666,17.666,0,0,0-6.727,6.7,19.552,19.552,0,0,0-2.5,9.978,19.552,19.552,0,0,0,2.5,9.977,17.666,17.666,0,0,0,6.727,6.7,18.659,18.659,0,0,0,9.3,2.372q8.45,0,14.365-6.955l4.03,3.9A23.48,23.48,0,0,1,257.2-1.2,24.029,24.029,0,0,1,246.8,1.04Zm35.88-42.315H269.62V-46.54h31.59v5.265h-13V0h-5.525Z" transform="translate(-2.925 47.58)"/>
</svg>
