<svg xmlns="http://www.w3.org/2000/svg" xmlns:xlink="http://www.w3.org/1999/xlink" viewBox="0 0 594 146.4">
  <defs>
    <style>
      .cls-1 {
        fill: #ff3400;
      }

      .cls-2 {
        fill: #f90;
      }

      .cls-3 {
        fill: #fb0;
      }

      .cls-4 {
        clip-path: url(#clip-path);
      }

      .cls-5 {
        fill: #ff6f00;
      }

      .cls-6 {
        clip-path: url(#clip-path-3);
      }

      .cls-7 {
        clip-path: url(#clip-path-4);
      }
    </style>
    <clipPath id="clip-path">
      <path id="Path_22" data-name="Path 22" class="cls-1" d="M16.4-143.2H66a49.487,49.487,0,0,1,23.3,5.6,43.592,43.592,0,0,1,17,15.6,41.507,41.507,0,0,1,6.3,22.6,41.507,41.507,0,0,1-6.3,22.6,43.592,43.592,0,0,1-17,15.6A49.487,49.487,0,0,1,66-55.6H38.8V0H16.4Zm50,66.4a24.067,24.067,0,0,0,12.8-3.3,22.253,22.253,0,0,0,8.2-8.5,22.49,22.49,0,0,0,2.8-10.8,22.491,22.491,0,0,0-2.8-10.8,21.553,21.553,0,0,0-8.2-8.4,24.652,24.652,0,0,0-12.8-3.2H38.8v45ZM131.8-102h21v15h1a28.375,28.375,0,0,1,11.8-12.9,33.748,33.748,0,0,1,17.8-5.1,33.547,33.547,0,0,1,12.4,2v22.8A46.85,46.85,0,0,0,180-83.4a23.489,23.489,0,0,0-13.5,4,27.923,27.923,0,0,0-9.3,10.7A32.012,32.012,0,0,0,153.8-54V0h-22ZM254.4,3.2a53.853,53.853,0,0,1-27.6-7.1,49.929,49.929,0,0,1-19-19.5A56.442,56.442,0,0,1,201-51a56.442,56.442,0,0,1,6.8-27.6,49.929,49.929,0,0,1,19-19.5,53.853,53.853,0,0,1,27.6-7.1A53.271,53.271,0,0,1,282-98a50.637,50.637,0,0,1,19,19.6A56.038,56.038,0,0,1,307.8-51,56.442,56.442,0,0,1,301-23.4,49.929,49.929,0,0,1,282-3.9,53.853,53.853,0,0,1,254.4,3.2Zm0-20.2A31,31,0,0,0,270-21.1a30.143,30.143,0,0,0,11.5-11.8A36.529,36.529,0,0,0,285.8-51a35.963,35.963,0,0,0-4.3-18A30.321,30.321,0,0,0,270-80.7a31,31,0,0,0-15.6-4.1,31,31,0,0,0-15.6,4.1A30.321,30.321,0,0,0,227.3-69,35.963,35.963,0,0,0,223-51a36.529,36.529,0,0,0,4.3,18.1,30.143,30.143,0,0,0,11.5,11.8A31,31,0,0,0,254.4-17ZM366.8,1.6A36.889,36.889,0,0,1,354-.6a28.1,28.1,0,0,1-9.8-5.8q-8.6-8.6-8.6-23.4V-82.6H317.8V-102h17.8v-28.8h22V-102h24.8v19.4H357.6v48q0,8.2,3.2,11.6,3,4,10.4,4a18.319,18.319,0,0,0,6-.9,25.063,25.063,0,0,0,5.6-2.9V-1.4A38.506,38.506,0,0,1,366.8,1.6Zm80.4,1.6a53.853,53.853,0,0,1-27.6-7.1,49.929,49.929,0,0,1-19-19.5A56.442,56.442,0,0,1,393.8-51a56.442,56.442,0,0,1,6.8-27.6,49.929,49.929,0,0,1,19-19.5,53.853,53.853,0,0,1,27.6-7.1A53.271,53.271,0,0,1,474.8-98a50.637,50.637,0,0,1,19,19.6A56.038,56.038,0,0,1,500.6-51a56.442,56.442,0,0,1-6.8,27.6,49.929,49.929,0,0,1-19,19.5A53.853,53.853,0,0,1,447.2,3.2Zm0-20.2a31,31,0,0,0,15.6-4.1,30.143,30.143,0,0,0,11.5-11.8A36.529,36.529,0,0,0,478.6-51a35.963,35.963,0,0,0-4.3-18,30.321,30.321,0,0,0-11.5-11.7,31,31,0,0,0-15.6-4.1,31,31,0,0,0-15.6,4.1A30.321,30.321,0,0,0,420.1-69a35.963,35.963,0,0,0-4.3,18,36.529,36.529,0,0,0,4.3,18.1,30.143,30.143,0,0,0,11.5,11.8A31,31,0,0,0,447.2-17Zm71.6-85h21v13.4h1a33.563,33.563,0,0,1,13.1-11.9,38.349,38.349,0,0,1,18.5-4.7q18.6,0,28.3,10.9t9.7,29.7V0h-22V-61.6q0-12-5.9-17.6t-16.3-5.6A22.305,22.305,0,0,0,553-80.7a27.288,27.288,0,0,0-9,10.9,33.858,33.858,0,0,0-3.2,14.6V0h-22Z" transform="translate(750 608)"/>
    </clipPath>
    <clipPath id="clip-path-3">
      <path id="Path_19" data-name="Path 19" class="cls-2" d="M-62.33,160.982S252.291,387.345,305.416,294.831s109.23-83.555,167.816-110.342,69.407-56.517,69.407-56.517l67.228,95.306-31.7,274.164s-37.782-89.459-178.982-89.459S0,322.265,0,322.265Z" transform="matrix(0.94, -0.342, 0.342, 0.94, 637.842, 516)"/>
    </clipPath>
    <clipPath id="clip-path-4">
      <path id="Path_21" data-name="Path 21" class="cls-3" d="M168.042,323.854s84.25,63.49,137.374-29.024,102.463-86.427,155.75-65.816S564.012,233.8,564.012,233.8l45.855-10.521-31.7,274.164s-37.782-89.459-178.982-89.459S0,322.265,0,322.265Z" transform="matrix(0.94, -0.342, 0.342, 0.94, 796.842, 426)"/>
    </clipPath>
  </defs>
  <g id="Mask_Group_14" data-name="Mask Group 14" class="cls-4" transform="translate(-766.4 -464.8)">
    <g id="Group_2" data-name="Group 2">
      <path id="Path_15" data-name="Path 15" class="cls-1" d="M16.4-143.2H66a49.487,49.487,0,0,1,23.3,5.6,43.592,43.592,0,0,1,17,15.6,41.507,41.507,0,0,1,6.3,22.6,41.507,41.507,0,0,1-6.3,22.6,43.592,43.592,0,0,1-17,15.6A49.487,49.487,0,0,1,66-55.6H38.8V0H16.4Zm50,66.4a24.067,24.067,0,0,0,12.8-3.3,22.253,22.253,0,0,0,8.2-8.5,22.49,22.49,0,0,0,2.8-10.8,22.491,22.491,0,0,0-2.8-10.8,21.553,21.553,0,0,0-8.2-8.4,24.652,24.652,0,0,0-12.8-3.2H38.8v45ZM131.8-102h21v15h1a28.375,28.375,0,0,1,11.8-12.9,33.748,33.748,0,0,1,17.8-5.1,33.547,33.547,0,0,1,12.4,2v22.8A46.85,46.85,0,0,0,180-83.4a23.489,23.489,0,0,0-13.5,4,27.923,27.923,0,0,0-9.3,10.7A32.012,32.012,0,0,0,153.8-54V0h-22ZM254.4,3.2a53.853,53.853,0,0,1-27.6-7.1,49.929,49.929,0,0,1-19-19.5A56.442,56.442,0,0,1,201-51a56.442,56.442,0,0,1,6.8-27.6,49.929,49.929,0,0,1,19-19.5,53.853,53.853,0,0,1,27.6-7.1A53.271,53.271,0,0,1,282-98a50.637,50.637,0,0,1,19,19.6A56.038,56.038,0,0,1,307.8-51,56.442,56.442,0,0,1,301-23.4,49.929,49.929,0,0,1,282-3.9,53.853,53.853,0,0,1,254.4,3.2Zm0-20.2A31,31,0,0,0,270-21.1a30.143,30.143,0,0,0,11.5-11.8A36.529,36.529,0,0,0,285.8-51a35.963,35.963,0,0,0-4.3-18A30.321,30.321,0,0,0,270-80.7a31,31,0,0,0-15.6-4.1,31,31,0,0,0-15.6,4.1A30.321,30.321,0,0,0,227.3-69,35.963,35.963,0,0,0,223-51a36.529,36.529,0,0,0,4.3,18.1,30.143,30.143,0,0,0,11.5,11.8A31,31,0,0,0,254.4-17ZM366.8,1.6A36.889,36.889,0,0,1,354-.6a28.1,28.1,0,0,1-9.8-5.8q-8.6-8.6-8.6-23.4V-82.6H317.8V-102h17.8v-28.8h22V-102h24.8v19.4H357.6v48q0,8.2,3.2,11.6,3,4,10.4,4a18.319,18.319,0,0,0,6-.9,25.063,25.063,0,0,0,5.6-2.9V-1.4A38.506,38.506,0,0,1,366.8,1.6Zm80.4,1.6a53.853,53.853,0,0,1-27.6-7.1,49.929,49.929,0,0,1-19-19.5A56.442,56.442,0,0,1,393.8-51a56.442,56.442,0,0,1,6.8-27.6,49.929,49.929,0,0,1,19-19.5,53.853,53.853,0,0,1,27.6-7.1A53.271,53.271,0,0,1,474.8-98a50.637,50.637,0,0,1,19,19.6A56.038,56.038,0,0,1,500.6-51a56.442,56.442,0,0,1-6.8,27.6,49.929,49.929,0,0,1-19,19.5A53.853,53.853,0,0,1,447.2,3.2Zm0-20.2a31,31,0,0,0,15.6-4.1,30.143,30.143,0,0,0,11.5-11.8A36.529,36.529,0,0,0,478.6-51a35.963,35.963,0,0,0-4.3-18,30.321,30.321,0,0,0-11.5-11.7,31,31,0,0,0-15.6-4.1,31,31,0,0,0-15.6,4.1A30.321,30.321,0,0,0,420.1-69a35.963,35.963,0,0,0-4.3,18,36.529,36.529,0,0,0,4.3,18.1,30.143,30.143,0,0,0,11.5,11.8A31,31,0,0,0,447.2-17Zm71.6-85h21v13.4h1a33.563,33.563,0,0,1,13.1-11.9,38.349,38.349,0,0,1,18.5-4.7q18.6,0,28.3,10.9t9.7,29.7V0h-22V-61.6q0-12-5.9-17.6t-16.3-5.6A22.305,22.305,0,0,0,553-80.7a27.288,27.288,0,0,0-9,10.9,33.858,33.858,0,0,0-3.2,14.6V0h-22Z" transform="translate(750 608)"/>
      <g id="Mask_Group_11" data-name="Mask Group 11" class="cls-4">
        <path id="Path_16" data-name="Path 16" class="cls-5" d="M96.627,0S252.291,387.345,305.416,294.831,403.645,165.24,468.263,154.717s107.386-67.9,107.386-67.9l34.218,136.462-31.7,274.164s-37.782-89.459-178.982-89.459S0,322.265,0,322.265Z" transform="matrix(0.94, -0.342, 0.342, 0.94, 532.842, 528)"/>
      </g>
      <g id="Mask_Group_12" data-name="Mask Group 12" class="cls-6">
        <path id="Path_18" data-name="Path 18" class="cls-2" d="M16.4-143.2H66a49.487,49.487,0,0,1,23.3,5.6,43.592,43.592,0,0,1,17,15.6,41.507,41.507,0,0,1,6.3,22.6,41.507,41.507,0,0,1-6.3,22.6,43.592,43.592,0,0,1-17,15.6A49.487,49.487,0,0,1,66-55.6H38.8V0H16.4Zm50,66.4a24.067,24.067,0,0,0,12.8-3.3,22.253,22.253,0,0,0,8.2-8.5,22.49,22.49,0,0,0,2.8-10.8,22.491,22.491,0,0,0-2.8-10.8,21.553,21.553,0,0,0-8.2-8.4,24.652,24.652,0,0,0-12.8-3.2H38.8v45ZM131.8-102h21v15h1a28.375,28.375,0,0,1,11.8-12.9,33.748,33.748,0,0,1,17.8-5.1,33.547,33.547,0,0,1,12.4,2v22.8A46.85,46.85,0,0,0,180-83.4a23.489,23.489,0,0,0-13.5,4,27.923,27.923,0,0,0-9.3,10.7A32.012,32.012,0,0,0,153.8-54V0h-22ZM254.4,3.2a53.853,53.853,0,0,1-27.6-7.1,49.929,49.929,0,0,1-19-19.5A56.442,56.442,0,0,1,201-51a56.442,56.442,0,0,1,6.8-27.6,49.929,49.929,0,0,1,19-19.5,53.853,53.853,0,0,1,27.6-7.1A53.271,53.271,0,0,1,282-98a50.637,50.637,0,0,1,19,19.6A56.038,56.038,0,0,1,307.8-51,56.442,56.442,0,0,1,301-23.4,49.929,49.929,0,0,1,282-3.9,53.853,53.853,0,0,1,254.4,3.2Zm0-20.2A31,31,0,0,0,270-21.1a30.143,30.143,0,0,0,11.5-11.8A36.529,36.529,0,0,0,285.8-51a35.963,35.963,0,0,0-4.3-18A30.321,30.321,0,0,0,270-80.7a31,31,0,0,0-15.6-4.1,31,31,0,0,0-15.6,4.1A30.321,30.321,0,0,0,227.3-69,35.963,35.963,0,0,0,223-51a36.529,36.529,0,0,0,4.3,18.1,30.143,30.143,0,0,0,11.5,11.8A31,31,0,0,0,254.4-17ZM366.8,1.6A36.889,36.889,0,0,1,354-.6a28.1,28.1,0,0,1-9.8-5.8q-8.6-8.6-8.6-23.4V-82.6H317.8V-102h17.8v-28.8h22V-102h24.8v19.4H357.6v48q0,8.2,3.2,11.6,3,4,10.4,4a18.319,18.319,0,0,0,6-.9,25.063,25.063,0,0,0,5.6-2.9V-1.4A38.506,38.506,0,0,1,366.8,1.6Zm80.4,1.6a53.853,53.853,0,0,1-27.6-7.1,49.929,49.929,0,0,1-19-19.5A56.442,56.442,0,0,1,393.8-51a56.442,56.442,0,0,1,6.8-27.6,49.929,49.929,0,0,1,19-19.5,53.853,53.853,0,0,1,27.6-7.1A53.271,53.271,0,0,1,474.8-98a50.637,50.637,0,0,1,19,19.6A56.038,56.038,0,0,1,500.6-51a56.442,56.442,0,0,1-6.8,27.6,49.929,49.929,0,0,1-19,19.5A53.853,53.853,0,0,1,447.2,3.2Zm0-20.2a31,31,0,0,0,15.6-4.1,30.143,30.143,0,0,0,11.5-11.8A36.529,36.529,0,0,0,478.6-51a35.963,35.963,0,0,0-4.3-18,30.321,30.321,0,0,0-11.5-11.7,31,31,0,0,0-15.6-4.1,31,31,0,0,0-15.6,4.1A30.321,30.321,0,0,0,420.1-69a35.963,35.963,0,0,0-4.3,18,36.529,36.529,0,0,0,4.3,18.1,30.143,30.143,0,0,0,11.5,11.8A31,31,0,0,0,447.2-17Zm71.6-85h21v13.4h1a33.563,33.563,0,0,1,13.1-11.9,38.349,38.349,0,0,1,18.5-4.7q18.6,0,28.3,10.9t9.7,29.7V0h-22V-61.6q0-12-5.9-17.6t-16.3-5.6A22.305,22.305,0,0,0,553-80.7a27.288,27.288,0,0,0-9,10.9,33.858,33.858,0,0,0-3.2,14.6V0h-22Z" transform="translate(750 608)"/>
      </g>
      <g id="Mask_Group_13" data-name="Mask Group 13" class="cls-7">
        <path id="Path_20" data-name="Path 20" class="cls-3" d="M16.4-143.2H66a49.487,49.487,0,0,1,23.3,5.6,43.592,43.592,0,0,1,17,15.6,41.507,41.507,0,0,1,6.3,22.6,41.507,41.507,0,0,1-6.3,22.6,43.592,43.592,0,0,1-17,15.6A49.487,49.487,0,0,1,66-55.6H38.8V0H16.4Zm50,66.4a24.067,24.067,0,0,0,12.8-3.3,22.253,22.253,0,0,0,8.2-8.5,22.49,22.49,0,0,0,2.8-10.8,22.491,22.491,0,0,0-2.8-10.8,21.553,21.553,0,0,0-8.2-8.4,24.652,24.652,0,0,0-12.8-3.2H38.8v45ZM131.8-102h21v15h1a28.375,28.375,0,0,1,11.8-12.9,33.748,33.748,0,0,1,17.8-5.1,33.547,33.547,0,0,1,12.4,2v22.8A46.85,46.85,0,0,0,180-83.4a23.489,23.489,0,0,0-13.5,4,27.923,27.923,0,0,0-9.3,10.7A32.012,32.012,0,0,0,153.8-54V0h-22ZM254.4,3.2a53.853,53.853,0,0,1-27.6-7.1,49.929,49.929,0,0,1-19-19.5A56.442,56.442,0,0,1,201-51a56.442,56.442,0,0,1,6.8-27.6,49.929,49.929,0,0,1,19-19.5,53.853,53.853,0,0,1,27.6-7.1A53.271,53.271,0,0,1,282-98a50.637,50.637,0,0,1,19,19.6A56.038,56.038,0,0,1,307.8-51,56.442,56.442,0,0,1,301-23.4,49.929,49.929,0,0,1,282-3.9,53.853,53.853,0,0,1,254.4,3.2Zm0-20.2A31,31,0,0,0,270-21.1a30.143,30.143,0,0,0,11.5-11.8A36.529,36.529,0,0,0,285.8-51a35.963,35.963,0,0,0-4.3-18A30.321,30.321,0,0,0,270-80.7a31,31,0,0,0-15.6-4.1,31,31,0,0,0-15.6,4.1A30.321,30.321,0,0,0,227.3-69,35.963,35.963,0,0,0,223-51a36.529,36.529,0,0,0,4.3,18.1,30.143,30.143,0,0,0,11.5,11.8A31,31,0,0,0,254.4-17ZM366.8,1.6A36.889,36.889,0,0,1,354-.6a28.1,28.1,0,0,1-9.8-5.8q-8.6-8.6-8.6-23.4V-82.6H317.8V-102h17.8v-28.8h22V-102h24.8v19.4H357.6v48q0,8.2,3.2,11.6,3,4,10.4,4a18.319,18.319,0,0,0,6-.9,25.063,25.063,0,0,0,5.6-2.9V-1.4A38.506,38.506,0,0,1,366.8,1.6Zm80.4,1.6a53.853,53.853,0,0,1-27.6-7.1,49.929,49.929,0,0,1-19-19.5A56.442,56.442,0,0,1,393.8-51a56.442,56.442,0,0,1,6.8-27.6,49.929,49.929,0,0,1,19-19.5,53.853,53.853,0,0,1,27.6-7.1A53.271,53.271,0,0,1,474.8-98a50.637,50.637,0,0,1,19,19.6A56.038,56.038,0,0,1,500.6-51a56.442,56.442,0,0,1-6.8,27.6,49.929,49.929,0,0,1-19,19.5A53.853,53.853,0,0,1,447.2,3.2Zm0-20.2a31,31,0,0,0,15.6-4.1,30.143,30.143,0,0,0,11.5-11.8A36.529,36.529,0,0,0,478.6-51a35.963,35.963,0,0,0-4.3-18,30.321,30.321,0,0,0-11.5-11.7,31,31,0,0,0-15.6-4.1,31,31,0,0,0-15.6,4.1A30.321,30.321,0,0,0,420.1-69a35.963,35.963,0,0,0-4.3,18,36.529,36.529,0,0,0,4.3,18.1,30.143,30.143,0,0,0,11.5,11.8A31,31,0,0,0,447.2-17Zm71.6-85h21v13.4h1a33.563,33.563,0,0,1,13.1-11.9,38.349,38.349,0,0,1,18.5-4.7q18.6,0,28.3,10.9t9.7,29.7V0h-22V-61.6q0-12-5.9-17.6t-16.3-5.6A22.305,22.305,0,0,0,553-80.7a27.288,27.288,0,0,0-9,10.9,33.858,33.858,0,0,0-3.2,14.6V0h-22Z" transform="translate(750 608)"/>
      </g>
    </g>
  </g>
</svg>
