<?xml version="1.0" standalone="no"?><!-- Generator: Gravit.io --><svg xmlns="http://www.w3.org/2000/svg" xmlns:xlink="http://www.w3.org/1999/xlink" style="isolation:isolate" viewBox="0 0 175 156.25" width="175" height="156.25"><defs><clipPath id="_clipPath_n41kk4drSaE9fsyyMVdlJaaMJG0EFeFL"><rect width="175" height="156.25"/></clipPath></defs><g clip-path="url(#_clipPath_n41kk4drSaE9fsyyMVdlJaaMJG0EFeFL)"><path d=" M 66.672 29 L 95.929 127.25 L 96.875 127.25 C 123.963 127.25 146 105.213 146 78.125 C 146 51.037 123.963 29 96.875 29 L 66.672 29 Z  M 27.778 0 C 27.778 0 78.192 0 96.875 0 C 140.022 0 175 34.978 175 78.125 C 175 121.272 140.022 156.25 96.875 156.25 C 91.175 156.25 74.306 156.25 74.306 156.25 L 27.778 0 Z " fill="#4285F3"/><path d=" M 65.273 127.25 L 36.016 29 L 29 29 L 29 127.25 L 65.273 127.25 Z  M 104.167 156.25 L 0 156.25 L 0 0 L 57.639 0 L 104.167 156.25 Z " fill="#4285F3"/></g></svg>