<svg xmlns="http://www.w3.org/2000/svg" viewBox="0 0 181.545 48.62">
  <path id="Home" d="M5.2-46.54h5.46v20.15H34.71V-46.54h5.46V0H34.71V-21.19H10.66V0H5.2ZM71.5,1.04A23.313,23.313,0,0,1,59.345-2.21a23.414,23.414,0,0,1-8.58-8.808,24.6,24.6,0,0,1-3.12-12.252,24.653,24.653,0,0,1,3.12-12.22,23.346,23.346,0,0,1,8.58-8.84A23.313,23.313,0,0,1,71.5-47.58a23.313,23.313,0,0,1,12.155,3.25,23.59,23.59,0,0,1,8.613,8.84A24.454,24.454,0,0,1,95.42-23.27,24.6,24.6,0,0,1,92.3-11.018,23.339,23.339,0,0,1,83.688-2.21,23.485,23.485,0,0,1,71.5,1.04Zm0-5.265a17.972,17.972,0,0,0,9.2-2.437,17.744,17.744,0,0,0,6.63-6.76,19.7,19.7,0,0,0,2.438-9.847,19.7,19.7,0,0,0-2.437-9.847,17.744,17.744,0,0,0-6.63-6.76,17.972,17.972,0,0,0-9.2-2.437,17.8,17.8,0,0,0-9.165,2.438,17.991,17.991,0,0,0-6.63,6.793,19.542,19.542,0,0,0-2.47,9.815,19.542,19.542,0,0,0,2.47,9.815,17.991,17.991,0,0,0,6.63,6.793A17.8,17.8,0,0,0,71.5-4.225ZM103.545-46.54h8L126.36-8.385h.26L141.44-46.54h7.995V0h-5.46V-29.575l.26-8.84h-.26L128.765,0h-4.55L109-38.415h-.26l.26,8.84V0h-5.46Zm56.29,0h26.91v5.265h-21.45v15.4h19.37v5.2h-19.37V-5.265h21.45V0h-26.91Z" transform="translate(-5.2 47.58)"/>
</svg>
