<svg xmlns="http://www.w3.org/2000/svg" xmlns:xlink="http://www.w3.org/1999/xlink" width="300" height="300" viewBox="0 0 300 300">
  <defs>
    <clipPath id="clip-LogoLight">
      <rect width="300" height="300"/>
    </clipPath>
  </defs>
  <g id="LogoLight" clip-path="url(#clip-LogoLight)">
    <g id="Group_63" data-name="Group 63" transform="translate(74 47)">
      <path id="Path_1" data-name="Path 1" d="M324.148,46.674H305.266V65.556a7.187,7.187,0,0,1-7.184,7.184h-6.775a7.187,7.187,0,0,1-7.184-7.184V46.674H265.242a7.187,7.187,0,0,1-7.184-7.184V32.716a7.187,7.187,0,0,1,7.184-7.184h18.882V6.65a7.187,7.187,0,0,1,7.184-7.184h6.775a7.187,7.187,0,0,1,7.184,7.184V25.532h18.882a7.187,7.187,0,0,1,7.184,7.184V39.49A7.187,7.187,0,0,1,324.148,46.674Z" transform="translate(-151.331 0.534)" fill="#fff" stroke="#fff" stroke-linecap="round" stroke-linejoin="round" stroke-width="1"/>
      <path id="Path_2" data-name="Path 2" d="M131.412,50.534H74.742A24.192,24.192,0,0,0,50.548,74.728l-.014,105.348A24.215,24.215,0,0,0,74.728,204.27H180.076a24.215,24.215,0,0,0,24.194-24.208V124.5a6.916,6.916,0,0,0-6.912-6.913h-6.913a6.916,6.916,0,0,0-6.912,6.913v55.573a3.493,3.493,0,0,1-3.456,3.456H74.742a3.493,3.493,0,0,1-3.47-3.47l.014-105.334a3.409,3.409,0,0,1,1.009-2.433,3.453,3.453,0,0,1,2.447-1.023h56.67a6.916,6.916,0,0,0,6.913-6.913V57.447A6.916,6.916,0,0,0,131.412,50.534Z" transform="translate(-50.534 -24.27)" fill="#fff" stroke="#fff" stroke-linecap="round" stroke-linejoin="round" stroke-width="1"/>
    </g>
  </g>
</svg>
