<svg viewBox="0 0 96 96" xmlns="http://www.w3.org/2000/svg"><path d="m25.815 46.581s19-7.7976 25.59-10.543c2.5261-1.0982 11.092-4.6128 11.092-4.6128s3.9538-1.5374 3.6243 2.1966c-0.1099 1.5376-0.9885 6.919-1.867 12.74-1.318 8.237-2.7458 17.243-2.7458 17.243s-0.2196 2.5261-2.0866 2.9654c-1.867 0.4392-4.9423-1.5375-5.4913-1.9769-0.4395-0.3294-8.2371-5.2717-11.092-7.6879-0.7688-0.6589-1.6474-1.9768 0.1097-3.5144 3.9538-3.6243 8.6763-8.1271 11.532-10.983 1.318-1.318 2.6358-4.3931-2.8555-0.6591-7.7976 5.3816-15.485 10.434-15.485 10.434s-1.7573 1.0982-5.0521 0.1098c-3.2949-0.9883-7.1388-2.3063-7.1388-2.3063s-2.6357-1.6474 1.8672-3.4047z" fill="#0F0D1A"/></svg>
