<svg width="180" height="220" viewBox="0 0 180 220" fill="none" xmlns="http://www.w3.org/2000/svg">
    <rect width="180" height="220" rx="12" fill="#05050A"/>
    <path d="M24.64 131.68H33.34V133.82H26.88V137.78H32.7V139.9H26.88V143.86H33.34V146H24.64V131.68ZM39.7338 146.32C38.8138 146.32 37.9804 146.087 37.2338 145.62C36.4871 145.153 35.8938 144.513 35.4538 143.7C35.0271 142.873 34.8138 141.94 34.8138 140.9C34.8138 139.86 35.0271 138.933 35.4538 138.12C35.8938 137.293 36.4871 136.647 37.2338 136.18C37.9804 135.713 38.8138 135.48 39.7338 135.48C40.4538 135.48 41.1004 135.64 41.6738 135.96C42.2471 136.28 42.6804 136.673 42.9738 137.14H43.0738L42.9738 135.7V131.68H45.1738V146H43.0738V144.68H42.9738C42.6804 145.133 42.2471 145.52 41.6738 145.84C41.1004 146.16 40.4538 146.32 39.7338 146.32ZM40.0538 144.3C40.5871 144.3 41.0804 144.16 41.5338 143.88C42.0004 143.6 42.3738 143.2 42.6538 142.68C42.9338 142.16 43.0738 141.567 43.0738 140.9C43.0738 140.233 42.9338 139.647 42.6538 139.14C42.3738 138.62 42.0004 138.22 41.5338 137.94C41.0804 137.66 40.5871 137.52 40.0538 137.52C39.5204 137.52 39.0204 137.66 38.5538 137.94C38.0871 138.22 37.7138 138.62 37.4338 139.14C37.1538 139.647 37.0138 140.233 37.0138 140.9C37.0138 141.567 37.1538 142.16 37.4338 142.68C37.7138 143.2 38.0871 143.6 38.5538 143.88C39.0204 144.16 39.5204 144.3 40.0538 144.3ZM48.997 134.32C48.5837 134.32 48.2304 134.18 47.937 133.9C47.657 133.607 47.517 133.253 47.517 132.84C47.517 132.427 47.657 132.08 47.937 131.8C48.2304 131.507 48.5837 131.36 48.997 131.36C49.4104 131.36 49.757 131.507 50.037 131.8C50.3304 132.08 50.477 132.427 50.477 132.84C50.477 133.253 50.3304 133.607 50.037 133.9C49.757 134.18 49.4104 134.32 48.997 134.32ZM47.897 135.8H50.097V146H47.897V135.8ZM56.917 146.16C56.4637 146.16 56.037 146.087 55.637 145.94C55.237 145.793 54.9104 145.6 54.657 145.36C54.0837 144.787 53.797 144.007 53.797 143.02V137.74H52.017V135.8H53.797V132.92H55.997V135.8H58.477V137.74H55.997V142.54C55.997 143.087 56.1037 143.473 56.317 143.7C56.517 143.967 56.8637 144.1 57.357 144.1C57.5837 144.1 57.7837 144.073 57.957 144.02C58.1304 143.953 58.317 143.853 58.517 143.72V145.86C58.077 146.06 57.5437 146.16 56.917 146.16ZM64.9584 146.32C63.9318 146.32 63.0118 146.087 62.1984 145.62C61.3851 145.14 60.7518 144.487 60.2984 143.66C59.8451 142.833 59.6184 141.913 59.6184 140.9C59.6184 139.887 59.8451 138.967 60.2984 138.14C60.7518 137.313 61.3851 136.667 62.1984 136.2C63.0118 135.72 63.9318 135.48 64.9584 135.48C65.9851 135.48 66.9051 135.72 67.7184 136.2C68.5318 136.68 69.1651 137.333 69.6184 138.16C70.0718 138.987 70.2984 139.9 70.2984 140.9C70.2984 141.913 70.0718 142.833 69.6184 143.66C69.1651 144.487 68.5318 145.14 67.7184 145.62C66.9051 146.087 65.9851 146.32 64.9584 146.32ZM64.9584 144.3C65.5184 144.3 66.0384 144.167 66.5184 143.9C66.9984 143.62 67.3784 143.227 67.6584 142.72C67.9518 142.2 68.0984 141.593 68.0984 140.9C68.0984 140.207 67.9518 139.607 67.6584 139.1C67.3784 138.593 66.9984 138.207 66.5184 137.94C66.0384 137.66 65.5184 137.52 64.9584 137.52C64.3984 137.52 63.8784 137.66 63.3984 137.94C62.9184 138.207 62.5318 138.593 62.2384 139.1C61.9584 139.607 61.8184 140.207 61.8184 140.9C61.8184 141.593 61.9584 142.2 62.2384 142.72C62.5318 143.227 62.9184 143.62 63.3984 143.9C63.8784 144.167 64.3984 144.3 64.9584 144.3ZM72.1316 135.8H74.2316V137.3H74.3316C74.5582 136.78 74.9516 136.353 75.5116 136.02C76.0716 135.673 76.6649 135.5 77.2916 135.5C77.7849 135.5 78.1982 135.567 78.5316 135.7V137.98C77.9449 137.767 77.4182 137.66 76.9516 137.66C76.4449 137.66 75.9916 137.793 75.5916 138.06C75.2049 138.327 74.8982 138.687 74.6716 139.14C74.4449 139.58 74.3316 140.067 74.3316 140.6V146H72.1316V135.8Z" fill="white"/>
    <path opacity="0.85" d="M24.189 166.618H27.785C28.394 166.618 28.9547 166.753 29.467 167.024C29.989 167.295 30.3998 167.672 30.6995 168.155C31.0088 168.638 31.1635 169.184 31.1635 169.793C31.1635 170.402 31.0088 170.949 30.6995 171.432C30.3998 171.915 29.989 172.292 29.467 172.563C28.9547 172.834 28.394 172.969 27.785 172.969H25.813V177H24.189V166.618ZM27.814 171.432C28.1717 171.432 28.481 171.355 28.742 171.2C29.003 171.036 29.2012 170.828 29.3365 170.576C29.4718 170.325 29.5395 170.064 29.5395 169.793C29.5395 169.523 29.4718 169.262 29.3365 169.011C29.2012 168.759 29.003 168.556 28.742 168.401C28.481 168.247 28.1717 168.169 27.814 168.169H25.813V171.432H27.814ZM35.3623 177.232C34.6179 177.232 33.9509 177.063 33.3613 176.724C32.7716 176.376 32.3124 175.903 31.9838 175.303C31.6551 174.704 31.4908 174.037 31.4908 173.302C31.4908 172.568 31.6551 171.901 31.9838 171.301C32.3124 170.702 32.7716 170.233 33.3613 169.895C33.9509 169.547 34.6179 169.373 35.3623 169.373C36.1066 169.373 36.7736 169.547 37.3633 169.895C37.9529 170.243 38.4121 170.717 38.7408 171.316C39.0694 171.915 39.2338 172.577 39.2338 173.302C39.2338 174.037 39.0694 174.704 38.7408 175.303C38.4121 175.903 37.9529 176.376 37.3633 176.724C36.7736 177.063 36.1066 177.232 35.3623 177.232ZM35.3623 175.767C35.7683 175.767 36.1453 175.671 36.4933 175.477C36.8413 175.274 37.1168 174.989 37.3198 174.622C37.5324 174.245 37.6388 173.805 37.6388 173.302C37.6388 172.8 37.5324 172.365 37.3198 171.997C37.1168 171.63 36.8413 171.35 36.4933 171.156C36.1453 170.953 35.7683 170.852 35.3623 170.852C34.9563 170.852 34.5793 170.953 34.2313 171.156C33.8833 171.35 33.6029 171.63 33.3903 171.997C33.1873 172.365 33.0858 172.8 33.0858 173.302C33.0858 173.805 33.1873 174.245 33.3903 174.622C33.6029 174.989 33.8833 175.274 34.2313 175.477C34.5793 175.671 34.9563 175.767 35.3623 175.767ZM39.5913 169.605H41.3168L42.8103 174.897H42.8683L44.5358 169.605H46.1743L47.8273 174.897H47.8853L49.3788 169.605H51.0753L48.7118 177H47.0298L45.3333 171.693H45.2898L43.6078 177H41.9548L39.5913 169.605ZM55.1918 177.232C54.4668 177.232 53.8143 177.063 53.2343 176.724C52.664 176.386 52.2145 175.922 51.8858 175.332C51.5668 174.733 51.4073 174.061 51.4073 173.317C51.4073 172.611 51.562 171.959 51.8713 171.359C52.1903 170.75 52.6301 170.267 53.1908 169.909C53.7515 169.552 54.3895 169.373 55.1048 169.373C55.8491 169.373 56.492 169.537 57.0333 169.866C57.5843 170.195 58 170.644 58.2803 171.214C58.5703 171.785 58.7153 172.428 58.7153 173.143C58.7153 173.278 58.7008 173.447 58.6718 173.65H53.0023C53.0603 174.337 53.302 174.868 53.7273 175.245C54.1623 175.613 54.665 175.796 55.2353 175.796C55.6896 175.796 56.0811 175.695 56.4098 175.492C56.7481 175.279 57.0188 174.994 57.2218 174.636L58.5703 175.274C58.2223 175.883 57.768 176.362 57.2073 176.71C56.6466 177.058 55.9748 177.232 55.1918 177.232ZM57.0913 172.432C57.072 172.171 56.9898 171.915 56.8448 171.664C56.6998 171.403 56.4775 171.185 56.1778 171.011C55.8878 170.837 55.5301 170.75 55.1048 170.75C54.5925 170.75 54.1575 170.905 53.7998 171.214C53.4518 171.514 53.2101 171.92 53.0748 172.432H57.0913ZM66.7073 171.011H65.3588V169.605H66.7073V169.025C66.7073 168.252 66.949 167.638 67.4323 167.183C67.9156 166.729 68.5343 166.502 69.2883 166.502C69.7233 166.502 70.1003 166.555 70.4193 166.661V168.227C70.2453 168.16 70.081 168.107 69.9263 168.068C69.7813 168.02 69.6121 167.995 69.4188 167.995C69.0998 167.995 68.834 168.097 68.6213 168.3C68.4086 168.503 68.3023 168.783 68.3023 169.141V169.605H70.1583V171.011H68.3023V177H66.7073V171.011ZM60.0228 169.605H61.5453V170.692H61.6178C61.8111 170.296 62.1108 169.982 62.5168 169.75C62.9325 169.518 63.382 169.402 63.8653 169.402C64.136 169.402 64.3341 169.421 64.4598 169.46V171.069C64.2181 171.002 63.962 170.968 63.6913 170.968C63.063 170.968 62.5603 171.166 62.1833 171.562C61.8063 171.959 61.6178 172.481 61.6178 173.128V177H60.0228V169.605ZM74.0587 177.232C73.1597 177.232 72.4734 176.966 71.9997 176.434C71.5357 175.893 71.3037 175.144 71.3037 174.187V169.605H72.8987V173.969C72.8987 174.569 73.0389 175.018 73.3192 175.318C73.6092 175.618 73.9862 175.767 74.4502 175.767C74.8272 175.767 75.1607 175.671 75.4507 175.477C75.7407 175.274 75.963 175.009 76.1177 174.68C76.2724 174.351 76.3497 173.998 76.3497 173.621V169.605H77.9447V177H76.4367V176.043H76.3497C76.1467 176.391 75.8325 176.676 75.4072 176.898C74.9819 177.121 74.5324 177.232 74.0587 177.232ZM79.6561 166.618H81.2511V177H79.6561V166.618ZM89.9526 177.232C89.1793 177.232 88.493 177.058 87.8936 176.71C87.304 176.362 86.8448 175.869 86.5161 175.231C86.1875 174.593 86.0231 173.853 86.0231 173.012V166.618H87.6326V173.099C87.6326 173.863 87.8308 174.487 88.2271 174.97C88.6331 175.444 89.2083 175.68 89.9526 175.68C90.697 175.68 91.2673 175.444 91.6636 174.97C92.06 174.496 92.2581 173.873 92.2581 173.099V166.618H93.8821V173.012C93.8821 173.844 93.7226 174.578 93.4036 175.216C93.0846 175.854 92.6303 176.352 92.0406 176.71C91.451 177.058 90.755 177.232 89.9526 177.232ZM94.9796 166.618H96.7921L98.4016 173.302L98.5756 174.201H98.6626L98.8946 173.302L100.968 166.618H102.592L104.564 173.302L104.796 174.187H104.883L105.057 173.302L106.667 166.618H108.479L105.739 177H104.013L102.041 170.156L101.824 169.228H101.737L101.49 170.156L99.4311 177H97.7491L94.9796 166.618ZM109.767 166.618H113.363C113.972 166.618 114.533 166.753 115.045 167.024C115.567 167.295 115.978 167.672 116.278 168.155C116.587 168.638 116.742 169.184 116.742 169.793C116.742 170.402 116.587 170.949 116.278 171.432C115.978 171.915 115.567 172.292 115.045 172.563C114.533 172.834 113.972 172.969 113.363 172.969H111.391V177H109.767V166.618ZM113.392 171.432C113.75 171.432 114.059 171.355 114.32 171.2C114.581 171.036 114.779 170.828 114.915 170.576C115.05 170.325 115.118 170.064 115.118 169.793C115.118 169.523 115.05 169.262 114.915 169.011C114.779 168.759 114.581 168.556 114.32 168.401C114.059 168.247 113.75 168.169 113.392 168.169H111.391V171.432H113.392ZM26.9585 195.116C26.6298 195.116 26.3205 195.063 26.0305 194.956C25.7405 194.85 25.5037 194.71 25.32 194.536C24.9043 194.12 24.6965 193.555 24.6965 192.839V189.011H23.406V187.605H24.6965V185.517H26.2915V187.605H28.0895V189.011H26.2915V192.491C26.2915 192.888 26.3688 193.168 26.5235 193.332C26.6685 193.526 26.9198 193.622 27.2775 193.622C27.4418 193.622 27.5868 193.603 27.7125 193.564C27.8382 193.516 27.9735 193.444 28.1185 193.347V194.898C27.7995 195.044 27.4128 195.116 26.9585 195.116ZM32.7015 195.232C31.9765 195.232 31.324 195.063 30.744 194.724C30.1737 194.386 29.7242 193.922 29.3955 193.332C29.0765 192.733 28.917 192.061 28.917 191.317C28.917 190.611 29.0717 189.959 29.381 189.359C29.7 188.75 30.1399 188.267 30.7005 187.909C31.2612 187.552 31.8992 187.373 32.6145 187.373C33.3589 187.373 34.0017 187.537 34.543 187.866C35.094 188.195 35.5097 188.644 35.79 189.214C36.08 189.785 36.225 190.428 36.225 191.143C36.225 191.278 36.2105 191.447 36.1815 191.65H30.512C30.57 192.337 30.8117 192.868 31.237 193.245C31.672 193.613 32.1747 193.796 32.745 193.796C33.1994 193.796 33.5909 193.695 33.9195 193.492C34.2579 193.279 34.5285 192.994 34.7315 192.636L36.08 193.274C35.732 193.883 35.2777 194.362 34.717 194.71C34.1564 195.058 33.4845 195.232 32.7015 195.232ZM34.601 190.432C34.5817 190.171 34.4995 189.915 34.3545 189.664C34.2095 189.403 33.9872 189.185 33.6875 189.011C33.3975 188.837 33.0399 188.75 32.6145 188.75C32.1022 188.75 31.6672 188.905 31.3095 189.214C30.9615 189.514 30.7199 189.92 30.5845 190.432H34.601ZM39.3774 191.244L36.8254 187.605H38.6814L40.3199 190.012H40.3634L41.9294 187.605H43.8434L41.2624 191.244L43.8724 195H41.9874L40.3344 192.506H40.2909L38.6814 195H36.7964L39.3774 191.244ZM48.0147 195.116C47.686 195.116 47.3767 195.063 47.0867 194.956C46.7967 194.85 46.5598 194.71 46.3762 194.536C45.9605 194.12 45.7527 193.555 45.7527 192.839V189.011H44.4622V187.605H45.7527V185.517H47.3477V187.605H49.1457V189.011H47.3477V192.491C47.3477 192.888 47.425 193.168 47.5797 193.332C47.7247 193.526 47.976 193.622 48.3337 193.622C48.498 193.622 48.643 193.603 48.7687 193.564C48.8943 193.516 49.0297 193.444 49.1747 193.347V194.898C48.8557 195.044 48.469 195.116 48.0147 195.116ZM57.4393 195.232C56.7143 195.232 56.0618 195.063 55.4818 194.724C54.9115 194.386 54.462 193.922 54.1333 193.332C53.8143 192.733 53.6548 192.061 53.6548 191.317C53.6548 190.611 53.8095 189.959 54.1188 189.359C54.4378 188.75 54.8776 188.267 55.4383 187.909C55.999 187.552 56.637 187.373 57.3523 187.373C58.0966 187.373 58.7395 187.537 59.2808 187.866C59.8318 188.195 60.2475 188.644 60.5278 189.214C60.8178 189.785 60.9628 190.428 60.9628 191.143C60.9628 191.278 60.9483 191.447 60.9193 191.65H55.2498C55.3078 192.337 55.5495 192.868 55.9748 193.245C56.4098 193.613 56.9125 193.796 57.4828 193.796C57.9371 193.796 58.3286 193.695 58.6573 193.492C58.9956 193.279 59.2663 192.994 59.4693 192.636L60.8178 193.274C60.4698 193.883 60.0155 194.362 59.4548 194.71C58.8941 195.058 58.2223 195.232 57.4393 195.232ZM59.3388 190.432C59.3195 190.171 59.2373 189.915 59.0923 189.664C58.9473 189.403 58.725 189.185 58.4253 189.011C58.1353 188.837 57.7776 188.75 57.3523 188.75C56.84 188.75 56.405 188.905 56.0473 189.214C55.6993 189.514 55.4576 189.92 55.3223 190.432H59.3388ZM65.6471 195.232C64.9801 195.232 64.3759 195.063 63.8346 194.724C63.2933 194.386 62.8631 193.922 62.5441 193.332C62.2348 192.733 62.0801 192.056 62.0801 191.302C62.0801 190.548 62.2348 189.877 62.5441 189.287C62.8631 188.688 63.2933 188.219 63.8346 187.88C64.3759 187.542 64.9801 187.373 65.6471 187.373C66.1691 187.373 66.6379 187.489 67.0536 187.721C67.4693 187.953 67.7834 188.238 67.9961 188.576H68.0686L67.9961 187.532V184.618H69.5911V195H68.0686V194.043H67.9961C67.7834 194.372 67.4693 194.652 67.0536 194.884C66.6379 195.116 66.1691 195.232 65.6471 195.232ZM65.8791 193.767C66.2658 193.767 66.6234 193.666 66.9521 193.463C67.2904 193.26 67.5611 192.97 67.7641 192.593C67.9671 192.216 68.0686 191.786 68.0686 191.302C68.0686 190.819 67.9671 190.394 67.7641 190.026C67.5611 189.649 67.2904 189.359 66.9521 189.156C66.6234 188.953 66.2658 188.852 65.8791 188.852C65.4924 188.852 65.1299 188.953 64.7916 189.156C64.4533 189.359 64.1826 189.649 63.9796 190.026C63.7766 190.394 63.6751 190.819 63.6751 191.302C63.6751 191.786 63.7766 192.216 63.9796 192.593C64.1826 192.97 64.4533 193.26 64.7916 193.463C65.1299 193.666 65.4924 193.767 65.8791 193.767ZM72.363 186.532C72.0633 186.532 71.8072 186.43 71.5945 186.227C71.3915 186.015 71.29 185.759 71.29 185.459C71.29 185.159 71.3915 184.908 71.5945 184.705C71.8072 184.492 72.0633 184.386 72.363 184.386C72.6627 184.386 72.914 184.492 73.117 184.705C73.3297 184.908 73.436 185.159 73.436 185.459C73.436 185.759 73.3297 186.015 73.117 186.227C72.914 186.43 72.6627 186.532 72.363 186.532ZM71.5655 187.605H73.1605V195H71.5655V187.605ZM78.105 195.116C77.7763 195.116 77.467 195.063 77.177 194.956C76.887 194.85 76.6502 194.71 76.4665 194.536C76.0508 194.12 75.843 193.555 75.843 192.839V189.011H74.5525V187.605H75.843V185.517H77.438V187.605H79.236V189.011H77.438V192.491C77.438 192.888 77.5153 193.168 77.67 193.332C77.815 193.526 78.0663 193.622 78.424 193.622C78.5883 193.622 78.7333 193.603 78.859 193.564C78.9847 193.516 79.12 193.444 79.265 193.347V194.898C78.946 195.044 78.5593 195.116 78.105 195.116ZM83.935 195.232C83.1907 195.232 82.5237 195.063 81.934 194.724C81.3443 194.376 80.8852 193.903 80.5565 193.303C80.2278 192.704 80.0635 192.037 80.0635 191.302C80.0635 190.568 80.2278 189.901 80.5565 189.301C80.8852 188.702 81.3443 188.233 81.934 187.895C82.5237 187.547 83.1907 187.373 83.935 187.373C84.6793 187.373 85.3463 187.547 85.936 187.895C86.5257 188.243 86.9848 188.717 87.3135 189.316C87.6422 189.915 87.8065 190.577 87.8065 191.302C87.8065 192.037 87.6422 192.704 87.3135 193.303C86.9848 193.903 86.5257 194.376 85.936 194.724C85.3463 195.063 84.6793 195.232 83.935 195.232ZM83.935 193.767C84.341 193.767 84.718 193.671 85.066 193.477C85.414 193.274 85.6895 192.989 85.8925 192.622C86.1052 192.245 86.2115 191.805 86.2115 191.302C86.2115 190.8 86.1052 190.365 85.8925 189.997C85.6895 189.63 85.414 189.35 85.066 189.156C84.718 188.953 84.341 188.852 83.935 188.852C83.529 188.852 83.152 188.953 82.804 189.156C82.456 189.35 82.1757 189.63 81.963 189.997C81.76 190.365 81.6585 190.8 81.6585 191.302C81.6585 191.805 81.76 192.245 81.963 192.622C82.1757 192.989 82.456 193.274 82.804 193.477C83.152 193.671 83.529 193.767 83.935 193.767ZM89.1355 187.605H90.658V188.692H90.7305C90.8949 188.315 91.18 188.006 91.586 187.764C91.992 187.513 92.4222 187.387 92.8765 187.387C93.2342 187.387 93.5339 187.436 93.7755 187.532V189.185C93.3502 189.031 92.9684 188.953 92.63 188.953C92.2627 188.953 91.934 189.05 91.644 189.243C91.3637 189.437 91.1414 189.698 90.977 190.026C90.8127 190.345 90.7305 190.698 90.7305 191.085V195H89.1355V187.605Z" fill="white"/>
    <circle opacity="0.15" cx="141" cy="180" r="15" fill="white"/>
    <path d="M137.921 186.26C137.444 187.413 138.938 188.356 139.774 187.428L145.221 181.377C145.734 180.806 145.529 179.9 144.821 179.607L143.85 179.205C143.283 178.97 143.014 178.32 143.249 177.753L144.78 174.056C145.256 172.907 143.775 171.964 142.935 172.88L137.292 179.035C136.771 179.604 136.974 180.518 137.686 180.813L138.786 181.268C139.353 181.503 139.622 182.153 139.388 182.72L137.921 186.26Z" fill="white"/>
    <path d="M111.16 71.6606C111.16 70.0038 109.817 68.6606 108.16 68.6606C106.504 68.6606 105.16 70.0038 105.16 71.6606H111.16ZM87.5277 54.0279C89.1845 54.0279 90.5277 52.6847 90.5277 51.0279C90.5277 49.371 89.1845 48.0279 87.5277 48.0279V54.0279ZM105.16 59.281C105.16 60.9378 106.504 62.281 108.16 62.281C109.817 62.281 111.16 60.9378 111.16 59.281H105.16ZM111.16 42.7748C111.16 41.1179 109.817 39.7748 108.16 39.7748C106.504 39.7748 105.16 41.1179 105.16 42.7748H111.16ZM99.9073 48.0279C98.2505 48.0279 96.9073 49.371 96.9073 51.0279C96.9073 52.6847 98.2505 54.0279 99.9073 54.0279V48.0279ZM116.414 54.0279C118.07 54.0279 119.414 52.6847 119.414 51.0279C119.414 49.371 118.07 48.0279 116.414 48.0279V54.0279ZM102.383 85.1668H76.7987V91.1668H102.383V85.1668ZM74.0215 82.3896V56.805H68.0215V82.3896H74.0215ZM111.16 82.3896V71.6606H105.16V82.3896H111.16ZM76.7987 54.0279H87.5277V48.0279H76.7987V54.0279ZM111.16 59.281V51.0279H105.16V59.281H111.16ZM111.16 51.0279V42.7748H105.16V51.0279H111.16ZM99.9073 54.0279H108.16V48.0279H99.9073V54.0279ZM108.16 54.0279H116.414V48.0279H108.16V54.0279ZM76.7987 85.1668C75.2649 85.1668 74.0215 83.9234 74.0215 82.3896H68.0215C68.0215 87.2371 71.9512 91.1668 76.7987 91.1668V85.1668ZM102.383 91.1668C107.231 91.1668 111.16 87.2371 111.16 82.3896H105.16C105.16 83.9234 103.917 85.1668 102.383 85.1668V91.1668ZM74.0215 56.805C74.0215 55.2713 75.2649 54.0279 76.7987 54.0279V48.0279C71.9512 48.0279 68.0215 51.9575 68.0215 56.805H74.0215Z" fill="white"/>
</svg>
