<svg width="180" height="220" viewBox="0 0 180 220" fill="none" xmlns="http://www.w3.org/2000/svg">
    <rect width="180" height="220" rx="12" fill="white"/>
    <path d="M67 61.8222C67 53.6361 73.6361 47 81.8222 47H91.5333C94.0738 47 96.1333 49.0595 96.1333 51.6C96.1333 54.1405 94.0738 56.2 91.5333 56.2H81.8222C78.7172 56.2 76.2 58.7172 76.2 61.8222V88.4C76.2 90.9405 74.1405 93 71.6 93C69.0595 93 67 90.9405 67 88.4V61.8222Z" fill="#05050A"/>
    <path d="M98.1778 93C106.364 93 113 86.3639 113 78.1778V68.4667C113 65.9262 110.941 63.8667 108.4 63.8667C105.859 63.8667 103.8 65.9262 103.8 68.4667V78.1778C103.8 81.2828 101.283 83.8 98.1778 83.8H88.4667C85.9262 83.8 83.8667 85.8595 83.8667 88.4C83.8667 90.9405 85.9262 93 88.4667 93H98.1778Z" fill="#05050A"/>
    <path d="M102.778 52.1111C102.778 49.2883 105.066 47 107.889 47C110.712 47 113 49.2883 113 52.1111C113 54.9339 110.712 57.2222 107.889 57.2222C105.066 57.2222 102.778 54.9339 102.778 52.1111Z" fill="#05050A"/>
    <path d="M83.8672 66.9334C83.8672 65.2397 85.2402 63.8667 86.9339 63.8667H93.0672C94.7609 63.8667 96.1339 65.2397 96.1339 66.9334V73.0667C96.1339 74.7604 94.7609 76.1334 93.0672 76.1334H86.9339C85.2402 76.1334 83.8672 74.7604 83.8672 73.0667V66.9334Z" fill="#0075FF"/>
    <path d="M24.64 131.68H33.34V133.82H26.88V137.94H32.7V140.06H26.88V146H24.64V131.68ZM35.3542 131.68H37.5542V146H35.3542V131.68ZM43.8594 146.32C42.6194 146.32 41.6727 145.953 41.0194 145.22C40.3794 144.473 40.0594 143.44 40.0594 142.12V135.8H42.2594V141.82C42.2594 142.647 42.4527 143.267 42.8394 143.68C43.2394 144.093 43.7594 144.3 44.3994 144.3C44.9194 144.3 45.3794 144.167 45.7794 143.9C46.1794 143.62 46.486 143.253 46.6994 142.8C46.9127 142.347 47.0194 141.86 47.0194 141.34V135.8H49.2194V146H47.1394V144.68H47.0194C46.7394 145.16 46.306 145.553 45.7194 145.86C45.1327 146.167 44.5127 146.32 43.8594 146.32ZM54.32 140.82L50.8 135.8H53.36L55.62 139.12H55.68L57.84 135.8H60.48L56.92 140.82L60.52 146H57.92L55.64 142.56H55.58L53.36 146H50.76L54.32 140.82ZM67.5734 146.32C66.5068 146.32 65.5601 146.08 64.7334 145.6C63.9201 145.12 63.2868 144.44 62.8334 143.56C62.3801 142.68 62.1534 141.66 62.1534 140.5V131.68H64.3734V140.62C64.3734 141.673 64.6468 142.533 65.1934 143.2C65.7534 143.853 66.5468 144.18 67.5734 144.18C68.6001 144.18 69.3868 143.853 69.9334 143.2C70.4801 142.547 70.7534 141.687 70.7534 140.62V131.68H72.9934V140.5C72.9934 141.647 72.7734 142.66 72.3334 143.54C71.8934 144.42 71.2668 145.107 70.4534 145.6C69.6401 146.08 68.6801 146.32 67.5734 146.32ZM76.0072 131.68H78.2472V146H76.0072V131.68Z" fill="#05050A"/>
    <path opacity="0.70" d="M24.189 166.618H30.4965V168.169H25.813V171.04H30.0325V172.577H25.813V175.448H30.4965V177H24.189V166.618ZM34.2168 177.232C33.6851 177.232 33.2114 177.131 32.7958 176.927C32.3801 176.715 32.0563 176.42 31.8243 176.043C31.5923 175.656 31.4763 175.221 31.4763 174.738C31.4763 173.974 31.7614 173.37 32.3318 172.925C32.9118 172.481 33.6416 172.258 34.5213 172.258C34.9563 172.258 35.3478 172.302 35.6958 172.389C36.0438 172.466 36.3193 172.553 36.5223 172.65V172.273C36.5223 171.819 36.3531 171.451 36.0148 171.171C35.6764 170.881 35.2414 170.736 34.7098 170.736C34.3328 170.736 33.9751 170.818 33.6368 170.982C33.3081 171.147 33.0423 171.374 32.8393 171.664L31.7228 170.808C32.0514 170.354 32.4768 170.001 32.9988 169.75C33.5208 169.499 34.1008 169.373 34.7388 169.373C35.8118 169.373 36.6383 169.639 37.2183 170.17C37.7983 170.692 38.0883 171.432 38.0883 172.389V177H36.5223V176.115H36.4498C36.2371 176.434 35.9374 176.7 35.5508 176.913C35.1641 177.126 34.7194 177.232 34.2168 177.232ZM34.4923 175.912C34.8789 175.912 35.2269 175.821 35.5363 175.637C35.8456 175.453 36.0873 175.207 36.2613 174.897C36.4353 174.588 36.5223 174.255 36.5223 173.897C36.2999 173.771 36.0389 173.67 35.7393 173.592C35.4493 173.515 35.1448 173.476 34.8258 173.476C34.2264 173.476 33.7866 173.597 33.5063 173.839C33.2259 174.071 33.0858 174.375 33.0858 174.752C33.0858 175.091 33.2163 175.371 33.4773 175.593C33.7383 175.806 34.0766 175.912 34.4923 175.912ZM42.3077 177.232C41.457 177.232 40.761 177.048 40.2197 176.681C39.6783 176.304 39.2965 175.825 39.0742 175.245L40.4952 174.622C40.6692 175.009 40.9108 175.303 41.2202 175.506C41.5392 175.709 41.9017 175.811 42.3077 175.811C42.704 175.811 43.0375 175.743 43.3082 175.608C43.5788 175.463 43.7142 175.25 43.7142 174.97C43.7142 174.699 43.5982 174.487 43.3662 174.332C43.1342 174.177 42.7765 174.042 42.2932 173.926L41.4087 173.708C40.819 173.563 40.3308 173.307 39.9442 172.94C39.5575 172.573 39.3642 172.109 39.3642 171.548C39.3642 171.113 39.4898 170.731 39.7412 170.402C40.0022 170.074 40.3502 169.822 40.7852 169.648C41.2202 169.465 41.6938 169.373 42.2062 169.373C42.8925 169.373 43.4967 169.513 44.0187 169.793C44.5407 170.064 44.9177 170.46 45.1497 170.982L43.7577 171.591C43.4773 171.021 42.965 170.736 42.2207 170.736C41.863 170.736 41.5633 170.808 41.3217 170.953C41.08 171.098 40.9592 171.287 40.9592 171.519C40.9592 171.741 41.051 171.925 41.2347 172.07C41.4183 172.205 41.689 172.321 42.0467 172.418L43.1342 172.693C43.8592 172.877 44.4053 173.157 44.7727 173.534C45.1497 173.902 45.3382 174.356 45.3382 174.897C45.3382 175.361 45.2028 175.772 44.9322 176.13C44.6712 176.478 44.3087 176.749 43.8447 176.942C43.3807 177.135 42.8683 177.232 42.3077 177.232ZM48.8361 176.594L45.7621 169.605H47.5456L49.6336 174.636H49.6916L51.7216 169.605H53.4761L48.9086 180.132H47.2266L48.8361 176.594ZM57.8873 166.618H61.2078C62.2808 166.618 63.2185 166.835 64.0208 167.27C64.8232 167.705 65.437 168.319 65.8623 169.112C66.2973 169.895 66.5148 170.794 66.5148 171.809C66.5148 172.824 66.2973 173.728 65.8623 174.52C65.437 175.303 64.8232 175.912 64.0208 176.347C63.2185 176.782 62.2808 177 61.2078 177H57.8873V166.618ZM61.1788 175.448C62.3388 175.448 63.2427 175.129 63.8903 174.491C64.5477 173.844 64.8763 172.95 64.8763 171.809C64.8763 170.678 64.5477 169.789 63.8903 169.141C63.2427 168.493 62.3388 168.169 61.1788 168.169H59.5113V175.448H61.1788ZM71.126 177.232C70.401 177.232 69.7485 177.063 69.1685 176.724C68.5981 176.386 68.1486 175.922 67.82 175.332C67.501 174.733 67.3415 174.061 67.3415 173.317C67.3415 172.611 67.4961 171.959 67.8055 171.359C68.1245 170.75 68.5643 170.267 69.125 169.909C69.6856 169.552 70.3236 169.373 71.039 169.373C71.7833 169.373 72.4261 169.537 72.9675 169.866C73.5185 170.195 73.9341 170.644 74.2145 171.214C74.5045 171.785 74.6495 172.428 74.6495 173.143C74.6495 173.278 74.635 173.447 74.606 173.65H68.9365C68.9945 174.337 69.2361 174.868 69.6615 175.245C70.0965 175.613 70.5991 175.796 71.1695 175.796C71.6238 175.796 72.0153 175.695 72.344 175.492C72.6823 175.279 72.953 174.994 73.156 174.636L74.5045 175.274C74.1565 175.883 73.7021 176.362 73.1415 176.71C72.5808 177.058 71.909 177.232 71.126 177.232ZM73.0255 172.432C73.0061 172.171 72.924 171.915 72.779 171.664C72.634 171.403 72.4116 171.185 72.112 171.011C71.822 170.837 71.4643 170.75 71.039 170.75C70.5266 170.75 70.0916 170.905 69.734 171.214C69.386 171.514 69.1443 171.92 69.009 172.432H73.0255ZM78.7247 177.232C77.8741 177.232 77.1781 177.048 76.6367 176.681C76.0954 176.304 75.7136 175.825 75.4912 175.245L76.9122 174.622C77.0862 175.009 77.3279 175.303 77.6372 175.506C77.9562 175.709 78.3187 175.811 78.7247 175.811C79.1211 175.811 79.4546 175.743 79.7252 175.608C79.9959 175.463 80.1312 175.25 80.1312 174.97C80.1312 174.699 80.0152 174.487 79.7832 174.332C79.5512 174.177 79.1936 174.042 78.7102 173.926L77.8257 173.708C77.2361 173.563 76.7479 173.307 76.3612 172.94C75.9746 172.573 75.7812 172.109 75.7812 171.548C75.7812 171.113 75.9069 170.731 76.1582 170.402C76.4192 170.074 76.7672 169.822 77.2022 169.648C77.6372 169.465 78.1109 169.373 78.6232 169.373C79.3096 169.373 79.9137 169.513 80.4357 169.793C80.9577 170.064 81.3347 170.46 81.5667 170.982L80.1747 171.591C79.8944 171.021 79.3821 170.736 78.6377 170.736C78.2801 170.736 77.9804 170.808 77.7387 170.953C77.4971 171.098 77.3762 171.287 77.3762 171.519C77.3762 171.741 77.4681 171.925 77.6517 172.07C77.8354 172.205 78.1061 172.321 78.4637 172.418L79.5512 172.693C80.2762 172.877 80.8224 173.157 81.1897 173.534C81.5667 173.902 81.7552 174.356 81.7552 174.897C81.7552 175.361 81.6199 175.772 81.3492 176.13C81.0882 176.478 80.7257 176.749 80.2617 176.942C79.7977 177.135 79.2854 177.232 78.7247 177.232ZM83.8338 168.532C83.5342 168.532 83.278 168.43 83.0653 168.227C82.8623 168.015 82.7608 167.759 82.7608 167.459C82.7608 167.159 82.8623 166.908 83.0653 166.705C83.278 166.492 83.5342 166.386 83.8338 166.386C84.1335 166.386 84.3848 166.492 84.5878 166.705C84.8005 166.908 84.9068 167.159 84.9068 167.459C84.9068 167.759 84.8005 168.015 84.5878 168.227C84.3848 168.43 84.1335 168.532 83.8338 168.532ZM83.0363 169.605H84.6313V177H83.0363V169.605ZM89.7353 180.364C88.8267 180.364 88.0727 180.156 87.4733 179.741C86.8837 179.325 86.4873 178.832 86.2843 178.262L87.7778 177.638C87.9325 178.025 88.179 178.334 88.5173 178.566C88.8653 178.808 89.2713 178.929 89.7353 178.929C90.412 178.929 90.9388 178.726 91.3158 178.32C91.7025 177.923 91.8958 177.363 91.8958 176.637V175.956H91.8088C91.5672 176.304 91.2433 176.579 90.8373 176.782C90.441 176.976 89.9818 177.073 89.4598 177.073C88.8412 177.073 88.266 176.913 87.7343 176.594C87.2027 176.275 86.7773 175.825 86.4583 175.245C86.149 174.656 85.9943 173.984 85.9943 173.23C85.9943 172.476 86.149 171.809 86.4583 171.229C86.7773 170.639 87.2027 170.185 87.7343 169.866C88.266 169.537 88.8412 169.373 89.4598 169.373C89.9722 169.373 90.4313 169.474 90.8373 169.678C91.2433 169.88 91.5672 170.156 91.8088 170.504H91.8958V169.605H93.4183V176.594C93.4183 177.396 93.2637 178.078 92.9543 178.639C92.645 179.209 92.21 179.639 91.6493 179.929C91.0983 180.219 90.4603 180.364 89.7353 180.364ZM89.7498 175.622C90.1365 175.622 90.4942 175.531 90.8228 175.347C91.1515 175.154 91.4125 174.878 91.6058 174.52C91.7992 174.153 91.8958 173.723 91.8958 173.23C91.8958 172.476 91.688 171.891 91.2723 171.475C90.8663 171.05 90.3588 170.837 89.7498 170.837C89.3535 170.837 88.991 170.934 88.6623 171.127C88.3337 171.311 88.0727 171.582 87.8793 171.939C87.686 172.297 87.5893 172.727 87.5893 173.23C87.5893 173.733 87.686 174.163 87.8793 174.52C88.0727 174.878 88.3337 175.154 88.6623 175.347C88.991 175.531 89.3535 175.622 89.7498 175.622ZM95.1479 169.605H96.6704V170.576H96.7429C96.9556 170.228 97.2698 169.943 97.6854 169.721C98.1108 169.489 98.5603 169.373 99.0339 169.373C99.9329 169.373 100.614 169.639 101.078 170.17C101.552 170.692 101.789 171.408 101.789 172.316V177H100.194V172.534C100.194 171.954 100.049 171.529 99.7589 171.258C99.4786 170.987 99.0871 170.852 98.5844 170.852C98.2268 170.852 97.9078 170.953 97.6274 171.156C97.3471 171.35 97.1296 171.611 96.9749 171.939C96.8203 172.268 96.7429 172.621 96.7429 172.998V177H95.1479V169.605ZM23.2465 184.618H25.059L26.6685 191.302L26.8425 192.201H26.9295L27.1615 191.302L29.235 184.618H30.859L32.831 191.302L33.063 192.187H33.15L33.324 191.302L34.9335 184.618H36.746L34.0055 195H32.28L30.308 188.156L30.0905 187.228H30.0035L29.757 188.156L27.698 195H26.016L23.2465 184.618ZM40.3021 195.232C39.5771 195.232 38.9246 195.063 38.3446 194.724C37.7743 194.386 37.3248 193.922 36.9961 193.332C36.6771 192.733 36.5176 192.061 36.5176 191.317C36.5176 190.611 36.6723 189.959 36.9816 189.359C37.3006 188.75 37.7405 188.267 38.3011 187.909C38.8618 187.552 39.4998 187.373 40.2151 187.373C40.9595 187.373 41.6023 187.537 42.1436 187.866C42.6946 188.195 43.1103 188.644 43.3906 189.214C43.6806 189.785 43.8256 190.428 43.8256 191.143C43.8256 191.278 43.8111 191.447 43.7821 191.65H38.1126C38.1706 192.337 38.4123 192.868 38.8376 193.245C39.2726 193.613 39.7753 193.796 40.3456 193.796C40.8 193.796 41.1915 193.695 41.5201 193.492C41.8585 193.279 42.1291 192.994 42.3321 192.636L43.6806 193.274C43.3326 193.883 42.8783 194.362 42.3176 194.71C41.757 195.058 41.0851 195.232 40.3021 195.232ZM42.2016 190.432C42.1823 190.171 42.1001 189.915 41.9551 189.664C41.8101 189.403 41.5878 189.185 41.2881 189.011C40.9981 188.837 40.6405 188.75 40.2151 188.75C39.7028 188.75 39.2678 188.905 38.9101 189.214C38.5621 189.514 38.3205 189.92 38.1851 190.432H42.2016ZM49.0771 195.232C48.5551 195.232 48.0863 195.116 47.6706 194.884C47.2549 194.652 46.9408 194.372 46.7281 194.043H46.6556V195H45.1331V184.618H46.7281V187.532L46.6556 188.576H46.7281C46.9408 188.238 47.2549 187.953 47.6706 187.721C48.0863 187.489 48.5551 187.373 49.0771 187.373C49.7441 187.373 50.3483 187.542 50.8896 187.88C51.4309 188.219 51.8563 188.688 52.1656 189.287C52.4846 189.877 52.6441 190.548 52.6441 191.302C52.6441 192.056 52.4846 192.733 52.1656 193.332C51.8563 193.922 51.4309 194.386 50.8896 194.724C50.3483 195.063 49.7441 195.232 49.0771 195.232ZM48.8451 193.767C49.2318 193.767 49.5943 193.666 49.9326 193.463C50.2709 193.26 50.5416 192.97 50.7446 192.593C50.9476 192.216 51.0491 191.786 51.0491 191.302C51.0491 190.819 50.9476 190.394 50.7446 190.026C50.5416 189.649 50.2709 189.359 49.9326 189.156C49.5943 188.953 49.2318 188.852 48.8451 188.852C48.4584 188.852 48.0959 188.953 47.7576 189.156C47.4289 189.359 47.1631 189.649 46.9601 190.026C46.7571 190.394 46.6556 190.819 46.6556 191.302C46.6556 191.786 46.7571 192.216 46.9601 192.593C47.1631 192.97 47.4289 193.26 47.7576 193.463C48.0959 193.666 48.4584 193.767 48.8451 193.767ZM57.4659 184.618H59.0899V189.548H59.1769L63.3819 184.618H65.3974V184.705L61.5984 189.084L65.7309 194.913V195H63.7444L60.4964 190.345L59.0899 191.969V195H57.4659V184.618ZM67.5174 186.532C67.2177 186.532 66.9615 186.43 66.7489 186.227C66.5459 186.015 66.4444 185.759 66.4444 185.459C66.4444 185.159 66.5459 184.908 66.7489 184.705C66.9615 184.492 67.2177 184.386 67.5174 184.386C67.817 184.386 68.0684 184.492 68.2714 184.705C68.484 184.908 68.5904 185.159 68.5904 185.459C68.5904 185.759 68.484 186.015 68.2714 186.227C68.0684 186.43 67.817 186.532 67.5174 186.532ZM66.7199 187.605H68.3149V195H66.7199V187.605ZM73.1144 195.116C72.7857 195.116 72.4764 195.063 72.1864 194.956C71.8964 194.85 71.6595 194.71 71.4759 194.536C71.0602 194.12 70.8524 193.555 70.8524 192.839V189.011H69.5619V187.605H70.8524V185.517H72.4474V187.605H74.2454V189.011H72.4474V192.491C72.4474 192.888 72.5247 193.168 72.6794 193.332C72.8244 193.526 73.0757 193.622 73.4334 193.622C73.5977 193.622 73.7427 193.603 73.8684 193.564C73.994 193.516 74.1294 193.444 74.2744 193.347V194.898C73.9554 195.044 73.5687 195.116 73.1144 195.116Z" fill="#05050A"/>
    <circle opacity="0.05" cx="141" cy="180" r="15" fill="#05050A"/>
    <path d="M137.921 186.26C137.444 187.413 138.938 188.356 139.774 187.428L145.221 181.377C145.734 180.806 145.529 179.9 144.821 179.607L143.85 179.205C143.283 178.97 143.014 178.32 143.249 177.753L144.78 174.056C145.256 172.907 143.775 171.964 142.935 172.88L137.292 179.035C136.771 179.604 136.974 180.518 137.686 180.813L138.786 181.268C139.353 181.503 139.622 182.153 139.388 182.72L137.921 186.26Z" fill="#05050A"/>
</svg>
