<svg width="180" height="220" viewBox="0 0 180 220" fill="none" xmlns="http://www.w3.org/2000/svg">
    <path d="M168 0H12C5.37258 0 0 5.37258 0 12V208C0 214.627 5.37258 220 12 220H168C174.627 220 180 214.627 180 208V12C180 5.37258 174.627 0 168 0Z" fill="#0075FF"/>
    <path d="M24.64 130.78H27.3L33.7 141.2H33.82L33.7 138.44V130.78H35.92V145.1H33.58L26.86 134.14H26.74L26.86 136.9V145.1H24.64V130.78ZM43.6108 145.42C42.5841 145.42 41.6641 145.187 40.8508 144.72C40.0374 144.24 39.4041 143.587 38.9508 142.76C38.4974 141.933 38.2708 141.013 38.2708 140C38.2708 138.987 38.4974 138.067 38.9508 137.24C39.4041 136.413 40.0374 135.767 40.8508 135.3C41.6641 134.82 42.5841 134.58 43.6108 134.58C44.6374 134.58 45.5574 134.82 46.3708 135.3C47.1841 135.78 47.8174 136.433 48.2708 137.26C48.7241 138.087 48.9508 139 48.9508 140C48.9508 141.013 48.7241 141.933 48.2708 142.76C47.8174 143.587 47.1841 144.24 46.3708 144.72C45.5574 145.187 44.6374 145.42 43.6108 145.42ZM43.6108 143.4C44.1708 143.4 44.6908 143.267 45.1708 143C45.6508 142.72 46.0308 142.327 46.3108 141.82C46.6041 141.3 46.7508 140.693 46.7508 140C46.7508 139.307 46.6041 138.707 46.3108 138.2C46.0308 137.693 45.6508 137.307 45.1708 137.04C44.6908 136.76 44.1708 136.62 43.6108 136.62C43.0508 136.62 42.5308 136.76 42.0508 137.04C41.5708 137.307 41.1841 137.693 40.8908 138.2C40.6108 138.707 40.4708 139.307 40.4708 140C40.4708 140.693 40.6108 141.3 40.8908 141.82C41.1841 142.327 41.5708 142.72 42.0508 143C42.5308 143.267 43.0508 143.4 43.6108 143.4ZM54.8663 145.26C54.4129 145.26 53.9863 145.187 53.5863 145.04C53.1863 144.893 52.8596 144.7 52.6063 144.46C52.0329 143.887 51.7463 143.107 51.7463 142.12V136.84H49.9663V134.9H51.7463V132.02H53.9463V134.9H56.4263V136.84H53.9463V141.64C53.9463 142.187 54.0529 142.573 54.2663 142.8C54.4663 143.067 54.8129 143.2 55.3063 143.2C55.5329 143.2 55.7329 143.173 55.9063 143.12C56.0796 143.053 56.2663 142.953 56.4663 142.82V144.96C56.0263 145.16 55.4929 145.26 54.8663 145.26ZM62.7877 145.42C61.7877 145.42 60.8877 145.187 60.0877 144.72C59.301 144.253 58.681 143.613 58.2277 142.8C57.7877 141.973 57.5677 141.047 57.5677 140.02C57.5677 139.047 57.781 138.147 58.2077 137.32C58.6477 136.48 59.2543 135.813 60.0277 135.32C60.801 134.827 61.681 134.58 62.6677 134.58C63.6943 134.58 64.581 134.807 65.3277 135.26C66.0877 135.713 66.661 136.333 67.0477 137.12C67.4477 137.907 67.6477 138.793 67.6477 139.78C67.6477 139.967 67.6277 140.2 67.5877 140.48H59.7677C59.8477 141.427 60.181 142.16 60.7677 142.68C61.3677 143.187 62.061 143.44 62.8477 143.44C63.4743 143.44 64.0143 143.3 64.4677 143.02C64.9343 142.727 65.3077 142.333 65.5877 141.84L67.4477 142.72C66.9677 143.56 66.341 144.22 65.5677 144.7C64.7943 145.18 63.8677 145.42 62.7877 145.42ZM65.4077 138.8C65.381 138.44 65.2677 138.087 65.0677 137.74C64.8677 137.38 64.561 137.08 64.1477 136.84C63.7477 136.6 63.2543 136.48 62.6677 136.48C61.961 136.48 61.361 136.693 60.8677 137.12C60.3877 137.533 60.0543 138.093 59.8677 138.8H65.4077ZM73.4688 145.42C72.2954 145.42 71.3354 145.167 70.5888 144.66C69.8421 144.14 69.3154 143.48 69.0088 142.68L70.9688 141.82C71.2088 142.353 71.5421 142.76 71.9688 143.04C72.4088 143.32 72.9088 143.46 73.4688 143.46C74.0154 143.46 74.4754 143.367 74.8488 143.18C75.2221 142.98 75.4088 142.687 75.4088 142.3C75.4088 141.927 75.2488 141.633 74.9288 141.42C74.6088 141.207 74.1154 141.02 73.4488 140.86L72.2288 140.56C71.4154 140.36 70.7421 140.007 70.2088 139.5C69.6754 138.993 69.4088 138.353 69.4088 137.58C69.4088 136.98 69.5821 136.453 69.9288 136C70.2888 135.547 70.7688 135.2 71.3688 134.96C71.9688 134.707 72.6221 134.58 73.3288 134.58C74.2754 134.58 75.1088 134.773 75.8288 135.16C76.5488 135.533 77.0688 136.08 77.3888 136.8L75.4688 137.64C75.0821 136.853 74.3754 136.46 73.3488 136.46C72.8554 136.46 72.4421 136.56 72.1088 136.76C71.7754 136.96 71.6088 137.22 71.6088 137.54C71.6088 137.847 71.7354 138.1 71.9888 138.3C72.2421 138.487 72.6154 138.647 73.1088 138.78L74.6088 139.16C75.6088 139.413 76.3621 139.8 76.8688 140.32C77.3888 140.827 77.6488 141.453 77.6488 142.2C77.6488 142.84 77.4621 143.407 77.0888 143.9C76.7288 144.38 76.2288 144.753 75.5888 145.02C74.9488 145.287 74.2421 145.42 73.4688 145.42Z" fill="white"/>
    <path d="M107.827 63.7006C108.213 63.3133 108.84 63.3133 109.226 63.7006L110.276 64.7526C111.241 65.7209 111.241 67.2908 110.276 68.2592L101.181 77.3763C100.215 78.3446 98.6495 78.3446 97.6835 77.3763C96.7175 76.408 96.7175 74.838 97.6835 73.8697L107.827 63.7006Z" fill="white"/>
    <path d="M103.28 50.7262C102.314 49.7579 100.748 49.7579 99.782 50.7262L94.535 55.9861C93.569 56.9544 93.569 58.5244 94.535 59.4927L99.432 64.4019C100.398 65.3702 101.964 65.3702 102.93 64.4019L108.177 59.142C109.143 58.1737 109.143 56.6038 108.177 55.6355L103.28 50.7262Z" fill="white"/>
    <path fill-rule="evenodd" clip-rule="evenodd" d="M88.938 61.5967C89.904 60.6283 91.47 60.6283 92.436 61.5967L97.333 66.5059C98.299 67.4742 98.299 69.0441 97.333 70.0125L78.1195 89.274C77.6556 89.739 77.0265 90 76.3705 90H71.4734C70.1074 90 69 88.89 69 87.52V82.6112C69 81.9536 69.2606 81.323 69.7244 80.858L88.938 61.5967ZM89.988 66.1552C90.374 65.7679 91 65.7679 91.387 66.1552L92.786 67.5578C93.172 67.9452 93.172 68.5732 92.786 68.9605L76.2856 85.502C76.1001 85.688 75.8484 85.792 75.586 85.792H74.1869C73.6405 85.792 73.1975 85.348 73.1975 84.8V83.398C73.1975 83.135 73.3017 82.8823 73.4873 82.6963L89.988 66.1552Z" fill="white"/>
    <path opacity="0.3" fill-rule="evenodd" clip-rule="evenodd" d="M88.938 61.5966C89.904 60.6283 91.47 60.6283 92.436 61.5966L97.333 66.5058C98.299 67.4741 98.299 69.0441 97.333 70.0124L78.1195 89.274C77.6556 89.739 77.0265 90 76.3705 90H71.4734C70.1074 90 69 88.89 69 87.52V82.6112C69 81.9536 69.2606 81.3229 69.7244 80.8579L88.938 61.5966Z" fill="white"/>
    <path opacity="0.85" d="M24.189 165.903H27.785C28.394 165.903 28.9547 166.038 29.467 166.309C29.989 166.58 30.3998 166.957 30.6995 167.44C31.0088 167.923 31.1635 168.47 31.1635 169.079C31.1635 169.688 31.0088 170.234 30.6995 170.717C30.3998 171.2 29.989 171.577 29.467 171.848C28.9547 172.119 28.394 172.254 27.785 172.254H25.813V176.285H24.189V165.903ZM27.814 170.717C28.1717 170.717 28.481 170.64 28.742 170.485C29.003 170.321 29.2012 170.113 29.3365 169.862C29.4718 169.61 29.5395 169.349 29.5395 169.079C29.5395 168.808 29.4718 168.547 29.3365 168.296C29.2012 168.044 29.003 167.841 28.742 167.687C28.481 167.532 28.1717 167.455 27.814 167.455H25.813V170.717H27.814ZM31.87 165.903H33.6825L35.292 172.588L35.466 173.487H35.553L35.785 172.588L37.8585 165.903H39.4825L41.4545 172.588L41.6865 173.472H41.7735L41.9475 172.588L43.557 165.903H45.3695L42.629 176.285H40.9035L38.9315 169.441L38.714 168.513H38.627L38.3805 169.441L36.3215 176.285H34.6395L31.87 165.903ZM49.0804 165.903H50.9364L54.8369 176.285H53.0389L52.1109 173.632H47.9204L46.9779 176.285H45.1799L49.0804 165.903ZM51.5599 172.124L50.4579 169.035L50.0519 167.832H49.9649L49.5589 169.035L48.4569 172.124H51.5599ZM62.807 176.517C62.0724 176.517 61.4102 176.348 60.8205 176.01C60.2405 175.671 59.7862 175.207 59.4575 174.618C59.1385 174.018 58.979 173.342 58.979 172.588C58.979 171.834 59.1385 171.162 59.4575 170.572C59.7862 169.973 60.2405 169.504 60.8205 169.166C61.4102 168.827 62.0724 168.658 62.807 168.658C63.619 168.658 64.3102 168.842 64.8805 169.209C65.4509 169.576 65.8569 170.074 66.0985 170.703L64.634 171.312C64.3054 170.529 63.6819 170.137 62.7635 170.137C62.3672 170.137 61.9999 170.239 61.6615 170.442C61.3329 170.645 61.067 170.935 60.864 171.312C60.6707 171.679 60.574 172.104 60.574 172.588C60.574 173.071 60.6707 173.501 60.864 173.878C61.067 174.255 61.3329 174.545 61.6615 174.748C61.9999 174.951 62.3672 175.053 62.7635 175.053C63.2275 175.053 63.6239 174.951 63.9525 174.748C64.2909 174.535 64.547 174.236 64.721 173.849L66.1565 174.473C65.8762 175.101 65.4509 175.599 64.8805 175.966C64.3102 176.333 63.619 176.517 62.807 176.517ZM70.9077 176.517C70.1633 176.517 69.4963 176.348 68.9067 176.01C68.317 175.662 67.8578 175.188 67.5292 174.589C67.2005 173.989 67.0362 173.322 67.0362 172.588C67.0362 171.853 67.2005 171.186 67.5292 170.587C67.8578 169.987 68.317 169.518 68.9067 169.18C69.4963 168.832 70.1633 168.658 70.9077 168.658C71.652 168.658 72.319 168.832 72.9087 169.18C73.4983 169.528 73.9575 170.002 74.2862 170.601C74.6148 171.2 74.7792 171.863 74.7792 172.588C74.7792 173.322 74.6148 173.989 74.2862 174.589C73.9575 175.188 73.4983 175.662 72.9087 176.01C72.319 176.348 71.652 176.517 70.9077 176.517ZM70.9077 175.053C71.3137 175.053 71.6907 174.956 72.0387 174.763C72.3867 174.56 72.6622 174.274 72.8652 173.907C73.0778 173.53 73.1842 173.09 73.1842 172.588C73.1842 172.085 73.0778 171.65 72.8652 171.283C72.6622 170.915 72.3867 170.635 72.0387 170.442C71.6907 170.239 71.3137 170.137 70.9077 170.137C70.5017 170.137 70.1247 170.239 69.7767 170.442C69.4287 170.635 69.1483 170.915 68.9357 171.283C68.7327 171.65 68.6312 172.085 68.6312 172.588C68.6312 173.09 68.7327 173.53 68.9357 173.907C69.1483 174.274 69.4287 174.56 69.7767 174.763C70.1247 174.956 70.5017 175.053 70.9077 175.053ZM79.4108 176.517C78.7438 176.517 78.1396 176.348 77.5983 176.01C77.0569 175.671 76.6268 175.207 76.3078 174.618C75.9984 174.018 75.8438 173.342 75.8438 172.588C75.8438 171.834 75.9984 171.162 76.3078 170.572C76.6268 169.973 77.0569 169.504 77.5983 169.166C78.1396 168.827 78.7438 168.658 79.4108 168.658C79.9328 168.658 80.4016 168.774 80.8173 169.006C81.2329 169.238 81.5471 169.523 81.7598 169.862H81.8323L81.7598 168.818V165.903H83.3548V176.285H81.8323V175.328H81.7598C81.5471 175.657 81.2329 175.937 80.8173 176.169C80.4016 176.401 79.9328 176.517 79.4108 176.517ZM79.6428 175.053C80.0294 175.053 80.3871 174.951 80.7158 174.748C81.0541 174.545 81.3248 174.255 81.5278 173.878C81.7308 173.501 81.8323 173.071 81.8323 172.588C81.8323 172.104 81.7308 171.679 81.5278 171.312C81.3248 170.935 81.0541 170.645 80.7158 170.442C80.3871 170.239 80.0294 170.137 79.6428 170.137C79.2561 170.137 78.8936 170.239 78.5553 170.442C78.2169 170.645 77.9463 170.935 77.7433 171.312C77.5403 171.679 77.4388 172.104 77.4388 172.588C77.4388 173.071 77.5403 173.501 77.7433 173.878C77.9463 174.255 78.2169 174.545 78.5553 174.748C78.8936 174.951 79.2561 175.053 79.6428 175.053ZM88.5209 176.517C87.7959 176.517 87.1434 176.348 86.5634 176.01C85.993 175.671 85.5435 175.207 85.2149 174.618C84.8959 174.018 84.7364 173.346 84.7364 172.602C84.7364 171.896 84.891 171.244 85.2004 170.645C85.5194 170.036 85.9592 169.552 86.5199 169.195C87.0805 168.837 87.7185 168.658 88.4339 168.658C89.1782 168.658 89.821 168.822 90.3624 169.151C90.9134 169.48 91.329 169.929 91.6094 170.5C91.8994 171.07 92.0444 171.713 92.0444 172.428C92.0444 172.563 92.0299 172.733 92.0009 172.936H86.3314C86.3894 173.622 86.631 174.154 87.0564 174.531C87.4914 174.898 87.994 175.082 88.5644 175.082C89.0187 175.082 89.4102 174.98 89.7389 174.777C90.0772 174.564 90.3479 174.279 90.5509 173.922L91.8994 174.56C91.5514 175.169 91.097 175.647 90.5364 175.995C89.9757 176.343 89.3039 176.517 88.5209 176.517ZM90.4204 171.718C90.401 171.457 90.3189 171.2 90.1739 170.949C90.0289 170.688 89.8065 170.471 89.5069 170.297C89.2169 170.123 88.8592 170.036 88.4339 170.036C87.9215 170.036 87.4865 170.19 87.1289 170.5C86.7809 170.799 86.5392 171.205 86.4039 171.718H90.4204ZM96.7286 176.517C96.0616 176.517 95.4575 176.348 94.9161 176.01C94.3748 175.671 93.9446 175.207 93.6256 174.618C93.3163 174.018 93.1616 173.342 93.1616 172.588C93.1616 171.834 93.3163 171.162 93.6256 170.572C93.9446 169.973 94.3748 169.504 94.9161 169.166C95.4575 168.827 96.0616 168.658 96.7286 168.658C97.2506 168.658 97.7195 168.774 98.1351 169.006C98.5508 169.238 98.865 169.523 99.0776 169.862H99.1501L99.0776 168.818V165.903H100.673V176.285H99.1501V175.328H99.0776C98.865 175.657 98.5508 175.937 98.1351 176.169C97.7195 176.401 97.2506 176.517 96.7286 176.517ZM96.9606 175.053C97.3473 175.053 97.705 174.951 98.0336 174.748C98.372 174.545 98.6426 174.255 98.8456 173.878C99.0486 173.501 99.1501 173.071 99.1501 172.588C99.1501 172.104 99.0486 171.679 98.8456 171.312C98.6426 170.935 98.372 170.645 98.0336 170.442C97.705 170.239 97.3473 170.137 96.9606 170.137C96.574 170.137 96.2115 170.239 95.8731 170.442C95.5348 170.645 95.2641 170.935 95.0611 171.312C94.8581 171.679 94.7566 172.104 94.7566 172.588C94.7566 173.071 94.8581 173.501 95.0611 173.878C95.2641 174.255 95.5348 174.545 95.8731 174.748C96.2115 174.951 96.574 175.053 96.9606 175.053ZM27.872 194.517C27.35 194.517 26.8812 194.401 26.4655 194.169C26.0498 193.937 25.7357 193.657 25.523 193.328H25.4505V194.285H23.928V183.903H25.523V186.818L25.4505 187.862H25.523C25.7357 187.523 26.0498 187.238 26.4655 187.006C26.8812 186.774 27.35 186.658 27.872 186.658C28.539 186.658 29.1432 186.827 29.6845 187.166C30.2258 187.504 30.6512 187.973 30.9605 188.572C31.2795 189.162 31.439 189.834 31.439 190.588C31.439 191.342 31.2795 192.018 30.9605 192.618C30.6512 193.207 30.2258 193.671 29.6845 194.01C29.1432 194.348 28.539 194.517 27.872 194.517ZM27.64 193.053C28.0267 193.053 28.3892 192.951 28.7275 192.748C29.0658 192.545 29.3365 192.255 29.5395 191.878C29.7425 191.501 29.844 191.071 29.844 190.588C29.844 190.104 29.7425 189.679 29.5395 189.312C29.3365 188.935 29.0658 188.645 28.7275 188.442C28.3892 188.239 28.0267 188.137 27.64 188.137C27.2533 188.137 26.8908 188.239 26.5525 188.442C26.2238 188.645 25.958 188.935 25.755 189.312C25.552 189.679 25.4505 190.104 25.4505 190.588C25.4505 191.071 25.552 191.501 25.755 191.878C25.958 192.255 26.2238 192.545 26.5525 192.748C26.8908 192.951 27.2533 193.053 27.64 193.053ZM34.8702 193.879L31.7962 186.89H33.5797L35.6677 191.922H35.7257L37.7557 186.89H39.5102L34.9427 197.417H33.2607L34.8702 193.879ZM44.2115 183.903H47.532C48.605 183.903 49.5426 184.121 50.345 184.556C51.1473 184.991 51.7611 185.604 52.1865 186.397C52.6215 187.18 52.839 188.079 52.839 189.094C52.839 190.109 52.6215 191.013 52.1865 191.806C51.7611 192.589 51.1473 193.198 50.345 193.633C49.5426 194.068 48.605 194.285 47.532 194.285H44.2115V183.903ZM47.503 192.734C48.663 192.734 49.5668 192.415 50.2145 191.777C50.8718 191.129 51.2005 190.235 51.2005 189.094C51.2005 187.963 50.8718 187.074 50.2145 186.426C49.5668 185.778 48.663 185.455 47.503 185.455H45.8355V192.734H47.503ZM57.5951 194.517C56.8701 194.517 56.2176 194.348 55.6376 194.01C55.0672 193.671 54.6177 193.207 54.2891 192.618C53.9701 192.018 53.8106 191.346 53.8106 190.602C53.8106 189.896 53.9652 189.244 54.2746 188.645C54.5936 188.036 55.0334 187.552 55.5941 187.195C56.1547 186.837 56.7927 186.658 57.5081 186.658C58.2524 186.658 58.8952 186.822 59.4366 187.151C59.9876 187.48 60.4032 187.929 60.6836 188.5C60.9736 189.07 61.1186 189.713 61.1186 190.428C61.1186 190.563 61.1041 190.733 61.0751 190.936H55.4056C55.4636 191.622 55.7052 192.154 56.1306 192.531C56.5656 192.898 57.0682 193.082 57.6386 193.082C58.0929 193.082 58.4844 192.98 58.8131 192.777C59.1514 192.564 59.4221 192.279 59.6251 191.922L60.9736 192.56C60.6256 193.169 60.1712 193.647 59.6106 193.995C59.0499 194.343 58.3781 194.517 57.5951 194.517ZM59.4946 189.718C59.4752 189.457 59.3931 189.2 59.2481 188.949C59.1031 188.688 58.8807 188.471 58.5811 188.297C58.2911 188.123 57.9334 188.036 57.5081 188.036C56.9957 188.036 56.5607 188.19 56.2031 188.5C55.8551 188.799 55.6134 189.205 55.4781 189.718H59.4946ZM65.3389 194.517C64.4882 194.517 63.7922 194.333 63.2509 193.966C62.7095 193.589 62.3277 193.111 62.1054 192.531L63.5264 191.907C63.7004 192.294 63.942 192.589 64.2514 192.792C64.5704 192.995 64.9329 193.096 65.3389 193.096C65.7352 193.096 66.0687 193.028 66.3394 192.893C66.61 192.748 66.7454 192.535 66.7454 192.255C66.7454 191.984 66.6294 191.772 66.3974 191.617C66.1654 191.462 65.8077 191.327 65.3244 191.211L64.4399 190.994C63.8502 190.849 63.362 190.592 62.9754 190.225C62.5887 189.858 62.3954 189.394 62.3954 188.833C62.3954 188.398 62.521 188.016 62.7724 187.688C63.0334 187.359 63.3814 187.108 63.8164 186.934C64.2514 186.75 64.725 186.658 65.2374 186.658C65.9237 186.658 66.5279 186.798 67.0499 187.079C67.5719 187.349 67.9489 187.746 68.1809 188.268L66.7889 188.877C66.5085 188.306 65.9962 188.021 65.2519 188.021C64.8942 188.021 64.5945 188.094 64.3529 188.239C64.1112 188.384 63.9904 188.572 63.9904 188.804C63.9904 189.026 64.0822 189.21 64.2659 189.355C64.4495 189.49 64.7202 189.606 65.0779 189.703L66.1654 189.979C66.8904 190.162 67.4365 190.443 67.8039 190.82C68.1809 191.187 68.3694 191.641 68.3694 192.183C68.3694 192.647 68.234 193.057 67.9634 193.415C67.7024 193.763 67.3399 194.034 66.8759 194.227C66.4119 194.42 65.8995 194.517 65.3389 194.517ZM70.593 185.817C70.2933 185.817 70.0371 185.716 69.8245 185.513C69.6215 185.3 69.52 185.044 69.52 184.744C69.52 184.444 69.6215 184.193 69.8245 183.99C70.0371 183.777 70.2933 183.671 70.593 183.671C70.8926 183.671 71.144 183.777 71.347 183.99C71.5596 184.193 71.666 184.444 71.666 184.744C71.666 185.044 71.5596 185.3 71.347 185.513C71.144 185.716 70.8926 185.817 70.593 185.817ZM69.7955 186.89H71.3905V194.285H69.7955V186.89ZM76.6395 197.649C75.7308 197.649 74.9768 197.441 74.3775 197.026C73.7878 196.61 73.3915 196.117 73.1885 195.547L74.682 194.923C74.8366 195.31 75.0831 195.619 75.4215 195.851C75.7695 196.093 76.1755 196.214 76.6395 196.214C77.3161 196.214 77.843 196.011 78.22 195.605C78.6066 195.208 78.8 194.648 78.8 193.923V193.241H78.713C78.4713 193.589 78.1475 193.865 77.7415 194.068C77.3451 194.261 76.886 194.358 76.364 194.358C75.7453 194.358 75.1701 194.198 74.6385 193.879C74.1068 193.56 73.6815 193.111 73.3625 192.531C73.0531 191.941 72.8985 191.269 72.8985 190.515C72.8985 189.761 73.0531 189.094 73.3625 188.514C73.6815 187.924 74.1068 187.47 74.6385 187.151C75.1701 186.822 75.7453 186.658 76.364 186.658C76.8763 186.658 77.3355 186.76 77.7415 186.963C78.1475 187.166 78.4713 187.441 78.713 187.789H78.8V186.89H80.3225V193.879C80.3225 194.681 80.1678 195.363 79.8585 195.924C79.5491 196.494 79.1141 196.924 78.5535 197.214C78.0025 197.504 77.3645 197.649 76.6395 197.649ZM76.654 192.908C77.0406 192.908 77.3983 192.816 77.727 192.632C78.0556 192.439 78.3166 192.163 78.51 191.806C78.7033 191.438 78.8 191.008 78.8 190.515C78.8 189.761 78.5921 189.176 78.1765 188.761C77.7705 188.335 77.263 188.123 76.654 188.123C76.2576 188.123 75.8951 188.219 75.5665 188.413C75.2378 188.596 74.9768 188.867 74.7835 189.225C74.5901 189.582 74.4935 190.012 74.4935 190.515C74.4935 191.018 74.5901 191.448 74.7835 191.806C74.9768 192.163 75.2378 192.439 75.5665 192.632C75.8951 192.816 76.2576 192.908 76.654 192.908ZM82.197 186.89H83.7195V187.862H83.792C84.0047 187.514 84.3189 187.228 84.7345 187.006C85.1599 186.774 85.6094 186.658 86.083 186.658C86.982 186.658 87.6635 186.924 88.1275 187.456C88.6012 187.978 88.838 188.693 88.838 189.602V194.285H87.243V189.819C87.243 189.239 87.098 188.814 86.808 188.543C86.5277 188.272 86.1362 188.137 85.6335 188.137C85.2759 188.137 84.9569 188.239 84.6765 188.442C84.3962 188.635 84.1787 188.896 84.024 189.225C83.8694 189.553 83.792 189.906 83.792 190.283V194.285H82.197V186.89ZM94.015 194.517C93.29 194.517 92.6375 194.348 92.0575 194.01C91.4872 193.671 91.0377 193.207 90.709 192.618C90.39 192.018 90.2305 191.346 90.2305 190.602C90.2305 189.896 90.3852 189.244 90.6945 188.645C91.0135 188.036 91.4533 187.552 92.014 187.195C92.5747 186.837 93.2127 186.658 93.928 186.658C94.6723 186.658 95.3152 186.822 95.8565 187.151C96.4075 187.48 96.8232 187.929 97.1035 188.5C97.3935 189.07 97.5385 189.713 97.5385 190.428C97.5385 190.563 97.524 190.733 97.495 190.936H91.8255C91.8835 191.622 92.1252 192.154 92.5505 192.531C92.9855 192.898 93.4882 193.082 94.0585 193.082C94.5128 193.082 94.9043 192.98 95.233 192.777C95.5713 192.564 95.842 192.279 96.045 191.922L97.3935 192.56C97.0455 193.169 96.5912 193.647 96.0305 193.995C95.4698 194.343 94.798 194.517 94.015 194.517ZM95.9145 189.718C95.8952 189.457 95.813 189.2 95.668 188.949C95.523 188.688 95.3007 188.471 95.001 188.297C94.711 188.123 94.3533 188.036 93.928 188.036C93.4157 188.036 92.9807 188.19 92.623 188.5C92.275 188.799 92.0333 189.205 91.898 189.718H95.9145ZM98.991 186.89H100.513V187.978H100.586C100.75 187.601 101.035 187.291 101.441 187.05C101.847 186.798 102.278 186.673 102.732 186.673C103.09 186.673 103.389 186.721 103.631 186.818V188.471C103.206 188.316 102.824 188.239 102.485 188.239C102.118 188.239 101.789 188.335 101.499 188.529C101.219 188.722 100.997 188.983 100.832 189.312C100.668 189.631 100.586 189.983 100.586 190.37V194.285H98.991V186.89Z" fill="white"/>
    <path opacity="0.2" d="M141 195C149.284 195 156 188.284 156 180C156 171.716 149.284 165 141 165C132.716 165 126 171.716 126 180C126 188.284 132.716 195 141 195Z" fill="white"/>
    <path d="M137.921 186.26C137.444 187.413 138.938 188.356 139.774 187.428L145.221 181.377C145.734 180.806 145.529 179.9 144.821 179.607L143.85 179.205C143.283 178.97 143.014 178.32 143.249 177.753L144.78 174.056C145.256 172.907 143.775 171.964 142.935 172.88L137.292 179.035C136.771 179.604 136.974 180.518 137.686 180.813L138.786 181.268C139.353 181.503 139.622 182.153 139.388 182.72L137.921 186.26Z" fill="white"/>
</svg>
