<svg viewBox="0 0 96 97" xmlns="http://www.w3.org/2000/svg"><path d="m27.943 55.379c-0.1845-0.1844-0.1845-0.3689 0-0.5533 0.3688-0.3689 0.8299-0.5072 1.3832-0.415s0.876 0.1845 0.9683 0.2767c0.6455 0.2766 1.3602 0.8991 2.144 1.8674s1.4063 1.6369 1.8675 2.0058c2.2132 1.8443 4.4725 1.9827 6.778 0.4149 0.1844-0.6455 0.4842-1.1988 0.8991-1.66 0.4149-0.4611 0.8069-0.7837 1.1758-0.9683 0.369-0.1844 1.0145-0.461 1.9367-0.8299-3.0433-0.2767-5.5101-0.807-7.4006-1.5908-1.8905-0.7839-3.3891-1.7752-4.4957-2.9741-1.4755-1.6599-2.3747-3.827-2.6974-6.5014-0.3229-2.6743-0.1154-5.1181 0.6225-7.3314 0.5533-1.3832 1.3371-2.6281 2.3515-3.7348-0.7378-2.3055-0.5994-4.9337 0.415-7.8847 2.951 0.1844 5.6253 1.1988 8.023 3.0432 4.6109-1.1989 9.4063-1.245 14.386-0.1383 0.6456-0.4611 1.637-1.0375 2.9741-1.7292 1.3371-0.6916 3.0202-1.0836 5.049-1.1758 0.3689 1.0144 0.6225 2.2132 0.7608 3.5965s0.0692 2.6744-0.2074 3.8732c2.1209 2.2133 3.2276 5.1643 3.3198 8.853 0 2.951-0.5072 5.3948-1.5216 7.3314s-2.8126 3.5504-5.3948 4.8414c-1.7521 0.8301-4.0576 1.3372-6.9164 1.5216 1.2912 0.6456 2.2364 1.3142 2.8358 2.0058 0.5995 0.6917 0.9914 1.7752 1.1759 3.2507v4.3574l0.1382 4.219c0.2767 0.4612 0.5995 0.8531 0.9684 1.1759s0.6916 0.5533 0.9683 0.6916c0.2766 0.1384 0.3689 0.3459 0.2766 0.6226-0.0922 0.2766-0.4611 0.4149-1.1066 0.4149-1.5678 0-2.8126-0.5533-3.7348-1.66-0.2767-0.4611-0.415-1.0143-0.415-1.6599v-6.6398c0-0.7377-0.1844-1.268-0.5533-1.5908s-0.7378-0.5302-1.1066-0.6225v8.7147c0 1.5677 0.1844 2.5821 0.5533 3.0432 0.3688 0.4611 0.5994 0.9223 0.6917 1.3833 0.0922 0.0922 0.023 0.1614-0.2076 0.2075-0.2304 0.046-0.6224-0.0231-1.1758-0.2075-1.1988-0.2767-2.0288-0.8992-2.4899-1.8675s-0.6916-2.0058-0.6916-3.1124v-8.5761h-1.7983v8.5763c0 1.1067-0.2306 2.1672-0.6917 3.1816-0.6455 1.2911-1.8444 1.9827-3.5965 2.0749-0.2766-0.0922-0.4149-0.1844-0.4149-0.2766 0.0922-0.0923 0.3688-0.5533 0.8299-1.3833 0.0922-0.1844 0.2076-0.5533 0.3459-1.1066 0.1384-0.5533 0.2075-1.1988 0.2075-1.9366v-8.7147c-0.3689 0.0922-0.7147 0.2996-1.0375 0.6225-0.3228 0.3228-0.4842 0.853-0.4842 1.5908v6.6397c0 0.6455-0.1383 1.1989-0.415 1.66-0.8299 1.1066-2.0749 1.66-3.7347 1.66-0.6456 0-1.0145-0.1383-1.1067-0.415-0.0923-0.1844-0.0692-0.3458 0.0692-0.4842 0.1384-0.1383 0.3459-0.2997 0.6225-0.4842 0.2767-0.1844 0.4611-0.3228 0.5534-0.4149 0.3688-0.2767 0.6454-0.6456 0.8299-1.1067 0.2767-0.3688 0.3458-1.3371 0.2075-2.9049-0.1384-1.5677-0.1614-2.5821-0.0692-3.0432-2.3978 0.83-4.8415 0.4149-7.3315-1.2449-0.7377-0.7378-1.4755-1.7984-2.2132-3.1816-0.5533-1.0145-1.66-2.2133-3.3198-3.5966z" fill="#0F0D1A"/></svg>
