<svg width="20" height="20" viewBox="0 0 20 20" fill="none" xmlns="http://www.w3.org/2000/svg">
<path d="M9.99163 1.6665C5.39163 1.6665 1.66663 5.39984 1.66663 9.99984C1.66663 14.5998 5.39163 18.3332 9.99163 18.3332C14.6 18.3332 18.3333 14.5998 18.3333 9.99984C18.3333 5.39984 14.6 1.6665 9.99163 1.6665ZM15.7666 6.6665H13.3083C13.0416 5.62484 12.6583 4.62484 12.1583 3.69984C13.6916 4.22484 14.9666 5.2915 15.7666 6.6665ZM9.99996 3.3665C10.6916 4.3665 11.2333 5.47484 11.5916 6.6665H8.40829C8.76663 5.47484 9.30829 4.3665 9.99996 3.3665ZM3.54996 11.6665C3.41663 11.1332 3.33329 10.5748 3.33329 9.99984C3.33329 9.42484 3.41663 8.8665 3.54996 8.33317H6.36663C6.29996 8.88317 6.24996 9.43317 6.24996 9.99984C6.24996 10.5665 6.29996 11.1165 6.36663 11.6665H3.54996ZM4.23329 13.3332H6.69163C6.95829 14.3748 7.34163 15.3748 7.84163 16.2998C6.30829 15.7748 5.03329 14.7165 4.23329 13.3332V13.3332ZM6.69163 6.6665H4.23329C5.03329 5.28317 6.30829 4.22484 7.84163 3.69984C7.34163 4.62484 6.95829 5.62484 6.69163 6.6665V6.6665ZM9.99996 16.6332C9.30829 15.6332 8.76663 14.5248 8.40829 13.3332H11.5916C11.2333 14.5248 10.6916 15.6332 9.99996 16.6332ZM11.95 11.6665H8.04996C7.97496 11.1165 7.91663 10.5665 7.91663 9.99984C7.91663 9.43317 7.97496 8.87484 8.04996 8.33317H11.95C12.025 8.87484 12.0833 9.43317 12.0833 9.99984C12.0833 10.5665 12.025 11.1165 11.95 11.6665ZM12.1583 16.2998C12.6583 15.3748 13.0416 14.3748 13.3083 13.3332H15.7666C14.9666 14.7082 13.6916 15.7748 12.1583 16.2998V16.2998ZM13.6333 11.6665C13.7 11.1165 13.75 10.5665 13.75 9.99984C13.75 9.43317 13.7 8.88317 13.6333 8.33317H16.45C16.5833 8.8665 16.6666 9.42484 16.6666 9.99984C16.6666 10.5748 16.5833 11.1332 16.45 11.6665H13.6333Z" fill="#858391"/>
</svg>
