<svg width="96" height="96" viewBox="0 0 96 96" fill="none" xmlns="http://www.w3.org/2000/svg">
<path fill-rule="evenodd" clip-rule="evenodd" d="M40.6867 26.6379C40.6867 25.0233 41.9984 23.7144 43.6163 23.7144C54.5824 23.7144 63.4722 32.5857 63.4722 43.529C63.4722 45.1436 62.1606 46.4525 60.5426 46.4525C58.9246 46.4525 57.6131 45.1436 57.6131 43.529C57.6131 35.8149 51.3465 29.5614 43.6163 29.5614C41.9984 29.5614 40.6867 28.2524 40.6867 26.6379Z" fill="#0F0D1A"/>
<path fill-rule="evenodd" clip-rule="evenodd" d="M69.3561 40.6055C70.9741 40.6055 72.2856 41.9143 72.2856 43.529C72.2856 54.4723 63.3959 63.3436 52.4298 63.3436C50.8119 63.3436 49.5002 62.0347 49.5002 60.4201C49.5002 58.8055 50.8119 57.4966 52.4298 57.4966C60.1599 57.4966 66.4265 51.2431 66.4265 43.529C66.4265 41.9143 67.7381 40.6055 69.3561 40.6055Z" fill="#0F0D1A"/>
<path fill-rule="evenodd" clip-rule="evenodd" d="M55.3593 69.3622C55.3593 70.9769 54.0478 72.2858 52.4298 72.2858C41.4637 72.2858 32.5739 63.4145 32.5739 52.4711C32.5739 50.8565 33.8856 49.5476 35.5035 49.5476C37.1214 49.5476 38.4331 50.8565 38.4331 52.4711C38.4331 60.1852 44.6996 66.4388 52.4298 66.4388C54.0478 66.4388 55.3593 67.7477 55.3593 69.3622Z" fill="#0F0D1A"/>
<path fill-rule="evenodd" clip-rule="evenodd" d="M26.6439 55.3946C25.0259 55.3946 23.7143 54.0857 23.7143 52.4711C23.7143 41.5278 32.6041 32.6565 43.5702 32.6565C45.1881 32.6565 46.4997 33.9654 46.4997 35.5799C46.4997 37.1946 45.1881 38.5034 43.5702 38.5034C35.84 38.5034 29.5734 44.757 29.5734 52.4711C29.5734 54.0857 28.2618 55.3946 26.6439 55.3946Z" fill="#0F0D1A"/>
</svg>
