<svg width="16" height="16" viewBox="0 0 16 16" fill="none" xmlns="http://www.w3.org/2000/svg">
<path d="M13 8C13 9.37681 12.5072 10.558 11.5217 11.5435C10.5507 12.5145 9.37681 13 8 13C6.6087 13 5.42754 12.5145 4.45652 11.5435C3.48551 10.5725 3 9.3913 3 8C3 6.62319 3.48551 5.44928 4.45652 4.47826C5.44203 3.49275 6.62319 3 8 3C9.36232 3 10.5362 3.49275 11.5217 4.47826C12.5072 5.46377 13 6.63768 13 8ZM4.04348 8C4.04348 9.07246 4.43478 10 5.21739 10.7826C6 11.5652 6.92754 11.9565 8 11.9565C9.08696 11.9565 10.0145 11.5725 10.7826 10.8043C11.5652 10.0217 11.9565 9.08696 11.9565 8C11.9565 6.89855 11.5725 5.96377 10.8043 5.19565C10.0362 4.42754 9.10145 4.04348 8 4.04348C6.91304 4.04348 5.97826 4.43478 5.19565 5.21739C4.42754 5.98551 4.04348 6.91304 4.04348 8ZM8.08696 10.587C7.34783 10.587 6.73188 10.3406 6.23913 9.84783C5.74638 9.35507 5.5 8.73913 5.5 8C5.5 7.27536 5.74638 6.66667 6.23913 6.17391C6.74638 5.66667 7.36232 5.41304 8.08696 5.41304C8.78261 5.41304 9.41304 5.69565 9.97826 6.26087L9.28261 6.8913C8.94928 6.54348 8.55072 6.36957 8.08696 6.36957C7.65217 6.36957 7.27536 6.52899 6.95652 6.84783C6.65217 7.16667 6.5 7.55072 6.5 8C6.5 8.21739 6.54348 8.42754 6.63043 8.63043C6.71739 8.83333 6.83333 9.00725 6.97826 9.15217C7.12319 9.2971 7.28985 9.41304 7.47826 9.5C7.66667 9.58696 7.86957 9.63043 8.08696 9.63043C8.63768 9.63043 9.07246 9.4058 9.3913 8.95652L10.1304 9.54348C9.6087 10.2391 8.92754 10.587 8.08696 10.587Z" fill="#332E4D99"/>
</svg>
