<svg viewBox="0 0 32 32" xmlns="http://www.w3.org/2000/svg"><path d="m26 16c0 2.7536-0.9855 5.1159-2.9565 7.087-1.9421 1.942-4.2899 2.913-7.0435 2.913-2.7826 0-5.1449-0.971-7.087-2.913-1.942-1.9421-2.913-4.3044-2.913-7.087 0-2.7536 0.97101-5.1014 2.913-7.0435 1.9711-1.971 4.3334-2.9565 7.087-2.9565 2.7246 0 5.0725 0.98551 7.0435 2.9565 1.971 1.971 2.9565 4.3189 2.9565 7.0435zm-17.913 0c0 2.1449 0.78261 4 2.3478 5.5652 1.5652 1.5652 3.4203 2.3478 5.5652 2.3478 2.1739 0 4.029-0.7681 5.5652-2.3043 1.5652-1.5652 2.3478-3.4348 2.3478-5.6087 0-2.2029-0.7681-4.0725-2.3043-5.6087-1.5362-1.5362-3.4058-2.3043-5.6087-2.3043-2.1739 0-4.0435 0.78261-5.6087 2.3478-1.5362 1.5362-2.3043 3.3913-2.3043 5.5652zm8.0869 5.1739c-1.4782 0-2.7101-0.4927-3.6956-1.4782-0.9855-0.9856-1.4783-2.2174-1.4783-3.6957 0-1.4493 0.4928-2.6667 1.4783-3.6522 1.0145-1.0145 2.2463-1.5217 3.6956-1.5217 1.3913 0 2.6522 0.5652 3.7826 1.6956l-1.3913 1.2609c-0.6666-0.6956-1.4638-1.0435-2.3913-1.0435-0.8696 0-1.6232 0.3189-2.2609 0.9566-0.6087 0.6376-0.913 1.4057-0.913 2.3043 0 0.4348 0.087 0.8551 0.2609 1.2609s0.4058 0.7536 0.6956 1.0434c0.2899 0.2899 0.6232 0.5218 1 0.6957s0.7826 0.2609 1.2174 0.2609c1.1015 0 1.971-0.4493 2.6087-1.3479l1.4783 1.174c-1.0435 1.3913-2.4058 2.0869-4.087 2.0869z" fill="#858391"/></svg>
