<svg width="96" height="96" viewBox="0 0 96 96" fill="none" xmlns="http://www.w3.org/2000/svg">
<path fill-rule="evenodd" clip-rule="evenodd" d="M27.667 63.3545C28.7912 64.4515 30.4258 65 32.5709 65H63.8555C65.7938 65 67.2993 64.4515 68.3718 63.3545C69.4573 62.2703 70 60.6759 70 58.5712V37.4097C70 35.3178 69.4443 33.7297 68.333 32.6455C67.2217 31.5485 65.5871 31 63.4291 31H32.1445C30.2062 31 28.6943 31.5485 27.6088 32.6455C26.5363 33.7297 26 35.3178 26 37.4097V58.5712C26 60.6759 26.5557 62.2703 27.667 63.3545ZM64.0484 60.9296C63.8387 60.9645 63.6128 60.982 63.3709 60.982H32.6485C32.4129 60.982 32.1926 60.9659 31.9876 60.9338L42.7665 50.3778L43.6969 51.2814C44.4076 51.9829 45.1184 52.4932 45.8291 52.812C46.5398 53.1182 47.2699 53.2712 48.0194 53.2712C48.7689 53.2712 49.499 53.1182 50.2097 52.812C50.9204 52.4932 51.6311 51.9829 52.3418 51.2814L53.2816 50.3688L64.0484 60.9296ZM65.9877 57.7823L55.8524 47.8725L65.9877 38.0306V57.7823ZM63.9037 35.0503C63.7357 35.0288 63.5581 35.018 63.3709 35.018H32.6485C32.468 35.018 32.2965 35.0277 32.134 35.0471L45.9066 48.4688C46.3072 48.8387 46.6755 49.1193 47.0115 49.3106C47.3474 49.4892 47.6834 49.5785 48.0194 49.5785C48.3683 49.5785 48.7107 49.4892 49.0467 49.3106C49.3827 49.1321 49.751 48.8514 50.1515 48.4688L63.9037 35.0503ZM30.0123 37.9922V57.8202L40.1865 47.8724L30.0123 37.9922Z" fill="black"/>
</svg>
