<svg width="96" height="96" viewBox="0 0 96 96" fill="none" xmlns="http://www.w3.org/2000/svg">
<path d="M27.3151 36.2229C26.5 37.8185 26.5 39.9071 26.5 44.0844V51.9164C26.5 55.6426 26.5 57.7069 27.0785 59.2417L39.9238 47.4743L27.4691 35.9369C27.4158 36.031 27.3644 36.1263 27.3151 36.2229Z" fill="black" style="fill:black;fill:black;fill-opacity:1;"/>
<path d="M30.5832 63.0374C29.9976 62.7398 29.4576 62.3685 28.975 61.9351L42.3285 49.7022L43.794 51.06C44.4886 51.7141 45.1832 52.1898 45.8778 52.4871C46.5723 52.7726 47.2858 52.9152 48.0183 52.9152C48.7508 52.9152 49.4643 52.7726 50.1588 52.4871C50.8534 52.1898 51.5479 51.7141 52.2425 51.06L53.7007 49.7091L67.0258 61.9345C66.5429 62.3681 66.0026 62.7397 65.4168 63.0374C63.8171 63.8504 61.7229 63.8504 57.5347 63.8504H38.4653C34.2771 63.8504 32.1829 63.8504 30.5832 63.0374Z" fill="black" style="fill:black;fill:black;fill-opacity:1;"/>
<path d="M68.922 59.2404C69.5 57.7057 69.5 55.6415 69.5 51.9164V44.0844C69.5 39.9071 69.5 37.8185 68.6849 36.2229C68.637 36.1292 68.5872 36.0367 68.5356 35.9453L56.105 47.4811L68.922 59.2404Z" fill="black" style="fill:black;fill:black;fill-opacity:1;"/>
<path d="M29.8123 33.415L45.9535 48.4377C46.345 48.7826 46.705 49.0442 47.0333 49.2225C47.3616 49.3891 47.6899 49.4723 48.0183 49.4723C48.3593 49.4723 48.6939 49.3891 49.0223 49.2225C49.3506 49.0561 49.7106 48.7944 50.102 48.4377L66.1894 33.4161C65.9421 33.2505 65.6842 33.0993 65.4168 32.9633C63.8171 32.1504 61.7229 32.1504 57.5346 32.1504H38.4653C34.2771 32.1504 32.1829 32.1504 30.5832 32.9633C30.3164 33.0989 30.0591 33.2499 29.8123 33.415Z" fill="black" style="fill:black;fill:black;fill-opacity:1;"/>
</svg>
