<svg width="48" height="48" viewBox="0 0 48 48" fill="none" xmlns="http://www.w3.org/2000/svg">
<path d="M24 13.95C18.48 13.95 14 18.43 14 23.95C14 29.47 18.48 33.95 24 33.95H28C28.5523 33.95 29 33.5022 29 32.95C29 32.3977 28.5523 31.95 28 31.95H24C19.66 31.95 16 28.29 16 23.95C16 19.61 19.66 15.95 24 15.95C28.34 15.95 32 19.61 32 23.95V25.38C32 26.17 31.29 26.95 30.5 26.95C29.71 26.95 29 26.17 29 25.38V23.95C29 21.19 26.76 18.95 24 18.95C21.24 18.95 19 21.19 19 23.95C19 26.71 21.24 28.95 24 28.95C25.38 28.95 26.64 28.39 27.54 27.48C28.19 28.37 29.31 28.95 30.5 28.95C32.47 28.95 34 27.35 34 25.38V23.95C34 18.43 29.52 13.95 24 13.95ZM24 26.95C22.34 26.95 21 25.61 21 23.95C21 22.29 22.34 20.95 24 20.95C25.66 20.95 27 22.29 27 23.95C27 25.61 25.66 26.95 24 26.95Z" fill="black"/>
</svg>
