<svg width="48" height="49" viewBox="0 0 48 49" fill="none" xmlns="http://www.w3.org/2000/svg">
<path d="M13.9713 27.4395C13.8791 27.3473 13.8791 27.2551 13.9713 27.1629C14.1557 26.9784 14.3863 26.9093 14.6629 26.9554C14.9395 27.0015 15.1009 27.0476 15.147 27.0937C15.4698 27.232 15.8272 27.5432 16.2191 28.0274C16.611 28.5116 16.9222 28.8458 17.1528 29.0303C18.2594 29.9525 19.3891 30.0216 20.5418 29.2378C20.634 28.915 20.7839 28.6384 20.9913 28.4078C21.1988 28.1772 21.3948 28.0159 21.5793 27.9236C21.7637 27.8314 22.0865 27.6931 22.5476 27.5086C21.0259 27.3703 19.7925 27.1052 18.8473 26.7132C17.9021 26.3213 17.1528 25.8256 16.5994 25.2262C15.8617 24.3963 15.4121 23.3127 15.2507 21.9755C15.0893 20.6383 15.1931 19.4164 15.562 18.3098C15.8386 17.6182 16.2306 16.9957 16.7377 16.4424C16.3689 15.2897 16.438 13.9755 16.9452 12.5C18.4207 12.5923 19.7579 13.0995 20.9567 14.0216C23.2622 13.4222 25.6599 13.3992 28.1498 13.9525C28.4725 13.7219 28.9682 13.4338 29.6368 13.0879C30.3054 12.7421 31.1469 12.5461 32.1613 12.5C32.3457 13.0072 32.4725 13.6066 32.5417 14.2983C32.6109 14.9899 32.5763 15.6354 32.438 16.2349C33.4985 17.3415 34.0518 18.817 34.0979 20.6614C34.0979 22.1369 33.8443 23.3588 33.3371 24.3271C32.8299 25.2953 31.9308 26.1023 30.6397 26.7478C29.7636 27.1628 28.6109 27.4163 27.1815 27.5086C27.8271 27.8313 28.2997 28.1656 28.5994 28.5115C28.8991 28.8573 29.0951 29.3991 29.1873 30.1368V32.3155L29.2565 34.425C29.3948 34.6556 29.5562 34.8515 29.7407 35.013C29.9251 35.1743 30.0865 35.2896 30.2248 35.3588C30.3631 35.4279 30.4092 35.5317 30.3631 35.67C30.317 35.8084 30.1325 35.8775 29.8098 35.8775C29.0259 35.8775 28.4035 35.6009 27.9424 35.0475C27.8041 34.817 27.7349 34.5404 27.7349 34.2176V30.8977C27.7349 30.5288 27.6427 30.2637 27.4582 30.1023C27.2738 29.9409 27.0894 29.8371 26.9049 29.791V34.1484C26.9049 34.9322 26.9971 35.4394 27.1816 35.67C27.366 35.9005 27.4813 36.1311 27.5274 36.3616C27.5735 36.4077 27.5389 36.4423 27.4237 36.4653C27.3084 36.4883 27.1125 36.4538 26.8358 36.3616C26.2363 36.2233 25.8214 35.912 25.5908 35.4279C25.3603 34.9437 25.245 34.425 25.245 33.8717V29.5836H24.3459V33.8718C24.3459 34.4251 24.2305 34.9554 24 35.4625C23.6773 36.1081 23.0778 36.4539 22.2018 36.5C22.0634 36.4539 21.9943 36.4078 21.9943 36.3617C22.0404 36.3156 22.1787 36.0851 22.4093 35.6701C22.4554 35.5778 22.513 35.3934 22.5822 35.1168C22.6514 34.8401 22.686 34.5173 22.686 34.1485V29.7911C22.5015 29.8372 22.3286 29.9409 22.1672 30.1023C22.0058 30.2638 21.9251 30.5289 21.9251 30.8977V34.2176C21.9251 34.5404 21.8559 34.817 21.7176 35.0476C21.3026 35.6009 20.6802 35.8776 19.8502 35.8776C19.5275 35.8776 19.343 35.8084 19.2969 35.6701C19.2508 35.5779 19.2623 35.4972 19.3315 35.428C19.4007 35.3588 19.5044 35.2781 19.6428 35.1859C19.7811 35.0937 19.8733 35.0245 19.9194 34.9784C20.1039 34.8401 20.2422 34.6557 20.3344 34.4251C20.4727 34.2407 20.5073 33.7565 20.4381 32.9727C20.369 32.1888 20.3574 31.6816 20.4035 31.4511C19.2047 31.866 17.9828 31.6585 16.7378 30.8286C16.3689 30.4597 16.0001 29.9294 15.6312 29.2378C15.3545 28.7306 14.8012 28.1311 13.9713 27.4395Z" fill="#0F0D1A"/>
</svg>
