<svg width="48" height="49" viewBox="0 0 48 49" fill="none" xmlns="http://www.w3.org/2000/svg">
<path d="M13.9713 27.9395C13.8791 27.8473 13.8791 27.7551 13.9713 27.6629C14.1557 27.4784 14.3863 27.4093 14.6629 27.4554C14.9395 27.5015 15.1009 27.5476 15.147 27.5937C15.4698 27.732 15.8272 28.0432 16.2191 28.5274C16.611 29.0116 16.9222 29.3458 17.1528 29.5303C18.2594 30.4525 19.3891 30.5216 20.5418 29.7378C20.634 29.415 20.7839 29.1384 20.9913 28.9078C21.1988 28.6772 21.3948 28.5159 21.5793 28.4236C21.7637 28.3314 22.0865 28.1931 22.5476 28.0086C21.0259 27.8703 19.7925 27.6052 18.8473 27.2132C17.9021 26.8213 17.1528 26.3256 16.5994 25.7262C15.8617 24.8963 15.4121 23.8127 15.2507 22.4755C15.0893 21.1383 15.1931 19.9164 15.562 18.8098C15.8386 18.1182 16.2306 17.4957 16.7377 16.9424C16.3689 15.7897 16.438 14.4755 16.9452 13C18.4207 13.0923 19.7579 13.5995 20.9567 14.5216C23.2622 13.9222 25.6599 13.8992 28.1498 14.4525C28.4725 14.2219 28.9682 13.9338 29.6368 13.5879C30.3054 13.2421 31.1469 13.0461 32.1613 13C32.3457 13.5072 32.4725 14.1066 32.5417 14.7983C32.6109 15.4899 32.5763 16.1354 32.438 16.7349C33.4985 17.8415 34.0518 19.317 34.0979 21.1614C34.0979 22.6369 33.8443 23.8588 33.3371 24.8271C32.8299 25.7953 31.9308 26.6023 30.6397 27.2478C29.7636 27.6628 28.6109 27.9163 27.1815 28.0086C27.8271 28.3313 28.2997 28.6656 28.5994 29.0115C28.8991 29.3573 29.0951 29.8991 29.1873 30.6368V32.8155L29.2565 34.925C29.3948 35.1556 29.5562 35.3515 29.7407 35.513C29.9251 35.6743 30.0865 35.7896 30.2248 35.8588C30.3631 35.9279 30.4092 36.0317 30.3631 36.17C30.317 36.3084 30.1325 36.3775 29.8098 36.3775C29.0259 36.3775 28.4035 36.1009 27.9424 35.5475C27.8041 35.317 27.7349 35.0404 27.7349 34.7176V31.3977C27.7349 31.0288 27.6427 30.7637 27.4582 30.6023C27.2738 30.4409 27.0894 30.3371 26.9049 30.291V34.6484C26.9049 35.4322 26.9971 35.9394 27.1816 36.17C27.366 36.4005 27.4813 36.6311 27.5274 36.8616C27.5735 36.9077 27.5389 36.9423 27.4237 36.9653C27.3084 36.9883 27.1125 36.9538 26.8358 36.8616C26.2363 36.7233 25.8214 36.412 25.5908 35.9279C25.3603 35.4437 25.245 34.925 25.245 34.3717V30.0836H24.3459V34.3718C24.3459 34.9251 24.2305 35.4554 24 35.9625C23.6773 36.6081 23.0778 36.9539 22.2018 37C22.0634 36.9539 21.9943 36.9078 21.9943 36.8617C22.0404 36.8156 22.1787 36.5851 22.4093 36.1701C22.4554 36.0778 22.513 35.8934 22.5822 35.6168C22.6514 35.3401 22.686 35.0173 22.686 34.6485V30.2911C22.5015 30.3372 22.3286 30.4409 22.1672 30.6023C22.0058 30.7638 21.9251 31.0289 21.9251 31.3977V34.7176C21.9251 35.0404 21.8559 35.317 21.7176 35.5476C21.3026 36.1009 20.6802 36.3776 19.8502 36.3776C19.5275 36.3776 19.343 36.3084 19.2969 36.1701C19.2508 36.0779 19.2623 35.9972 19.3315 35.928C19.4007 35.8588 19.5044 35.7781 19.6428 35.6859C19.7811 35.5937 19.8733 35.5245 19.9194 35.4784C20.1039 35.3401 20.2422 35.1557 20.3344 34.9251C20.4727 34.7407 20.5073 34.2565 20.4381 33.4727C20.369 32.6888 20.3574 32.1816 20.4035 31.9511C19.2047 32.366 17.9828 32.1585 16.7378 31.3286C16.3689 30.9597 16.0001 30.4294 15.6312 29.7378C15.3545 29.2306 14.8012 28.6311 13.9713 27.9395Z" fill="#0F0D1A"/>
</svg>
