<svg viewBox="0 0 96 96" xmlns="http://www.w3.org/2000/svg"><path d="m40.668 48c0-4.0499 3.2823-7.3339 7.3322-7.3339s7.3339 3.284 7.3339 7.3339-3.284 7.3339-7.3339 7.3339-7.3322-3.284-7.3322-7.3339zm-3.9645 0c0 6.2392 5.0575 11.297 11.297 11.297s11.297-5.0575 11.297-11.297-5.0575-11.297-11.297-11.297-11.297 5.0575-11.297 11.297zm20.401-11.745c-3e-4 0.5222 0.1544 1.0327 0.4443 1.4669 0.2899 0.4343 0.7021 0.7728 1.1844 0.9728s1.0131 0.2525 1.5253 0.1509c0.5121-0.1017 0.9826-0.3529 1.352-0.722 0.3693-0.3691 0.6209-0.8394 0.723-1.3514 0.1021-0.5121 0.05-1.0429-0.1496-1.5254s-0.5378-0.8949-0.9719-1.1852c-0.434-0.2903-0.9444-0.4453-1.4665-0.4455h-1e-3c-0.6999 3e-4 -1.3711 0.2784-1.8661 0.7732s-0.7733 1.1659-0.7739 1.8657zm-17.992 29.652c-2.1449-0.0977-3.3107-0.455-4.0855-0.7568-1.0271-0.3999-1.76-0.8762-2.5305-1.6456-0.7705-0.7695-1.2475-1.5017-1.6456-2.5288-0.302-0.7744-0.6593-1.9406-0.7568-4.0855-0.1067-2.319-0.128-3.0156-0.128-8.8906 0-5.8751 0.0231-6.5698 0.128-8.8907 0.0977-2.1449 0.4576-3.3088 0.7568-4.0855 0.3999-1.0271 0.8761-1.76 1.6456-2.5305s1.5016-1.2475 2.5305-1.6456c0.7744-0.302 1.9406-0.6593 4.0855-0.7568 2.319-0.1066 3.0156-0.1279 8.888-0.1279s6.5697 0.023 8.8906 0.1279c2.145 0.0977 3.3088 0.4576 4.0855 0.7568 1.0272 0.3981 1.76 0.8761 2.5306 1.6456 0.7705 0.7695 1.2457 1.5034 1.6456 2.5305 0.302 0.7744 0.6593 1.9406 0.7568 4.0855 0.1066 2.3209 0.1279 3.0156 0.1279 8.8907 0 5.875-0.0213 6.5697-0.1279 8.8906-0.0977 2.1449-0.4568 3.3108-0.7568 4.0855-0.3999 1.0271-0.8762 1.76-1.6456 2.5288-0.7695 0.7687-1.5034 1.2457-2.5306 1.6456-0.7744 0.302-1.9405 0.6593-4.0855 0.7568-2.3189 0.1066-3.0155 0.1279-8.8906 0.1279s-6.5697-0.0213-8.888-0.1279zm-0.1822-39.774c-2.342 0.1067-3.9424 0.478-5.34 1.0219-1.4474 0.5616-2.6727 1.3151-3.8971 2.5376-1.2245 1.2225-1.976 2.4497-2.5376 3.8971-0.5439 1.3985-0.9152 2.998-1.0219 5.34-0.1084 2.3458-0.1332 3.0957-0.1332 9.0702s0.0248 6.7244 0.1332 9.0702c0.1067 2.3422 0.478 3.9415 1.0219 5.34 0.5616 1.4465 1.3133 2.6752 2.5376 3.8971 1.2242 1.222 2.4497 1.9744 3.8971 2.5376 1.4003 0.5439 2.998 0.9152 5.34 1.0219 2.347 0.1066 3.0957 0.1332 9.0702 0.1332s6.7244-0.0248 9.0702-0.1332c2.3422-0.1067 3.9415-0.478 5.34-1.0219 1.4465-0.5632 2.6727-1.3151 3.8971-2.5376 1.2245-1.2225 1.9744-2.4506 2.5376-3.8971 0.5439-1.3985 0.917-2.998 1.0219-5.34 0.1066-2.3475 0.1314-3.0957 0.1314-9.0702s-0.0248-6.7244-0.1314-9.0702c-0.1067-2.3422-0.478-3.9424-1.0219-5.34-0.5632-1.4465-1.3151-2.6727-2.5376-3.8971-1.2225-1.2245-2.4506-1.976-3.8954-2.5376-1.4002-0.5439-2.9997-0.917-5.34-1.0219-2.3457-0.1066-3.0956-0.1332-9.0701-0.1332s-6.725 0.0248-9.072 0.1332z" fill="#0F0D1A"/></svg>
