<svg width="48" height="48" viewBox="0 0 48 48" fill="none" xmlns="http://www.w3.org/2000/svg">
<path d="M20.3339 24C20.3339 21.975 21.975 20.333 24 20.333C26.025 20.333 27.667 21.975 27.667 24C27.667 26.025 26.025 27.667 24 27.667C21.975 27.667 20.3339 26.025 20.3339 24ZM18.3516 24C18.3516 27.1196 20.8804 29.6484 24 29.6484C27.1196 29.6484 29.6484 27.1196 29.6484 24C29.6484 20.8804 27.1196 18.3516 24 18.3516C20.8804 18.3516 18.3516 20.8804 18.3516 24ZM28.552 18.1277C28.5519 18.3887 28.6292 18.644 28.7741 18.8611C28.9191 19.0782 29.1252 19.2475 29.3663 19.3475C29.6075 19.4475 29.8729 19.4738 30.129 19.4229C30.3851 19.3721 30.6203 19.2465 30.805 19.062C30.9897 18.8774 31.1155 18.6423 31.1665 18.3862C31.2175 18.1302 31.1915 17.8648 31.0917 17.6235C30.9919 17.3823 30.8228 17.1761 30.6058 17.031C30.3888 16.8858 30.1336 16.8083 29.8725 16.8082H29.872C29.522 16.8084 29.1865 16.9474 28.939 17.1948C28.6915 17.4422 28.5523 17.7777 28.552 18.1277V18.1277ZM19.556 32.9537C18.4835 32.9049 17.9006 32.7263 17.5133 32.5753C16.9997 32.3754 16.6333 32.1373 16.248 31.7525C15.8627 31.3678 15.6242 31.0017 15.4252 30.4882C15.2742 30.101 15.0955 29.5179 15.0468 28.4454C14.9935 27.2859 14.9828 26.9376 14.9828 24.0001C14.9828 21.0626 14.9943 20.7152 15.0468 19.5548C15.0956 18.4823 15.2756 17.9004 15.4252 17.512C15.6251 16.9985 15.8633 16.632 16.248 16.2468C16.6327 15.8615 16.9988 15.623 17.5133 15.424C17.9005 15.273 18.4835 15.0943 19.556 15.0456C20.7155 14.9922 21.0638 14.9816 24 14.9816C26.9362 14.9816 27.2849 14.9931 28.4453 15.0456C29.5178 15.0944 30.0997 15.2744 30.4881 15.424C31.0016 15.623 31.3681 15.862 31.7533 16.2468C32.1386 16.6315 32.3762 16.9985 32.5761 17.512C32.7271 17.8992 32.9058 18.4823 32.9545 19.5548C33.0079 20.7152 33.0185 21.0626 33.0185 24.0001C33.0185 26.9376 33.0079 27.285 32.9545 28.4454C32.9057 29.5179 32.7262 30.1008 32.5761 30.4882C32.3762 31.0017 32.1381 31.3682 31.7533 31.7525C31.3686 32.1369 31.0016 32.3754 30.4881 32.5753C30.1009 32.7263 29.5178 32.905 28.4453 32.9537C27.2858 33.0071 26.9375 33.0177 24 33.0177C21.0625 33.0177 20.7151 33.0071 19.556 32.9537V32.9537ZM19.4649 13.0666C18.2939 13.1199 17.4937 13.3056 16.7949 13.5775C16.0712 13.8584 15.4585 14.2351 14.8463 14.8463C14.2341 15.4576 13.8584 16.0712 13.5775 16.7949C13.3056 17.4942 13.1199 18.2939 13.0666 19.4649C13.0124 20.6378 13 21.0128 13 24C13 26.9872 13.0124 27.3622 13.0666 28.5351C13.1199 29.7062 13.3056 30.5058 13.5775 31.2051C13.8584 31.9284 14.2342 32.5427 14.8463 33.1537C15.4585 33.7647 16.0712 34.1409 16.7949 34.4225C17.495 34.6944 18.2939 34.8801 19.4649 34.9334C20.6384 34.9867 21.0128 35 24 35C26.9872 35 27.3622 34.9876 28.5351 34.9334C29.7062 34.8801 30.5058 34.6944 31.2051 34.4225C31.9284 34.1409 32.5415 33.7649 33.1537 33.1537C33.7659 32.5424 34.1409 31.9284 34.4225 31.2051C34.6944 30.5058 34.8809 29.7061 34.9334 28.5351C34.9867 27.3613 34.9991 26.9872 34.9991 24C34.9991 21.0128 34.9867 20.6378 34.9334 19.4649C34.8801 18.2938 34.6944 17.4937 34.4225 16.7949C34.1409 16.0716 33.7649 15.4585 33.1537 14.8463C32.5424 14.2341 31.9284 13.8584 31.206 13.5775C30.5058 13.3056 29.7061 13.1191 28.536 13.0666C27.3631 13.0133 26.9881 13 24.0009 13C21.0136 13 20.6384 13.0124 19.4649 13.0666Z" fill="#0F0D1A"/>
</svg>
