<svg width="96" height="96" viewBox="0 0 96 96" fill="none" xmlns="http://www.w3.org/2000/svg">
<style>
  path { fill: black; }
  @media (prefers-color-scheme: dark) { path { fill: white; } }
</style>
<path d="M38.0179 64.7892V39.6787H29.638V64.7892H38.0188H38.0179ZM33.8297 36.2508C36.7513 36.2508 38.5702 34.3227 38.5702 31.913C38.5155 29.4484 36.7513 27.574 33.8853 27.574C31.0172 27.574 29.1441 29.4484 29.1441 31.9127C29.1441 34.3224 30.9623 36.2506 33.7748 36.2506H33.829L33.8297 36.2508ZM42.6563 64.7892H51.0355V50.7679C51.0355 50.0184 51.0902 49.2669 51.3115 48.7316C51.917 47.2315 53.2958 45.6787 55.6113 45.6787C58.6427 45.6787 59.8561 47.9812 59.8561 51.3572V64.7892H68.2351V50.3916C68.2351 42.679 64.1016 39.09 58.5885 39.09C54.0684 39.09 52.0833 41.6062 50.9804 43.32H51.0361V39.6795H42.6567C42.7661 42.0352 42.656 64.7901 42.656 64.7901L42.6563 64.7892Z"/>
</svg>
