<svg width="48" height="48" viewBox="0 0 48 48" fill="none" xmlns="http://www.w3.org/2000/svg">
<path d="M12.9075 23.2905C12.9075 23.2905 22.4075 19.3917 25.7023 18.0188C26.9653 17.4697 31.2485 15.7124 31.2485 15.7124C31.2485 15.7124 33.2255 14.9437 33.0607 16.8107C33.0057 17.5795 32.5665 20.2702 32.1272 23.1807C31.4682 27.2992 30.7543 31.802 30.7543 31.802C30.7543 31.802 30.6445 33.0651 29.711 33.2847C28.7775 33.5043 27.2398 32.516 26.9653 32.2963C26.7456 32.1316 22.8468 29.6604 21.4191 28.4523C21.0347 28.1229 20.5954 27.4639 21.474 26.6951C23.4509 24.883 25.8121 22.6316 27.2398 21.2038C27.8988 20.5448 28.5578 19.0073 25.8121 20.8743C21.9133 23.5651 18.0694 26.0911 18.0694 26.0911C18.0694 26.0911 17.1907 26.6402 15.5434 26.146C13.8959 25.6518 11.974 24.9928 11.974 24.9928C11.974 24.9928 10.6561 24.1691 12.9075 23.2905V23.2905Z" fill="#0F0D1A"/>
</svg>
