<svg width="48" height="48" viewBox="0 0 48 48" fill="none" xmlns="http://www.w3.org/2000/svg">
<path d="M20.4146 34.25C29.2339 34.25 34.0569 26.9409 34.0569 20.6027C34.0569 20.3951 34.0526 20.1885 34.0433 19.9827C34.9817 19.3034 35.7916 18.4624 36.435 17.4989C35.5759 17.881 34.6514 18.1382 33.6815 18.2541C34.6715 17.6603 35.4314 16.7209 35.79 15.6012C34.8488 16.1597 33.8191 16.5535 32.7453 16.7654C31.8704 15.8331 30.6248 15.25 29.2454 15.25C26.5976 15.25 24.4504 17.398 24.4504 20.0458C24.4504 20.4223 24.4926 20.7883 24.5748 21.1395C20.5898 20.9389 17.0562 19.0303 14.6913 16.1281C14.2654 16.8601 14.0413 17.692 14.0421 18.5389C14.0421 20.203 14.8885 21.672 16.1758 22.5315C15.4144 22.5082 14.6696 22.3025 14.0043 21.9316C14.0036 21.9517 14.0036 21.9713 14.0036 21.9929C14.0036 24.3158 15.6563 26.2552 17.8502 26.6947C17.4381 26.807 17.013 26.8637 16.5859 26.8635C16.2775 26.8635 15.9769 26.8331 15.6848 26.777C16.2952 28.6828 18.0652 30.0697 20.1638 30.1084C18.5228 31.3952 16.4555 32.1616 14.2087 32.1616C13.8265 32.1619 13.4446 32.1397 13.065 32.0951C15.187 33.4558 17.7067 34.2497 20.4149 34.2497" fill="#0F0D1A"/>
</svg>
