<svg viewBox="0 0 96 96" xmlns="http://www.w3.org/2000/svg"><path d="m40.829 68.5c17.638 0 27.284-14.618 27.284-27.295 0-0.4152-0.0084-0.8284-0.0271-1.24 1.8768-1.3586 3.4966-3.0407 4.7834-4.9675-1.7183 0.7641-3.5672 1.2785-5.507 1.5104 1.9799-1.1876 3.4998-3.0664 4.217-5.306-1.8825 1.1171-3.9418 1.9046-6.0893 2.3286-1.7499-1.8647-4.2412-3.0309-6.9998-3.0309-5.2957 0-9.5901 4.2961-9.5901 9.5917 0 0.7528 0.0843 1.4849 0.2488 2.1873-7.97-0.4011-15.037-4.2184-19.767-10.023-0.8519 1.464-1.2999 3.1278-1.2984 4.8216 0 3.3282 1.6929 6.2663 4.2674 7.9852-1.5229-0.0465-3.0123-0.458-4.3431-1.1998-0.0014 0.0403-0.0014 0.0795-0.0014 0.1225 0 4.6458 3.3054 8.5248 7.6933 9.4037-0.8241 0.2245-1.6745 0.338-2.5286 0.3375-0.6169 0-1.218-0.0607-1.8023-0.1729 1.2209 3.8116 4.761 6.5853 8.9582 6.6629-3.2822 2.5734-7.4167 4.1062-11.91 4.1062-0.7644 7e-4 -1.5282-0.0437-2.2874-0.1329 4.244 2.7213 9.2834 4.3091 14.7 4.3091" fill="#0F0D1A"/></svg>
