<svg width="180" height="205" viewBox="0 0 180 205" fill="none" xmlns="http://www.w3.org/2000/svg">
    <rect width="180" height="205" rx="12" fill="#05050A"/>
    <path d="M27.54 144.82H23.54V142.68H33.78V144.82H29.78V157H27.54V144.82ZM38.647 157.32C37.647 157.32 36.747 157.087 35.947 156.62C35.1604 156.153 34.5404 155.513 34.087 154.7C33.647 153.873 33.427 152.947 33.427 151.92C33.427 150.947 33.6404 150.047 34.067 149.22C34.507 148.38 35.1137 147.713 35.887 147.22C36.6604 146.727 37.5404 146.48 38.527 146.48C39.5537 146.48 40.4404 146.707 41.187 147.16C41.947 147.613 42.5204 148.233 42.907 149.02C43.307 149.807 43.507 150.693 43.507 151.68C43.507 151.867 43.487 152.1 43.447 152.38H35.627C35.707 153.327 36.0404 154.06 36.627 154.58C37.227 155.087 37.9204 155.34 38.707 155.34C39.3337 155.34 39.8737 155.2 40.327 154.92C40.7937 154.627 41.167 154.233 41.447 153.74L43.307 154.62C42.827 155.46 42.2004 156.12 41.427 156.6C40.6537 157.08 39.727 157.32 38.647 157.32ZM41.267 150.7C41.2404 150.34 41.127 149.987 40.927 149.64C40.727 149.28 40.4204 148.98 40.007 148.74C39.607 148.5 39.1137 148.38 38.527 148.38C37.8204 148.38 37.2204 148.593 36.727 149.02C36.247 149.433 35.9137 149.993 35.727 150.7H41.267ZM45.5105 142.68H47.7105V157H45.5105V142.68ZM54.858 157.32C53.858 157.32 52.958 157.087 52.158 156.62C51.3713 156.153 50.7513 155.513 50.298 154.7C49.858 153.873 49.638 152.947 49.638 151.92C49.638 150.947 49.8513 150.047 50.278 149.22C50.718 148.38 51.3246 147.713 52.098 147.22C52.8713 146.727 53.7513 146.48 54.738 146.48C55.7646 146.48 56.6513 146.707 57.398 147.16C58.158 147.613 58.7313 148.233 59.118 149.02C59.518 149.807 59.718 150.693 59.718 151.68C59.718 151.867 59.698 152.1 59.658 152.38H51.838C51.918 153.327 52.2513 154.06 52.838 154.58C53.438 155.087 54.1313 155.34 54.918 155.34C55.5446 155.34 56.0846 155.2 56.538 154.92C57.0046 154.627 57.378 154.233 57.658 153.74L59.518 154.62C59.038 155.46 58.4113 156.12 57.638 156.6C56.8646 157.08 55.938 157.32 54.858 157.32ZM57.478 150.7C57.4513 150.34 57.338 149.987 57.138 149.64C56.938 149.28 56.6313 148.98 56.218 148.74C55.818 148.5 55.3246 148.38 54.738 148.38C54.0313 148.38 53.4313 148.593 52.938 149.02C52.458 149.433 52.1246 149.993 51.938 150.7H57.478ZM66.4191 161.64C65.1657 161.64 64.1257 161.353 63.2991 160.78C62.4857 160.207 61.9391 159.527 61.6591 158.74L63.7191 157.88C63.9324 158.413 64.2724 158.84 64.7391 159.16C65.2191 159.493 65.7791 159.66 66.4191 159.66C67.3524 159.66 68.0791 159.38 68.5991 158.82C69.1324 158.273 69.3991 157.5 69.3991 156.5V155.56H69.2791C68.9457 156.04 68.4991 156.42 67.9391 156.7C67.3924 156.967 66.7591 157.1 66.0391 157.1C65.1857 157.1 64.3924 156.88 63.6591 156.44C62.9257 156 62.3391 155.38 61.8991 154.58C61.4724 153.767 61.2591 152.84 61.2591 151.8C61.2591 150.76 61.4724 149.84 61.8991 149.04C62.3391 148.227 62.9257 147.6 63.6591 147.16C64.3924 146.707 65.1857 146.48 66.0391 146.48C66.7457 146.48 67.3791 146.62 67.9391 146.9C68.4991 147.18 68.9457 147.56 69.2791 148.04H69.3991V146.8H71.4991V156.44C71.4991 157.547 71.2857 158.487 70.8591 159.26C70.4324 160.047 69.8324 160.64 69.0591 161.04C68.2991 161.44 67.4191 161.64 66.4191 161.64ZM66.4391 155.1C66.9724 155.1 67.4657 154.973 67.9191 154.72C68.3724 154.453 68.7324 154.073 68.9991 153.58C69.2657 153.073 69.3991 152.48 69.3991 151.8C69.3991 150.76 69.1124 149.953 68.5391 149.38C67.9791 148.793 67.2791 148.5 66.4391 148.5C65.8924 148.5 65.3924 148.633 64.9391 148.9C64.4857 149.153 64.1257 149.527 63.8591 150.02C63.5924 150.513 63.4591 151.107 63.4591 151.8C63.4591 152.493 63.5924 153.087 63.8591 153.58C64.1257 154.073 64.4857 154.453 64.9391 154.72C65.3924 154.973 65.8924 155.1 66.4391 155.1ZM74.0847 146.8H76.1847V148.3H76.2847C76.5114 147.78 76.9047 147.353 77.4647 147.02C78.0247 146.673 78.618 146.5 79.2447 146.5C79.738 146.5 80.1514 146.567 80.4847 146.7V148.98C79.898 148.767 79.3714 148.66 78.9047 148.66C78.398 148.66 77.9447 148.793 77.5447 149.06C77.158 149.327 76.8514 149.687 76.6247 150.14C76.398 150.58 76.2847 151.067 76.2847 151.6V157H74.0847V146.8ZM85.0191 157.32C84.2857 157.32 83.6324 157.18 83.0591 156.9C82.4857 156.607 82.0391 156.2 81.7191 155.68C81.3991 155.147 81.2391 154.547 81.2391 153.88C81.2391 152.827 81.6324 151.993 82.4191 151.38C83.2191 150.767 84.2257 150.46 85.4391 150.46C86.0391 150.46 86.5791 150.52 87.0591 150.64C87.5391 150.747 87.9191 150.867 88.1991 151V150.48C88.1991 149.853 87.9657 149.347 87.4991 148.96C87.0324 148.56 86.4324 148.36 85.6991 148.36C85.1791 148.36 84.6857 148.473 84.2191 148.7C83.7657 148.927 83.3991 149.24 83.1191 149.64L81.5791 148.46C82.0324 147.833 82.6191 147.347 83.3391 147C84.0591 146.653 84.8591 146.48 85.7391 146.48C87.2191 146.48 88.3591 146.847 89.1591 147.58C89.9591 148.3 90.3591 149.32 90.3591 150.64V157H88.1991V155.78H88.0991C87.8057 156.22 87.3924 156.587 86.8591 156.88C86.3257 157.173 85.7124 157.32 85.0191 157.32ZM85.3991 155.5C85.9324 155.5 86.4124 155.373 86.8391 155.12C87.2657 154.867 87.5991 154.527 87.8391 154.1C88.0791 153.673 88.1991 153.213 88.1991 152.72C87.8924 152.547 87.5324 152.407 87.1191 152.3C86.7191 152.193 86.2991 152.14 85.8591 152.14C85.0324 152.14 84.4257 152.307 84.0391 152.64C83.6524 152.96 83.4591 153.38 83.4591 153.9C83.4591 154.367 83.6391 154.753 83.9991 155.06C84.3591 155.353 84.8257 155.5 85.3991 155.5ZM92.7566 146.8H94.8566V148.14H94.9566C95.2632 147.647 95.6966 147.247 96.2566 146.94C96.8166 146.633 97.4166 146.48 98.0566 146.48C98.7899 146.48 99.4299 146.653 99.9766 147C100.523 147.333 100.917 147.78 101.157 148.34C101.503 147.78 101.963 147.333 102.537 147C103.123 146.653 103.81 146.48 104.597 146.48C105.77 146.48 106.657 146.84 107.257 147.56C107.87 148.267 108.177 149.233 108.177 150.46V157H105.977V150.84C105.977 149.293 105.317 148.52 103.997 148.52C103.29 148.52 102.71 148.807 102.257 149.38C101.803 149.953 101.577 150.66 101.577 151.5V157H99.3766V150.84C99.3766 149.293 98.6966 148.52 97.3366 148.52C96.6432 148.52 96.0699 148.807 95.6166 149.38C95.1766 149.953 94.9566 150.66 94.9566 151.5V157H92.7566V146.8ZM118.823 149.56L114.403 142.68H117.123L120.283 147.78H120.403L123.543 142.68H126.283L121.843 149.56L126.603 157H123.883L120.403 151.46H120.283L116.803 157H114.083L118.823 149.56ZM24.64 167.68H29.22C30.7 167.68 31.9933 167.98 33.1 168.58C34.2067 169.18 35.0533 170.027 35.64 171.12C36.24 172.2 36.54 173.44 36.54 174.84C36.54 176.24 36.24 177.487 35.64 178.58C35.0533 179.66 34.2067 180.5 33.1 181.1C31.9933 181.7 30.7 182 29.22 182H24.64V167.68ZM29.18 179.86C30.78 179.86 32.0267 179.42 32.92 178.54C33.8267 177.647 34.28 176.413 34.28 174.84C34.28 173.28 33.8267 172.053 32.92 171.16C32.0267 170.267 30.78 169.82 29.18 169.82H26.88V179.86H29.18ZM41.9331 182.32C41.1998 182.32 40.5465 182.18 39.9731 181.9C39.3998 181.607 38.9531 181.2 38.6331 180.68C38.3131 180.147 38.1531 179.547 38.1531 178.88C38.1531 177.827 38.5465 176.993 39.3331 176.38C40.1331 175.767 41.1398 175.46 42.3531 175.46C42.9531 175.46 43.4931 175.52 43.9731 175.64C44.4531 175.747 44.8331 175.867 45.1131 176V175.48C45.1131 174.853 44.8798 174.347 44.4131 173.96C43.9465 173.56 43.3465 173.36 42.6131 173.36C42.0931 173.36 41.5998 173.473 41.1331 173.7C40.6798 173.927 40.3131 174.24 40.0331 174.64L38.4931 173.46C38.9465 172.833 39.5331 172.347 40.2531 172C40.9731 171.653 41.7731 171.48 42.6531 171.48C44.1331 171.48 45.2731 171.847 46.0731 172.58C46.8731 173.3 47.2731 174.32 47.2731 175.64V182H45.1131V180.78H45.0131C44.7198 181.22 44.3065 181.587 43.7731 181.88C43.2398 182.173 42.6265 182.32 41.9331 182.32ZM42.3131 180.5C42.8465 180.5 43.3265 180.373 43.7531 180.12C44.1798 179.867 44.5131 179.527 44.7531 179.1C44.9931 178.673 45.1131 178.213 45.1131 177.72C44.8065 177.547 44.4465 177.407 44.0331 177.3C43.6331 177.193 43.2131 177.14 42.7731 177.14C41.9465 177.14 41.3398 177.307 40.9531 177.64C40.5665 177.96 40.3731 178.38 40.3731 178.9C40.3731 179.367 40.5531 179.753 40.9131 180.06C41.2731 180.353 41.7398 180.5 42.3131 180.5ZM49.6706 171.8H51.7706V173.3H51.8706C52.0973 172.78 52.4906 172.353 53.0506 172.02C53.6106 171.673 54.204 171.5 54.8306 171.5C55.324 171.5 55.7373 171.567 56.0706 171.7V173.98C55.484 173.767 54.9573 173.66 54.4906 173.66C53.984 173.66 53.5306 173.793 53.1306 174.06C52.744 174.327 52.4373 174.687 52.2106 175.14C51.984 175.58 51.8706 176.067 51.8706 176.6V182H49.6706V171.8ZM57.8542 167.68H60.0542V176.02H60.1142L64.2942 171.8H67.0542V171.92L63.0942 175.86L67.1742 181.88V182H64.5542L61.5542 177.38L60.0542 178.84V182H57.8542V167.68Z" fill="white"/>
    <path d="M83.0931 95.1891C81.4224 95.1891 81.7063 94.5583 81.13 92.9674L76.2168 76.7974L114.037 54.3608" fill="#CED9E3"/>
    <path d="M83.0938 95.189C84.3831 95.189 84.9527 94.5994 85.6724 93.8997L92.5487 87.2133L83.9713 82.041" fill="#9BB2C6"/>
    <path d="M83.9704 82.0423L104.754 97.3976C107.126 98.7062 108.838 98.0286 109.428 95.1956L117.888 55.3288C118.755 51.8561 116.565 50.2811 114.296 51.3112L64.6185 70.4665C61.2276 71.8266 61.2474 73.7184 64.0004 74.5614L76.7487 78.5403L106.262 59.9205C107.656 59.0756 108.934 59.5298 107.885 60.4613" fill="white"/>
</svg>