<svg width="180" height="205" viewBox="0 0 180 205" fill="none" xmlns="http://www.w3.org/2000/svg">
    <rect width="180" height="205" rx="12" fill="white"/>
    <path d="M26.54 144.82H22.54V142.68H32.78V144.82H28.78V157H26.54V144.82ZM37.647 157.32C36.647 157.32 35.747 157.087 34.947 156.62C34.1604 156.153 33.5404 155.513 33.087 154.7C32.647 153.873 32.427 152.947 32.427 151.92C32.427 150.947 32.6404 150.047 33.067 149.22C33.507 148.38 34.1137 147.713 34.887 147.22C35.6604 146.727 36.5404 146.48 37.527 146.48C38.5537 146.48 39.4404 146.707 40.187 147.16C40.947 147.613 41.5204 148.233 41.907 149.02C42.307 149.807 42.507 150.693 42.507 151.68C42.507 151.867 42.487 152.1 42.447 152.38H34.627C34.707 153.327 35.0404 154.06 35.627 154.58C36.227 155.087 36.9204 155.34 37.707 155.34C38.3337 155.34 38.8737 155.2 39.327 154.92C39.7937 154.627 40.167 154.233 40.447 153.74L42.307 154.62C41.827 155.46 41.2004 156.12 40.427 156.6C39.6537 157.08 38.727 157.32 37.647 157.32ZM40.267 150.7C40.2404 150.34 40.127 149.987 39.927 149.64C39.727 149.28 39.4204 148.98 39.007 148.74C38.607 148.5 38.1137 148.38 37.527 148.38C36.8204 148.38 36.2204 148.593 35.727 149.02C35.247 149.433 34.9137 149.993 34.727 150.7H40.267ZM44.5105 142.68H46.7105V157H44.5105V142.68ZM53.858 157.32C52.858 157.32 51.958 157.087 51.158 156.62C50.3713 156.153 49.7513 155.513 49.298 154.7C48.858 153.873 48.638 152.947 48.638 151.92C48.638 150.947 48.8513 150.047 49.278 149.22C49.718 148.38 50.3246 147.713 51.098 147.22C51.8713 146.727 52.7513 146.48 53.738 146.48C54.7646 146.48 55.6513 146.707 56.398 147.16C57.158 147.613 57.7313 148.233 58.118 149.02C58.518 149.807 58.718 150.693 58.718 151.68C58.718 151.867 58.698 152.1 58.658 152.38H50.838C50.918 153.327 51.2513 154.06 51.838 154.58C52.438 155.087 53.1313 155.34 53.918 155.34C54.5446 155.34 55.0846 155.2 55.538 154.92C56.0046 154.627 56.378 154.233 56.658 153.74L58.518 154.62C58.038 155.46 57.4113 156.12 56.638 156.6C55.8646 157.08 54.938 157.32 53.858 157.32ZM56.478 150.7C56.4513 150.34 56.338 149.987 56.138 149.64C55.938 149.28 55.6313 148.98 55.218 148.74C54.818 148.5 54.3246 148.38 53.738 148.38C53.0313 148.38 52.4313 148.593 51.938 149.02C51.458 149.433 51.1246 149.993 50.938 150.7H56.478ZM65.4191 161.64C64.1657 161.64 63.1257 161.353 62.2991 160.78C61.4857 160.207 60.9391 159.527 60.6591 158.74L62.7191 157.88C62.9324 158.413 63.2724 158.84 63.7391 159.16C64.2191 159.493 64.7791 159.66 65.4191 159.66C66.3524 159.66 67.0791 159.38 67.5991 158.82C68.1324 158.273 68.3991 157.5 68.3991 156.5V155.56H68.2791C67.9457 156.04 67.4991 156.42 66.9391 156.7C66.3924 156.967 65.7591 157.1 65.0391 157.1C64.1857 157.1 63.3924 156.88 62.6591 156.44C61.9257 156 61.3391 155.38 60.8991 154.58C60.4724 153.767 60.2591 152.84 60.2591 151.8C60.2591 150.76 60.4724 149.84 60.8991 149.04C61.3391 148.227 61.9257 147.6 62.6591 147.16C63.3924 146.707 64.1857 146.48 65.0391 146.48C65.7457 146.48 66.3791 146.62 66.9391 146.9C67.4991 147.18 67.9457 147.56 68.2791 148.04H68.3991V146.8H70.4991V156.44C70.4991 157.547 70.2857 158.487 69.8591 159.26C69.4324 160.047 68.8324 160.64 68.0591 161.04C67.2991 161.44 66.4191 161.64 65.4191 161.64ZM65.4391 155.1C65.9724 155.1 66.4657 154.973 66.9191 154.72C67.3724 154.453 67.7324 154.073 67.9991 153.58C68.2657 153.073 68.3991 152.48 68.3991 151.8C68.3991 150.76 68.1124 149.953 67.5391 149.38C66.9791 148.793 66.2791 148.5 65.4391 148.5C64.8924 148.5 64.3924 148.633 63.9391 148.9C63.4857 149.153 63.1257 149.527 62.8591 150.02C62.5924 150.513 62.4591 151.107 62.4591 151.8C62.4591 152.493 62.5924 153.087 62.8591 153.58C63.1257 154.073 63.4857 154.453 63.9391 154.72C64.3924 154.973 64.8924 155.1 65.4391 155.1ZM73.0847 146.8H75.1847V148.3H75.2847C75.5114 147.78 75.9047 147.353 76.4647 147.02C77.0247 146.673 77.618 146.5 78.2447 146.5C78.738 146.5 79.1514 146.567 79.4847 146.7V148.98C78.898 148.767 78.3714 148.66 77.9047 148.66C77.398 148.66 76.9447 148.793 76.5447 149.06C76.158 149.327 75.8514 149.687 75.6247 150.14C75.398 150.58 75.2847 151.067 75.2847 151.6V157H73.0847V146.8ZM84.0191 157.32C83.2857 157.32 82.6324 157.18 82.0591 156.9C81.4857 156.607 81.0391 156.2 80.7191 155.68C80.3991 155.147 80.2391 154.547 80.2391 153.88C80.2391 152.827 80.6324 151.993 81.4191 151.38C82.2191 150.767 83.2257 150.46 84.4391 150.46C85.0391 150.46 85.5791 150.52 86.0591 150.64C86.5391 150.747 86.9191 150.867 87.1991 151V150.48C87.1991 149.853 86.9657 149.347 86.4991 148.96C86.0324 148.56 85.4324 148.36 84.6991 148.36C84.1791 148.36 83.6857 148.473 83.2191 148.7C82.7657 148.927 82.3991 149.24 82.1191 149.64L80.5791 148.46C81.0324 147.833 81.6191 147.347 82.3391 147C83.0591 146.653 83.8591 146.48 84.7391 146.48C86.2191 146.48 87.3591 146.847 88.1591 147.58C88.9591 148.3 89.3591 149.32 89.3591 150.64V157H87.1991V155.78H87.0991C86.8057 156.22 86.3924 156.587 85.8591 156.88C85.3257 157.173 84.7124 157.32 84.0191 157.32ZM84.3991 155.5C84.9324 155.5 85.4124 155.373 85.8391 155.12C86.2657 154.867 86.5991 154.527 86.8391 154.1C87.0791 153.673 87.1991 153.213 87.1991 152.72C86.8924 152.547 86.5324 152.407 86.1191 152.3C85.7191 152.193 85.2991 152.14 84.8591 152.14C84.0324 152.14 83.4257 152.307 83.0391 152.64C82.6524 152.96 82.4591 153.38 82.4591 153.9C82.4591 154.367 82.6391 154.753 82.9991 155.06C83.3591 155.353 83.8257 155.5 84.3991 155.5ZM91.7566 146.8H93.8566V148.14H93.9566C94.2632 147.647 94.6966 147.247 95.2566 146.94C95.8166 146.633 96.4166 146.48 97.0566 146.48C97.7899 146.48 98.4299 146.653 98.9766 147C99.5232 147.333 99.9166 147.78 100.157 148.34C100.503 147.78 100.963 147.333 101.537 147C102.123 146.653 102.81 146.48 103.597 146.48C104.77 146.48 105.657 146.84 106.257 147.56C106.87 148.267 107.177 149.233 107.177 150.46V157H104.977V150.84C104.977 149.293 104.317 148.52 102.997 148.52C102.29 148.52 101.71 148.807 101.257 149.38C100.803 149.953 100.577 150.66 100.577 151.5V157H98.3766V150.84C98.3766 149.293 97.6966 148.52 96.3366 148.52C95.6432 148.52 95.0699 148.807 94.6166 149.38C94.1766 149.953 93.9566 150.66 93.9566 151.5V157H91.7566V146.8ZM117.823 149.56L113.403 142.68H116.123L119.283 147.78H119.403L122.543 142.68H125.283L120.843 149.56L125.603 157H122.883L119.403 151.46H119.283L115.803 157H113.083L117.823 149.56ZM23.64 167.68H25.88V179.86H32.02V182H23.64V167.68ZM35.1845 170.32C34.7712 170.32 34.4179 170.18 34.1245 169.9C33.8445 169.607 33.7045 169.253 33.7045 168.84C33.7045 168.427 33.8445 168.08 34.1245 167.8C34.4179 167.507 34.7712 167.36 35.1845 167.36C35.5979 167.36 35.9445 167.507 36.2245 167.8C36.5179 168.08 36.6645 168.427 36.6645 168.84C36.6645 169.253 36.5179 169.607 36.2245 169.9C35.9445 170.18 35.5979 170.32 35.1845 170.32ZM34.0845 171.8H36.2845V182H34.0845V171.8ZM43.5245 186.64C42.2712 186.64 41.2312 186.353 40.4045 185.78C39.5912 185.207 39.0445 184.527 38.7645 183.74L40.8245 182.88C41.0379 183.413 41.3779 183.84 41.8445 184.16C42.3245 184.493 42.8845 184.66 43.5245 184.66C44.4579 184.66 45.1845 184.38 45.7045 183.82C46.2379 183.273 46.5045 182.5 46.5045 181.5V180.56H46.3845C46.0512 181.04 45.6045 181.42 45.0445 181.7C44.4979 181.967 43.8645 182.1 43.1445 182.1C42.2912 182.1 41.4979 181.88 40.7645 181.44C40.0312 181 39.4445 180.38 39.0045 179.58C38.5779 178.767 38.3645 177.84 38.3645 176.8C38.3645 175.76 38.5779 174.84 39.0045 174.04C39.4445 173.227 40.0312 172.6 40.7645 172.16C41.4979 171.707 42.2912 171.48 43.1445 171.48C43.8512 171.48 44.4845 171.62 45.0445 171.9C45.6045 172.18 46.0512 172.56 46.3845 173.04H46.5045V171.8H48.6045V181.44C48.6045 182.547 48.3912 183.487 47.9645 184.26C47.5379 185.047 46.9379 185.64 46.1645 186.04C45.4045 186.44 44.5245 186.64 43.5245 186.64ZM43.5445 180.1C44.0779 180.1 44.5712 179.973 45.0245 179.72C45.4779 179.453 45.8379 179.073 46.1045 178.58C46.3712 178.073 46.5045 177.48 46.5045 176.8C46.5045 175.76 46.2179 174.953 45.6445 174.38C45.0845 173.793 44.3845 173.5 43.5445 173.5C42.9979 173.5 42.4979 173.633 42.0445 173.9C41.5912 174.153 41.2312 174.527 40.9645 175.02C40.6979 175.513 40.5645 176.107 40.5645 176.8C40.5645 177.493 40.6979 178.087 40.9645 178.58C41.2312 179.073 41.5912 179.453 42.0445 179.72C42.4979 179.973 42.9979 180.1 43.5445 180.1ZM51.1902 167.68H53.3902V171.58L53.2902 173.14H53.3902C53.6835 172.66 54.1168 172.267 54.6902 171.96C55.2768 171.64 55.9035 171.48 56.5702 171.48C57.8102 171.48 58.7568 171.847 59.4102 172.58C60.0635 173.3 60.3902 174.287 60.3902 175.54V182H58.1902V175.84C58.1902 175.067 57.9835 174.487 57.5702 174.1C57.1702 173.713 56.6435 173.52 55.9902 173.52C55.4968 173.52 55.0502 173.66 54.6502 173.94C54.2635 174.22 53.9568 174.593 53.7302 175.06C53.5035 175.513 53.3902 176 53.3902 176.52V182H51.1902V167.68ZM66.5616 182.16C66.1082 182.16 65.6816 182.087 65.2816 181.94C64.8816 181.793 64.5549 181.6 64.3016 181.36C63.7282 180.787 63.4416 180.007 63.4416 179.02V173.74H61.6616V171.8H63.4416V168.92H65.6416V171.8H68.1216V173.74H65.6416V178.54C65.6416 179.087 65.7482 179.473 65.9616 179.7C66.1616 179.967 66.5082 180.1 67.0016 180.1C67.2282 180.1 67.4282 180.073 67.6016 180.02C67.7749 179.953 67.9616 179.853 68.1616 179.72V181.86C67.7216 182.06 67.1882 182.16 66.5616 182.16Z" fill="#05050A"/>
    <path d="M83.0931 95.1891C81.4224 95.1891 81.7063 94.5583 81.13 92.9674L76.2168 76.7974L114.037 54.3608" fill="#C5D1DD"/>
    <path d="M83.0938 95.189C84.3831 95.189 84.9527 94.5994 85.6724 93.8997L92.5487 87.2133L83.9713 82.041" fill="#97AEC3"/>
    <path d="M83.9704 82.0423L104.754 97.3976C107.126 98.7062 108.838 98.0286 109.428 95.1956L117.888 55.3288C118.755 51.8561 116.565 50.2811 114.296 51.3112L64.6185 70.4665C61.2276 71.8266 61.2474 73.7184 64.0004 74.5614L76.7487 78.5403L106.262 59.9205C107.656 59.0756 108.934 59.5298 107.885 60.4613" fill="#F1F3F6"/>
</svg>