<svg width="180" height="205" viewBox="0 0 180 205" fill="none" xmlns="http://www.w3.org/2000/svg">
    <rect width="180" height="205" rx="12" fill="#55AAFF"/>
    <path d="M27.54 144.82H23.54V142.68H33.78V144.82H29.78V157H27.54V144.82ZM38.647 157.32C37.647 157.32 36.747 157.087 35.947 156.62C35.1604 156.153 34.5404 155.513 34.087 154.7C33.647 153.873 33.427 152.947 33.427 151.92C33.427 150.947 33.6404 150.047 34.067 149.22C34.507 148.38 35.1137 147.713 35.887 147.22C36.6604 146.727 37.5404 146.48 38.527 146.48C39.5537 146.48 40.4404 146.707 41.187 147.16C41.947 147.613 42.5204 148.233 42.907 149.02C43.307 149.807 43.507 150.693 43.507 151.68C43.507 151.867 43.487 152.1 43.447 152.38H35.627C35.707 153.327 36.0404 154.06 36.627 154.58C37.227 155.087 37.9204 155.34 38.707 155.34C39.3337 155.34 39.8737 155.2 40.327 154.92C40.7937 154.627 41.167 154.233 41.447 153.74L43.307 154.62C42.827 155.46 42.2004 156.12 41.427 156.6C40.6537 157.08 39.727 157.32 38.647 157.32ZM41.267 150.7C41.2404 150.34 41.127 149.987 40.927 149.64C40.727 149.28 40.4204 148.98 40.007 148.74C39.607 148.5 39.1137 148.38 38.527 148.38C37.8204 148.38 37.2204 148.593 36.727 149.02C36.247 149.433 35.9137 149.993 35.727 150.7H41.267ZM45.5105 142.68H47.7105V157H45.5105V142.68ZM54.858 157.32C53.858 157.32 52.958 157.087 52.158 156.62C51.3713 156.153 50.7513 155.513 50.298 154.7C49.858 153.873 49.638 152.947 49.638 151.92C49.638 150.947 49.8513 150.047 50.278 149.22C50.718 148.38 51.3246 147.713 52.098 147.22C52.8713 146.727 53.7513 146.48 54.738 146.48C55.7646 146.48 56.6513 146.707 57.398 147.16C58.158 147.613 58.7313 148.233 59.118 149.02C59.518 149.807 59.718 150.693 59.718 151.68C59.718 151.867 59.698 152.1 59.658 152.38H51.838C51.918 153.327 52.2513 154.06 52.838 154.58C53.438 155.087 54.1313 155.34 54.918 155.34C55.5446 155.34 56.0846 155.2 56.538 154.92C57.0046 154.627 57.378 154.233 57.658 153.74L59.518 154.62C59.038 155.46 58.4113 156.12 57.638 156.6C56.8646 157.08 55.938 157.32 54.858 157.32ZM57.478 150.7C57.4513 150.34 57.338 149.987 57.138 149.64C56.938 149.28 56.6313 148.98 56.218 148.74C55.818 148.5 55.3246 148.38 54.738 148.38C54.0313 148.38 53.4313 148.593 52.938 149.02C52.458 149.433 52.1246 149.993 51.938 150.7H57.478ZM66.4191 161.64C65.1657 161.64 64.1257 161.353 63.2991 160.78C62.4857 160.207 61.9391 159.527 61.6591 158.74L63.7191 157.88C63.9324 158.413 64.2724 158.84 64.7391 159.16C65.2191 159.493 65.7791 159.66 66.4191 159.66C67.3524 159.66 68.0791 159.38 68.5991 158.82C69.1324 158.273 69.3991 157.5 69.3991 156.5V155.56H69.2791C68.9457 156.04 68.4991 156.42 67.9391 156.7C67.3924 156.967 66.7591 157.1 66.0391 157.1C65.1857 157.1 64.3924 156.88 63.6591 156.44C62.9257 156 62.3391 155.38 61.8991 154.58C61.4724 153.767 61.2591 152.84 61.2591 151.8C61.2591 150.76 61.4724 149.84 61.8991 149.04C62.3391 148.227 62.9257 147.6 63.6591 147.16C64.3924 146.707 65.1857 146.48 66.0391 146.48C66.7457 146.48 67.3791 146.62 67.9391 146.9C68.4991 147.18 68.9457 147.56 69.2791 148.04H69.3991V146.8H71.4991V156.44C71.4991 157.547 71.2857 158.487 70.8591 159.26C70.4324 160.047 69.8324 160.64 69.0591 161.04C68.2991 161.44 67.4191 161.64 66.4191 161.64ZM66.4391 155.1C66.9724 155.1 67.4657 154.973 67.9191 154.72C68.3724 154.453 68.7324 154.073 68.9991 153.58C69.2657 153.073 69.3991 152.48 69.3991 151.8C69.3991 150.76 69.1124 149.953 68.5391 149.38C67.9791 148.793 67.2791 148.5 66.4391 148.5C65.8924 148.5 65.3924 148.633 64.9391 148.9C64.4857 149.153 64.1257 149.527 63.8591 150.02C63.5924 150.513 63.4591 151.107 63.4591 151.8C63.4591 152.493 63.5924 153.087 63.8591 153.58C64.1257 154.073 64.4857 154.453 64.9391 154.72C65.3924 154.973 65.8924 155.1 66.4391 155.1ZM74.0847 146.8H76.1847V148.3H76.2847C76.5114 147.78 76.9047 147.353 77.4647 147.02C78.0247 146.673 78.618 146.5 79.2447 146.5C79.738 146.5 80.1514 146.567 80.4847 146.7V148.98C79.898 148.767 79.3714 148.66 78.9047 148.66C78.398 148.66 77.9447 148.793 77.5447 149.06C77.158 149.327 76.8514 149.687 76.6247 150.14C76.398 150.58 76.2847 151.067 76.2847 151.6V157H74.0847V146.8ZM85.0191 157.32C84.2857 157.32 83.6324 157.18 83.0591 156.9C82.4857 156.607 82.0391 156.2 81.7191 155.68C81.3991 155.147 81.2391 154.547 81.2391 153.88C81.2391 152.827 81.6324 151.993 82.4191 151.38C83.2191 150.767 84.2257 150.46 85.4391 150.46C86.0391 150.46 86.5791 150.52 87.0591 150.64C87.5391 150.747 87.9191 150.867 88.1991 151V150.48C88.1991 149.853 87.9657 149.347 87.4991 148.96C87.0324 148.56 86.4324 148.36 85.6991 148.36C85.1791 148.36 84.6857 148.473 84.2191 148.7C83.7657 148.927 83.3991 149.24 83.1191 149.64L81.5791 148.46C82.0324 147.833 82.6191 147.347 83.3391 147C84.0591 146.653 84.8591 146.48 85.7391 146.48C87.2191 146.48 88.3591 146.847 89.1591 147.58C89.9591 148.3 90.3591 149.32 90.3591 150.64V157H88.1991V155.78H88.0991C87.8057 156.22 87.3924 156.587 86.8591 156.88C86.3257 157.173 85.7124 157.32 85.0191 157.32ZM85.3991 155.5C85.9324 155.5 86.4124 155.373 86.8391 155.12C87.2657 154.867 87.5991 154.527 87.8391 154.1C88.0791 153.673 88.1991 153.213 88.1991 152.72C87.8924 152.547 87.5324 152.407 87.1191 152.3C86.7191 152.193 86.2991 152.14 85.8591 152.14C85.0324 152.14 84.4257 152.307 84.0391 152.64C83.6524 152.96 83.4591 153.38 83.4591 153.9C83.4591 154.367 83.6391 154.753 83.9991 155.06C84.3591 155.353 84.8257 155.5 85.3991 155.5ZM92.7566 146.8H94.8566V148.14H94.9566C95.2632 147.647 95.6966 147.247 96.2566 146.94C96.8166 146.633 97.4166 146.48 98.0566 146.48C98.7899 146.48 99.4299 146.653 99.9766 147C100.523 147.333 100.917 147.78 101.157 148.34C101.503 147.78 101.963 147.333 102.537 147C103.123 146.653 103.81 146.48 104.597 146.48C105.77 146.48 106.657 146.84 107.257 147.56C107.87 148.267 108.177 149.233 108.177 150.46V157H105.977V150.84C105.977 149.293 105.317 148.52 103.997 148.52C103.29 148.52 102.71 148.807 102.257 149.38C101.803 149.953 101.577 150.66 101.577 151.5V157H99.3766V150.84C99.3766 149.293 98.6966 148.52 97.3366 148.52C96.6432 148.52 96.0699 148.807 95.6166 149.38C95.1766 149.953 94.9566 150.66 94.9566 151.5V157H92.7566V146.8ZM118.823 149.56L114.403 142.68H117.123L120.283 147.78H120.403L123.543 142.68H126.283L121.843 149.56L126.603 157H123.883L120.403 151.46H120.283L116.803 157H114.083L118.823 149.56ZM24.64 167.68H29.6C30.44 167.68 31.2133 167.867 31.92 168.24C32.64 168.613 33.2067 169.133 33.62 169.8C34.0467 170.467 34.26 171.22 34.26 172.06C34.26 172.9 34.0467 173.653 33.62 174.32C33.2067 174.987 32.64 175.507 31.92 175.88C31.2133 176.253 30.44 176.44 29.6 176.44H26.88V182H24.64V167.68ZM29.64 174.32C30.1333 174.32 30.56 174.213 30.92 174C31.28 173.773 31.5533 173.487 31.74 173.14C31.9267 172.793 32.02 172.433 32.02 172.06C32.02 171.687 31.9267 171.327 31.74 170.98C31.5533 170.633 31.28 170.353 30.92 170.14C30.56 169.927 30.1333 169.82 29.64 169.82H26.88V174.32H29.64ZM38.9839 182.32C38.2506 182.32 37.5972 182.18 37.0239 181.9C36.4506 181.607 36.0039 181.2 35.6839 180.68C35.3639 180.147 35.2039 179.547 35.2039 178.88C35.2039 177.827 35.5972 176.993 36.3839 176.38C37.1839 175.767 38.1906 175.46 39.4039 175.46C40.0039 175.46 40.5439 175.52 41.0239 175.64C41.5039 175.747 41.8839 175.867 42.1639 176V175.48C42.1639 174.853 41.9306 174.347 41.4639 173.96C40.9972 173.56 40.3972 173.36 39.6639 173.36C39.1439 173.36 38.6506 173.473 38.1839 173.7C37.7306 173.927 37.3639 174.24 37.0839 174.64L35.5439 173.46C35.9972 172.833 36.5839 172.347 37.3039 172C38.0239 171.653 38.8239 171.48 39.7039 171.48C41.1839 171.48 42.3239 171.847 43.1239 172.58C43.9239 173.3 44.3239 174.32 44.3239 175.64V182H42.1639V180.78H42.0639C41.7706 181.22 41.3572 181.587 40.8239 181.88C40.2906 182.173 39.6772 182.32 38.9839 182.32ZM39.3639 180.5C39.8972 180.5 40.3772 180.373 40.8039 180.12C41.2306 179.867 41.5639 179.527 41.8039 179.1C42.0439 178.673 42.1639 178.213 42.1639 177.72C41.8572 177.547 41.4972 177.407 41.0839 177.3C40.6839 177.193 40.2639 177.14 39.8239 177.14C38.9972 177.14 38.3906 177.307 38.0039 177.64C37.6172 177.96 37.4239 178.38 37.4239 178.9C37.4239 179.367 37.6039 179.753 37.9639 180.06C38.3239 180.353 38.7906 180.5 39.3639 180.5ZM46.6414 171.8H48.7414V173.14H48.8414C49.1347 172.673 49.5681 172.28 50.1414 171.96C50.7147 171.64 51.3614 171.48 52.0814 171.48C53.0014 171.48 53.8347 171.713 54.5814 172.18C55.3281 172.647 55.9147 173.293 56.3414 174.12C56.7814 174.933 57.0014 175.86 57.0014 176.9C57.0014 177.94 56.7814 178.873 56.3414 179.7C55.9147 180.513 55.3281 181.153 54.5814 181.62C53.8347 182.087 53.0014 182.32 52.0814 182.32C51.3614 182.32 50.7147 182.16 50.1414 181.84C49.5681 181.52 49.1347 181.133 48.8414 180.68H48.7414L48.8414 182.1V186.32H46.6414V171.8ZM51.7614 180.3C52.2947 180.3 52.7947 180.16 53.2614 179.88C53.7281 179.6 54.1014 179.2 54.3814 178.68C54.6614 178.16 54.8014 177.567 54.8014 176.9C54.8014 176.233 54.6614 175.647 54.3814 175.14C54.1014 174.62 53.7281 174.22 53.2614 173.94C52.7947 173.66 52.2947 173.52 51.7614 173.52C51.2281 173.52 50.7281 173.66 50.2614 173.94C49.8081 174.22 49.4414 174.62 49.1614 175.14C48.8814 175.647 48.7414 176.233 48.7414 176.9C48.7414 177.567 48.8814 178.16 49.1614 178.68C49.4414 179.2 49.8081 179.6 50.2614 179.88C50.7281 180.16 51.2281 180.3 51.7614 180.3ZM63.6666 182.32C62.6666 182.32 61.7666 182.087 60.9666 181.62C60.1799 181.153 59.5599 180.513 59.1066 179.7C58.6666 178.873 58.4466 177.947 58.4466 176.92C58.4466 175.947 58.6599 175.047 59.0866 174.22C59.5266 173.38 60.1332 172.713 60.9066 172.22C61.6799 171.727 62.5599 171.48 63.5466 171.48C64.5732 171.48 65.4599 171.707 66.2066 172.16C66.9666 172.613 67.5399 173.233 67.9266 174.02C68.3266 174.807 68.5266 175.693 68.5266 176.68C68.5266 176.867 68.5066 177.1 68.4666 177.38H60.6466C60.7266 178.327 61.0599 179.06 61.6466 179.58C62.2466 180.087 62.9399 180.34 63.7266 180.34C64.3532 180.34 64.8932 180.2 65.3466 179.92C65.8132 179.627 66.1866 179.233 66.4666 178.74L68.3266 179.62C67.8466 180.46 67.2199 181.12 66.4466 181.6C65.6732 182.08 64.7466 182.32 63.6666 182.32ZM66.2866 175.7C66.2599 175.34 66.1466 174.987 65.9466 174.64C65.7466 174.28 65.4399 173.98 65.0266 173.74C64.6266 173.5 64.1332 173.38 63.5466 173.38C62.8399 173.38 62.2399 173.593 61.7466 174.02C61.2666 174.433 60.9332 174.993 60.7466 175.7H66.2866ZM70.53 171.8H72.63V173.3H72.73C72.9567 172.78 73.35 172.353 73.91 172.02C74.47 171.673 75.0633 171.5 75.69 171.5C76.1833 171.5 76.5967 171.567 76.93 171.7V173.98C76.3433 173.767 75.8167 173.66 75.35 173.66C74.8433 173.66 74.39 173.793 73.99 174.06C73.6033 174.327 73.2967 174.687 73.07 175.14C72.8433 175.58 72.73 176.067 72.73 176.6V182H70.53V171.8ZM78.9759 167.68H83.9359C84.7759 167.68 85.5493 167.867 86.2559 168.24C86.9759 168.613 87.5426 169.133 87.9559 169.8C88.3826 170.467 88.5959 171.22 88.5959 172.06C88.5959 172.9 88.3826 173.653 87.9559 174.32C87.5426 174.987 86.9759 175.507 86.2559 175.88C85.5493 176.253 84.7759 176.44 83.9359 176.44H81.2159V182H78.9759V167.68ZM83.9759 174.32C84.4693 174.32 84.8959 174.213 85.2559 174C85.6159 173.773 85.8893 173.487 86.0759 173.14C86.2626 172.793 86.3559 172.433 86.3559 172.06C86.3559 171.687 86.2626 171.327 86.0759 170.98C85.8893 170.633 85.6159 170.353 85.2559 170.14C84.8959 169.927 84.4693 169.82 83.9759 169.82H81.2159V174.32H83.9759ZM90.6081 167.68H92.8081V182H90.6081V167.68ZM98.4956 182.32C97.7623 182.32 97.109 182.18 96.5356 181.9C95.9623 181.607 95.5156 181.2 95.1956 180.68C94.8756 180.147 94.7156 179.547 94.7156 178.88C94.7156 177.827 95.109 176.993 95.8956 176.38C96.6956 175.767 97.7023 175.46 98.9156 175.46C99.5156 175.46 100.056 175.52 100.536 175.64C101.016 175.747 101.396 175.867 101.676 176V175.48C101.676 174.853 101.442 174.347 100.976 173.96C100.509 173.56 99.909 173.36 99.1756 173.36C98.6556 173.36 98.1623 173.473 97.6956 173.7C97.2423 173.927 96.8756 174.24 96.5956 174.64L95.0556 173.46C95.509 172.833 96.0956 172.347 96.8156 172C97.5356 171.653 98.3356 171.48 99.2156 171.48C100.696 171.48 101.836 171.847 102.636 172.58C103.436 173.3 103.836 174.32 103.836 175.64V182H101.676V180.78H101.576C101.282 181.22 100.869 181.587 100.336 181.88C99.8023 182.173 99.189 182.32 98.4956 182.32ZM98.8756 180.5C99.409 180.5 99.889 180.373 100.316 180.12C100.742 179.867 101.076 179.527 101.316 179.1C101.556 178.673 101.676 178.213 101.676 177.72C101.369 177.547 101.009 177.407 100.596 177.3C100.196 177.193 99.7756 177.14 99.3356 177.14C98.509 177.14 97.9023 177.307 97.5156 177.64C97.129 177.96 96.9356 178.38 96.9356 178.9C96.9356 179.367 97.1156 179.753 97.4756 180.06C97.8356 180.353 98.3023 180.5 98.8756 180.5ZM106.233 171.8H108.333V173.14H108.433C108.726 172.66 109.16 172.267 109.733 171.96C110.32 171.64 110.94 171.48 111.593 171.48C112.833 171.48 113.773 171.847 114.413 172.58C115.066 173.3 115.393 174.287 115.393 175.54V182H113.193V175.84C113.193 175.04 112.993 174.453 112.593 174.08C112.206 173.707 111.666 173.52 110.973 173.52C110.48 173.52 110.04 173.66 109.653 173.94C109.266 174.207 108.966 174.567 108.753 175.02C108.54 175.473 108.433 175.96 108.433 176.48V182H106.233V171.8ZM122.534 182.32C121.534 182.32 120.634 182.087 119.834 181.62C119.047 181.153 118.427 180.513 117.974 179.7C117.534 178.873 117.314 177.947 117.314 176.92C117.314 175.947 117.527 175.047 117.954 174.22C118.394 173.38 119 172.713 119.774 172.22C120.547 171.727 121.427 171.48 122.414 171.48C123.44 171.48 124.327 171.707 125.074 172.16C125.834 172.613 126.407 173.233 126.794 174.02C127.194 174.807 127.394 175.693 127.394 176.68C127.394 176.867 127.374 177.1 127.334 177.38H119.514C119.594 178.327 119.927 179.06 120.514 179.58C121.114 180.087 121.807 180.34 122.594 180.34C123.22 180.34 123.76 180.2 124.214 179.92C124.68 179.627 125.054 179.233 125.334 178.74L127.194 179.62C126.714 180.46 126.087 181.12 125.314 181.6C124.54 182.08 123.614 182.32 122.534 182.32ZM125.154 175.7C125.127 175.34 125.014 174.987 124.814 174.64C124.614 174.28 124.307 173.98 123.894 173.74C123.494 173.5 123 173.38 122.414 173.38C121.707 173.38 121.107 173.593 120.614 174.02C120.134 174.433 119.8 174.993 119.614 175.7H125.154Z" fill="white"/>
    <path d="M83.0931 95.1891C81.4224 95.1891 81.7063 94.5583 81.13 92.9674L76.2168 76.7974L114.037 54.3608" fill="#C1DEFC"/>
    <path d="M83.0938 95.189C84.3831 95.189 84.9527 94.5994 85.6724 93.8997L92.5487 87.2133L83.9713 82.041" fill="#A5D0FD"/>
    <path d="M83.9704 82.0423L104.754 97.3976C107.126 98.7062 108.838 98.0286 109.428 95.1956L117.888 55.3288C118.755 51.8561 116.565 50.2811 114.296 51.3112L64.6185 70.4665C61.2276 71.8266 61.2474 73.7184 64.0004 74.5614L76.7487 78.5403L106.262 59.9205C107.656 59.0756 108.934 59.5298 107.885 60.4613" fill="white"/>
</svg>
