<svg width="180" height="205" viewBox="0 0 180 205" fill="none" xmlns="http://www.w3.org/2000/svg">
    <rect width="180" height="205" rx="12" fill="#05050A"/>
    <path d="M31.42 157.32C30.06 157.32 28.8067 156.993 27.66 156.34C26.5133 155.687 25.6 154.793 24.92 153.66C24.2533 152.513 23.92 151.24 23.92 149.84C23.92 148.44 24.2533 147.173 24.92 146.04C25.6 144.893 26.5133 143.993 27.66 143.34C28.8067 142.687 30.06 142.36 31.42 142.36C32.5 142.36 33.5067 142.553 34.44 142.94C35.3733 143.327 36.1533 143.867 36.78 144.56L35.22 146.12C34.7533 145.6 34.1933 145.2 33.54 144.92C32.9 144.64 32.1867 144.5 31.4 144.5C30.48 144.5 29.62 144.72 28.82 145.16C28.02 145.6 27.38 146.227 26.9 147.04C26.42 147.853 26.18 148.787 26.18 149.84C26.18 150.893 26.42 151.827 26.9 152.64C27.38 153.453 28.02 154.08 28.82 154.52C29.62 154.96 30.4867 155.18 31.42 155.18C32.2733 155.18 32.9867 155.053 33.56 154.8C34.1333 154.547 34.6467 154.207 35.1 153.78C35.3933 153.487 35.64 153.12 35.84 152.68C36.0533 152.24 36.1933 151.76 36.26 151.24H31.4V149.24H38.38C38.4467 149.613 38.48 150 38.48 150.4C38.48 151.307 38.34 152.18 38.06 153.02C37.78 153.847 37.3333 154.567 36.72 155.18C35.3733 156.607 33.6067 157.32 31.42 157.32ZM40.3152 146.8H42.4152V148.3H42.5152C42.7418 147.78 43.1352 147.353 43.6952 147.02C44.2552 146.673 44.8485 146.5 45.4752 146.5C45.9685 146.5 46.3818 146.567 46.7152 146.7V148.98C46.1285 148.767 45.6018 148.66 45.1352 148.66C44.6285 148.66 44.1752 148.793 43.7752 149.06C43.3885 149.327 43.0818 149.687 42.8552 150.14C42.6285 150.58 42.5152 151.067 42.5152 151.6V157H40.3152V146.8ZM51.2495 157.32C50.5162 157.32 49.8629 157.18 49.2895 156.9C48.7162 156.607 48.2695 156.2 47.9495 155.68C47.6295 155.147 47.4695 154.547 47.4695 153.88C47.4695 152.827 47.8629 151.993 48.6495 151.38C49.4495 150.767 50.4562 150.46 51.6695 150.46C52.2695 150.46 52.8095 150.52 53.2895 150.64C53.7695 150.747 54.1495 150.867 54.4295 151V150.48C54.4295 149.853 54.1962 149.347 53.7295 148.96C53.2629 148.56 52.6629 148.36 51.9295 148.36C51.4095 148.36 50.9162 148.473 50.4495 148.7C49.9962 148.927 49.6295 149.24 49.3495 149.64L47.8095 148.46C48.2629 147.833 48.8495 147.347 49.5695 147C50.2895 146.653 51.0895 146.48 51.9695 146.48C53.4495 146.48 54.5895 146.847 55.3895 147.58C56.1895 148.3 56.5895 149.32 56.5895 150.64V157H54.4295V155.78H54.3295C54.0362 156.22 53.6229 156.587 53.0895 156.88C52.5562 157.173 51.9429 157.32 51.2495 157.32ZM51.6295 155.5C52.1629 155.5 52.6429 155.373 53.0695 155.12C53.4962 154.867 53.8295 154.527 54.0695 154.1C54.3095 153.673 54.4295 153.213 54.4295 152.72C54.1229 152.547 53.7629 152.407 53.3495 152.3C52.9495 152.193 52.5295 152.14 52.0895 152.14C51.2629 152.14 50.6562 152.307 50.2695 152.64C49.8829 152.96 49.6895 153.38 49.6895 153.9C49.6895 154.367 49.8695 154.753 50.2295 155.06C50.5895 155.353 51.0562 155.5 51.6295 155.5ZM57.6517 146.8H60.1117L62.9317 154.16H63.0117L65.8917 146.8H68.2917L64.0517 157H61.8517L57.6517 146.8ZM70.9697 145.32C70.5564 145.32 70.203 145.18 69.9097 144.9C69.6297 144.607 69.4897 144.253 69.4897 143.84C69.4897 143.427 69.6297 143.08 69.9097 142.8C70.203 142.507 70.5564 142.36 70.9697 142.36C71.383 142.36 71.7297 142.507 72.0097 142.8C72.303 143.08 72.4497 143.427 72.4497 143.84C72.4497 144.253 72.303 144.607 72.0097 144.9C71.7297 145.18 71.383 145.32 70.9697 145.32ZM69.8697 146.8H72.0697V157H69.8697V146.8ZM78.8897 157.16C78.4364 157.16 78.0097 157.087 77.6097 156.94C77.2097 156.793 76.883 156.6 76.6297 156.36C76.0564 155.787 75.7697 155.007 75.7697 154.02V148.74H73.9897V146.8H75.7697V143.92H77.9697V146.8H80.4497V148.74H77.9697V153.54C77.9697 154.087 78.0764 154.473 78.2897 154.7C78.4897 154.967 78.8364 155.1 79.3297 155.1C79.5564 155.1 79.7564 155.073 79.9297 155.02C80.103 154.953 80.2897 154.853 80.4897 154.72V156.86C80.0497 157.06 79.5164 157.16 78.8897 157.16ZM86.9311 157.32C85.9044 157.32 84.9844 157.087 84.1711 156.62C83.3578 156.14 82.7244 155.487 82.2711 154.66C81.8178 153.833 81.5911 152.913 81.5911 151.9C81.5911 150.887 81.8178 149.967 82.2711 149.14C82.7244 148.313 83.3578 147.667 84.1711 147.2C84.9844 146.72 85.9044 146.48 86.9311 146.48C87.9578 146.48 88.8778 146.72 89.6911 147.2C90.5044 147.68 91.1378 148.333 91.5911 149.16C92.0444 149.987 92.2711 150.9 92.2711 151.9C92.2711 152.913 92.0444 153.833 91.5911 154.66C91.1378 155.487 90.5044 156.14 89.6911 156.62C88.8778 157.087 87.9578 157.32 86.9311 157.32ZM86.9311 155.3C87.4911 155.3 88.0111 155.167 88.4911 154.9C88.9711 154.62 89.3511 154.227 89.6311 153.72C89.9244 153.2 90.0711 152.593 90.0711 151.9C90.0711 151.207 89.9244 150.607 89.6311 150.1C89.3511 149.593 88.9711 149.207 88.4911 148.94C88.0111 148.66 87.4911 148.52 86.9311 148.52C86.3711 148.52 85.8511 148.66 85.3711 148.94C84.8911 149.207 84.5044 149.593 84.2111 150.1C83.9311 150.607 83.7911 151.207 83.7911 151.9C83.7911 152.593 83.9311 153.2 84.2111 153.72C84.5044 154.227 84.8911 154.62 85.3711 154.9C85.8511 155.167 86.3711 155.3 86.9311 155.3ZM94.1042 146.8H96.2042V148.14H96.3042C96.5976 147.66 97.0309 147.267 97.6042 146.96C98.1909 146.64 98.8109 146.48 99.4642 146.48C100.704 146.48 101.644 146.847 102.284 147.58C102.938 148.3 103.264 149.287 103.264 150.54V157H101.064V150.84C101.064 150.04 100.864 149.453 100.464 149.08C100.078 148.707 99.5376 148.52 98.8442 148.52C98.3509 148.52 97.9109 148.66 97.5242 148.94C97.1376 149.207 96.8376 149.567 96.6242 150.02C96.4109 150.473 96.3042 150.96 96.3042 151.48V157H94.1042V146.8ZM24.64 167.68H29.22C30.7 167.68 31.9933 167.98 33.1 168.58C34.2067 169.18 35.0533 170.027 35.64 171.12C36.24 172.2 36.54 173.44 36.54 174.84C36.54 176.24 36.24 177.487 35.64 178.58C35.0533 179.66 34.2067 180.5 33.1 181.1C31.9933 181.7 30.7 182 29.22 182H24.64V167.68ZM29.18 179.86C30.78 179.86 32.0267 179.42 32.92 178.54C33.8267 177.647 34.28 176.413 34.28 174.84C34.28 173.28 33.8267 172.053 32.92 171.16C32.0267 170.267 30.78 169.82 29.18 169.82H26.88V179.86H29.18ZM41.9331 182.32C41.1998 182.32 40.5465 182.18 39.9731 181.9C39.3998 181.607 38.9531 181.2 38.6331 180.68C38.3131 180.147 38.1531 179.547 38.1531 178.88C38.1531 177.827 38.5465 176.993 39.3331 176.38C40.1331 175.767 41.1398 175.46 42.3531 175.46C42.9531 175.46 43.4931 175.52 43.9731 175.64C44.4531 175.747 44.8331 175.867 45.1131 176V175.48C45.1131 174.853 44.8798 174.347 44.4131 173.96C43.9465 173.56 43.3465 173.36 42.6131 173.36C42.0931 173.36 41.5998 173.473 41.1331 173.7C40.6798 173.927 40.3131 174.24 40.0331 174.64L38.4931 173.46C38.9465 172.833 39.5331 172.347 40.2531 172C40.9731 171.653 41.7731 171.48 42.6531 171.48C44.1331 171.48 45.2731 171.847 46.0731 172.58C46.8731 173.3 47.2731 174.32 47.2731 175.64V182H45.1131V180.78H45.0131C44.7198 181.22 44.3065 181.587 43.7731 181.88C43.2398 182.173 42.6265 182.32 41.9331 182.32ZM42.3131 180.5C42.8465 180.5 43.3265 180.373 43.7531 180.12C44.1798 179.867 44.5131 179.527 44.7531 179.1C44.9931 178.673 45.1131 178.213 45.1131 177.72C44.8065 177.547 44.4465 177.407 44.0331 177.3C43.6331 177.193 43.2131 177.14 42.7731 177.14C41.9465 177.14 41.3398 177.307 40.9531 177.64C40.5665 177.96 40.3731 178.38 40.3731 178.9C40.3731 179.367 40.5531 179.753 40.9131 180.06C41.2731 180.353 41.7398 180.5 42.3131 180.5ZM49.6706 171.8H51.7706V173.3H51.8706C52.0973 172.78 52.4906 172.353 53.0506 172.02C53.6106 171.673 54.204 171.5 54.8306 171.5C55.324 171.5 55.7373 171.567 56.0706 171.7V173.98C55.484 173.767 54.9573 173.66 54.4906 173.66C53.984 173.66 53.5306 173.793 53.1306 174.06C52.744 174.327 52.4373 174.687 52.2106 175.14C51.984 175.58 51.8706 176.067 51.8706 176.6V182H49.6706V171.8ZM57.8542 167.68H60.0542V176.02H60.1142L64.2942 171.8H67.0542V171.92L63.0942 175.86L67.1742 181.88V182H64.5542L61.5542 177.38L60.0542 178.84V182H57.8542V167.68Z" fill="white"/>
    <path d="M74.6991 93.4689C71.3078 93.4689 68.6431 92.8179 66.7051 91.5159C64.9447 90.4382 63.6108 88.7852 62.9291 86.8369L68.5881 85.4659C69.0843 86.323 69.7592 87.0631 70.5671 87.6359C71.8258 88.4427 73.312 88.8202 74.8031 88.7119C76.3826 88.7768 77.9403 88.3261 79.2411 87.4279C79.8483 86.9311 80.3248 86.2934 80.629 85.5702C80.9331 84.847 81.0557 84.0604 80.9861 83.2789V78.2269H80.6711C80.2923 78.9546 79.8162 79.6275 79.2561 80.2269C78.5656 80.9606 77.7326 81.5455 76.8081 81.9459C75.6017 82.4459 74.3024 82.6825 72.9971 82.6399C71.0461 82.6648 69.1244 82.1636 67.4341 81.1889C65.7158 80.1601 64.339 78.6473 63.4761 76.8399C62.4272 74.5743 61.9247 72.0941 62.0091 69.5989C61.9321 67.0459 62.4336 64.5086 63.4761 62.1769C64.3325 60.2971 65.7082 58.7012 67.4411 57.5769C69.1094 56.5289 71.0441 55.9835 73.0141 56.0059C74.352 55.9556 75.6824 56.2265 76.8941 56.7959C77.8205 57.254 78.6423 57.8985 79.3081 58.6889C79.8403 59.3254 80.2977 60.021 80.6711 60.7619H81.0181V56.3519H87.2181V83.4519C87.2918 85.4398 86.7192 87.3979 85.5861 89.0329C84.4561 90.5519 82.9091 91.7099 81.1331 92.3659C79.0762 93.1322 76.8938 93.5064 74.6991 93.4689ZM74.7511 77.7059C75.6413 77.751 76.5291 77.5777 77.337 77.201C78.1449 76.8244 78.8483 76.2558 79.3861 75.5449C80.5679 73.7826 81.141 71.6822 81.0181 69.5639C81.1215 67.415 80.5577 65.2868 79.4041 63.4709C78.8899 62.7211 78.1924 62.1153 77.378 61.7111C76.5636 61.3069 75.6592 61.1179 74.7511 61.1619C73.8215 61.1113 72.8949 61.305 72.0635 61.7238C71.232 62.1426 70.5248 62.7718 70.0121 63.5489C68.8885 65.3485 68.3311 67.4439 68.4121 69.5639C68.3093 71.6557 68.875 73.726 70.0271 75.4749C70.5655 76.2118 71.2799 76.8021 72.1051 77.1918C72.9303 77.5816 73.84 77.7583 74.7511 77.7059ZM117.492 56.3529L107.992 83.0179H101.052L91.5521 56.3529H98.2521L104.38 76.1609H104.658L110.809 56.3529H117.492Z" fill="white"/>
</svg>
