<svg width="548" height="292" viewBox="0 0 548 292" fill="none" xmlns="http://www.w3.org/2000/svg">
<path opacity="0.3" d="M39.85 8V26H36.45V20H28.4V26H25V8H28.4V16.6H36.45V8H39.85ZM47.2438 11.4V15.3H54.0938V18.7H47.2438V22.6H55.5938V26H43.8438V8H55.5938V11.4H47.2438ZM59.1016 8V26H70.2516V22.6H62.5016V8H59.1016ZM72.625 8V26H83.775V22.6H76.025V8H72.625ZM93.3813 26.375C92.0646 26.375 90.8229 26.125 89.6562 25.625C88.4896 25.1083 87.5229 24.375 86.7563 23.425C86.0563 22.575 85.5313 21.6 85.1813 20.5C84.8313 19.4 84.6563 18.2333 84.6563 17C84.6563 15.7667 84.8313 14.6 85.1813 13.5C85.5313 12.3833 86.0563 11.4 86.7563 10.55C87.5229 9.58333 88.4813 8.85833 89.6313 8.375C90.7979 7.875 92.0479 7.625 93.3813 7.625C94.7146 7.625 95.9563 7.875 97.1063 8.375C98.2563 8.875 99.2229 9.6 100.006 10.55C100.723 11.4333 101.24 12.4083 101.556 13.475C101.89 14.5417 102.073 15.7167 102.106 17C102.073 18.3 101.89 19.4833 101.556 20.55C101.24 21.6 100.723 22.5583 100.006 23.425C99.2063 24.3917 98.2229 25.125 97.0563 25.625C95.9063 26.125 94.6813 26.375 93.3813 26.375ZM93.2813 23.175C94.1146 23.175 94.8813 23.025 95.5813 22.725C96.2813 22.425 96.8563 21.975 97.3063 21.375C98.1063 20.3083 98.5063 18.85 98.5063 17C98.5063 15.1333 98.1063 13.675 97.3063 12.625C96.8729 12.0417 96.3146 11.6 95.6313 11.3C94.9646 10.9833 94.2479 10.825 93.4813 10.825C92.6479 10.825 91.8729 10.975 91.1563 11.275C90.4563 11.575 89.8896 12.025 89.4563 12.625C88.6729 13.625 88.2646 15.0833 88.2313 17C88.2646 18.9 88.6729 20.3583 89.4563 21.375C89.8729 21.9583 90.4229 22.4083 91.1063 22.725C91.7896 23.025 92.5146 23.175 93.2813 23.175ZM106.767 26C106.767 27.0833 106.542 27.925 106.092 28.525C105.642 29.125 104.976 29.425 104.092 29.425C103.776 29.425 103.534 29.4083 103.367 29.375L103.567 27.95C104.084 27.9833 104.476 27.8583 104.742 27.575C105.009 27.3083 105.142 26.925 105.142 26.425C105.142 26.2417 105.134 26.1 105.117 26H103.367V22.6H106.767V26Z" fill="var(--Black)"/><rect x="188" y="110" width="331" height="53" fill="var(--Light)"/><rect x="23" y="230" width="332" height="53" fill="var(--Light)"/>
<g filter="url(#filter0_d)"><path d="M43.6 67V139H30V67H43.6ZM73.1625 80.6C73.1625 84.9333 72.2625 88.3 70.4625 90.7C68.6625 93.1 65.9958 94.3 62.4625 94.3C61.1958 94.3 60.2292 94.2333 59.5625 94.1L60.3625 88.4C62.4292 88.5333 63.9958 88.0667 65.0625 87C66.1292 85.8667 66.6625 84.3 66.6625 82.3C66.6625 81.5667 66.6292 81 66.5625 80.6H59.5625V67H73.1625V80.6ZM161.231 88.8C163.431 90.7333 164.965 93.1667 165.831 96.1C166.698 98.9667 167.131 102.3 167.131 106.1V139H153.331V106.1C153.331 104.367 153.131 102.967 152.731 101.9C152.331 100.833 151.665 99.7667 150.731 98.7C149.865 97.7667 148.831 97.0667 147.631 96.6C146.431 96.0667 145.165 95.8 143.831 95.8C142.498 95.8 141.231 96.0667 140.031 96.6C138.831 97.1333 137.798 97.8667 136.931 98.8C135.931 99.9333 135.265 101.1 134.931 102.3C134.598 103.433 134.431 104.767 134.431 106.3V139H120.631V106.1C120.631 104.367 120.431 102.967 120.031 101.9C119.631 100.833 118.965 99.7667 118.031 98.7C117.165 97.7667 116.131 97.0667 114.931 96.6C113.731 96.0667 112.465 95.8 111.131 95.8C109.798 95.8 108.531 96.0667 107.331 96.6C106.131 97.1333 105.098 97.8667 104.231 98.8C103.231 99.9333 102.565 101.1 102.231 102.3C101.898 103.433 101.731 104.767 101.731 106.3V139H88.0313V85H100.031V90.8C101.898 88.5333 104.198 86.8 106.931 85.6C109.731 84.3333 112.631 83.7 115.631 83.7C117.831 83.7 120.098 84.1667 122.431 85.1C124.765 86.0333 126.798 87.2667 128.531 88.8C129.731 89.9333 130.731 91.1333 131.531 92.4C133.398 89.6667 135.798 87.5333 138.731 86C141.731 84.4667 144.931 83.7 148.331 83.7C150.531 83.7 152.798 84.1667 155.131 85.1C157.465 86.0333 159.498 87.2667 161.231 88.8ZM239.425 127.8H210.025L206.625 139H192.625L214.625 67H234.925L256.925 139H242.925L239.425 127.8ZM235.525 115L224.625 79.8L213.925 115H235.525ZM278.069 139V65.5H264.469V139H278.069ZM303.731 115.7C304.198 118.833 305.131 121.333 306.531 123.2C307.598 124.667 308.998 125.8 310.731 126.6C312.465 127.4 314.331 127.8 316.331 127.8C318.331 127.8 320.198 127.4 321.931 126.6C323.665 125.8 325.098 124.667 326.231 123.2C326.431 122.933 326.598 122.667 326.731 122.4C326.865 122.067 327.031 121.767 327.231 121.5L340.731 127.4C339.865 128.867 338.798 130.333 337.531 131.8C334.998 134.6 331.998 136.767 328.531 138.3C325.131 139.767 321.531 140.5 317.731 140.5C313.265 140.5 309.098 139.767 305.231 138.3C301.365 136.767 298.165 134.5 295.631 131.5C291.231 126.1 289.031 119.9 289.031 112.9C289.031 104.567 291.231 97.7667 295.631 92.5C298.098 89.5667 301.131 87.3333 304.731 85.8C308.398 84.2667 312.265 83.5 316.331 83.5C320.398 83.5 324.231 84.2667 327.831 85.8C331.498 87.3333 334.565 89.5667 337.031 92.5C339.231 95.1667 340.865 98.1667 341.931 101.5C343.065 104.833 343.631 108.333 343.631 112C343.631 112.867 343.565 114.1 343.431 115.7H303.731ZM316.331 96.2C314.331 96.2 312.465 96.6 310.731 97.4C308.998 98.1333 307.598 99.2667 306.531 100.8C305.598 102 304.865 103.467 304.331 105.2H328.331C327.798 103.533 327.098 102.067 326.231 100.8C325.098 99.2667 323.665 98.1333 321.931 97.4C320.265 96.6 318.398 96.2 316.331 96.2ZM381.988 111.6L401.488 139H385.888L374.788 122.2L363.688 139H348.188L367.588 111.6L348.588 85H363.988L374.788 101.2L385.588 85H400.988L381.988 111.6ZM419.231 115.7C419.698 118.833 420.631 121.333 422.031 123.2C423.098 124.667 424.498 125.8 426.231 126.6C427.965 127.4 429.831 127.8 431.831 127.8C433.831 127.8 435.698 127.4 437.431 126.6C439.165 125.8 440.598 124.667 441.731 123.2C441.931 122.933 442.098 122.667 442.231 122.4C442.365 122.067 442.531 121.767 442.731 121.5L456.231 127.4C455.365 128.867 454.298 130.333 453.031 131.8C450.498 134.6 447.498 136.767 444.031 138.3C440.631 139.767 437.031 140.5 433.231 140.5C428.765 140.5 424.598 139.767 420.731 138.3C416.865 136.767 413.665 134.5 411.131 131.5C406.731 126.1 404.531 119.9 404.531 112.9C404.531 104.567 406.731 97.7667 411.131 92.5C413.598 89.5667 416.631 87.3333 420.231 85.8C423.898 84.2667 427.765 83.5 431.831 83.5C435.898 83.5 439.731 84.2667 443.331 85.8C446.998 87.3333 450.065 89.5667 452.531 92.5C454.731 95.1667 456.365 98.1667 457.431 101.5C458.565 104.833 459.131 108.333 459.131 112C459.131 112.867 459.065 114.1 458.931 115.7H419.231ZM431.831 96.2C429.831 96.2 427.965 96.6 426.231 97.4C424.498 98.1333 423.098 99.2667 422.031 100.8C421.098 102 420.365 103.467 419.831 105.2H443.831C443.298 103.533 442.598 102.067 441.731 100.8C440.598 99.2667 439.165 98.1333 437.431 97.4C435.765 96.6 433.898 96.2 431.831 96.2ZM517.488 85L494.488 146.3C492.088 152.7 489.221 157.133 485.888 159.6C484.088 161 482.188 161.9 480.188 162.3C478.188 162.767 475.754 163 472.888 163H472.188V150.1L473.688 150.3C473.954 150.367 474.388 150.4 474.988 150.4C476.854 150.4 478.121 150.167 478.788 149.7C479.521 149.233 480.354 148.2 481.288 146.6C482.221 145 483.121 143 483.988 140.6L463.188 85H476.788L490.188 123.3L503.988 85H517.488ZM79.4 223.9C82.2667 227.7 83.7 232.067 83.7 237C83.7 241.733 82.2667 246.1 79.4 250.1C76.6 253.833 72.8667 256.433 68.2 257.9C65.5333 258.633 63.2667 259 61.4 259H31V187H59.7C61.9 187 63.9667 187.333 65.9 188C68.0333 188.6 69.9667 189.533 71.7 190.8C73.5 192.067 75 193.567 76.2 195.3C79 198.767 80.4 202.967 80.4 207.9C80.4 209.9 80.0333 211.933 79.3 214C78.5667 216 77.5333 217.833 76.2 219.5L75.8 220C77.0667 221.2 78.2667 222.5 79.4 223.9ZM44.8 199.7V215H60.4C61.1333 214.867 61.9333 214.533 62.8 214C63.6667 213.467 64.3667 212.867 64.9 212.2C66.0333 210.867 66.6 209.4 66.6 207.8C66.6 205.533 65.9333 203.7 64.6 202.3C64.0667 201.633 63.3 201.033 62.3 200.5C61.3 199.967 60.4 199.7 59.6 199.7H44.8ZM70 236.7C70 235.567 69.7667 234.433 69.3 233.3C68.8333 232.167 68.2 231.167 67.4 230.3C66.4667 229.367 65.5 228.733 64.5 228.4C63.5667 228 62.4667 227.8 61.2 227.8H44.8V246.2H61.2C63.2667 246.2 65.2 245.4 67 243.8C69 242.067 70 239.7 70 236.7ZM106.388 235.7C106.854 238.833 107.788 241.333 109.188 243.2C110.254 244.667 111.654 245.8 113.388 246.6C115.121 247.4 116.988 247.8 118.988 247.8C120.988 247.8 122.854 247.4 124.588 246.6C126.321 245.8 127.754 244.667 128.888 243.2C129.088 242.933 129.254 242.667 129.388 242.4C129.521 242.067 129.688 241.767 129.888 241.5L143.388 247.4C142.521 248.867 141.454 250.333 140.188 251.8C137.654 254.6 134.654 256.767 131.188 258.3C127.788 259.767 124.188 260.5 120.388 260.5C115.921 260.5 111.754 259.767 107.888 258.3C104.021 256.767 100.821 254.5 98.2875 251.5C93.8875 246.1 91.6875 239.9 91.6875 232.9C91.6875 224.567 93.8875 217.767 98.2875 212.5C100.754 209.567 103.788 207.333 107.388 205.8C111.054 204.267 114.921 203.5 118.988 203.5C123.054 203.5 126.888 204.267 130.488 205.8C134.154 207.333 137.221 209.567 139.688 212.5C141.888 215.167 143.521 218.167 144.588 221.5C145.721 224.833 146.288 228.333 146.288 232C146.288 232.867 146.221 234.1 146.088 235.7H106.388ZM118.988 216.2C116.988 216.2 115.121 216.6 113.388 217.4C111.654 218.133 110.254 219.267 109.188 220.8C108.254 222 107.521 223.467 106.988 225.2H130.988C130.454 223.533 129.754 222.067 128.888 220.8C127.754 219.267 126.321 218.133 124.588 217.4C122.921 216.6 121.054 216.2 118.988 216.2ZM185.244 222.5C184.977 221.567 184.444 220.667 183.644 219.8C182.844 218.867 181.977 218.167 181.044 217.7C179.377 216.767 177.444 216.3 175.244 216.3C172.71 216.3 170.744 216.7 169.344 217.5C168.144 218.3 167.544 219.133 167.544 220C167.544 220.2 167.644 220.6 167.844 221.2C168.577 222.067 170.477 222.967 173.544 223.9C175.277 224.433 178.11 225.2 182.044 226.2C185.044 227.133 187.177 227.867 188.444 228.4C189.71 228.933 191.11 229.833 192.644 231.1C196.844 234.3 198.944 238.4 198.944 243.4C198.944 246.2 198.244 248.8 196.844 251.2C195.51 253.533 193.644 255.467 191.244 257C187.51 259.333 182.51 260.5 176.244 260.5C172.377 260.5 168.877 259.933 165.744 258.8C162.677 257.667 159.944 255.833 157.544 253.3C156.277 251.9 155.01 249.967 153.744 247.5C152.544 245.033 151.91 243.1 151.844 241.7L164.744 238.5C164.744 239.367 164.977 240.433 165.444 241.7C165.91 242.9 166.51 243.867 167.244 244.6C168.377 245.8 169.677 246.633 171.144 247.1C172.61 247.5 174.31 247.7 176.244 247.7C177.644 247.7 179.077 247.567 180.544 247.3C182.01 246.967 183.11 246.5 183.844 245.9C184.31 245.5 184.61 245.133 184.744 244.8C184.944 244.4 185.11 243.933 185.244 243.4C185.244 242.4 184.944 241.6 184.344 241C183.41 240.067 181.544 239.2 178.744 238.4L170.044 236.1C167.577 235.433 165.51 234.733 163.844 234C162.244 233.267 160.744 232.367 159.344 231.3C157.544 229.967 156.144 228.3 155.144 226.3C154.21 224.3 153.744 222.3 153.744 220.3C153.744 216.967 154.644 214 156.444 211.4C158.31 208.8 160.71 206.867 163.644 205.6C166.977 204.2 170.577 203.5 174.444 203.5C179.377 203.5 183.544 204.4 186.944 206.2C189.61 207.533 191.91 209.333 193.844 211.6C195.844 213.867 197.377 216.433 198.444 219.3L185.244 222.5ZM224.038 185.5V197.5H210.438V185.5H224.038ZM224.038 205V259H210.438V205H224.038ZM288.563 187V259H276.563V255.7C272.363 258.9 267.163 260.5 260.963 260.5C257.363 260.5 253.896 259.767 250.563 258.3C247.296 256.767 244.563 254.633 242.363 251.9C238.163 246.767 236.063 240.133 236.063 232C236.063 228.2 236.596 224.6 237.663 221.2C238.729 217.733 240.296 214.7 242.363 212.1C244.629 209.3 247.429 207.167 250.763 205.7C254.163 204.233 257.796 203.5 261.663 203.5C266.396 203.5 270.796 204.733 274.863 207.2V187H288.563ZM272.763 244.6C274.029 243.2 274.963 241.4 275.563 239.2C276.229 236.933 276.563 234.533 276.563 232C276.563 229.467 276.229 227.1 275.563 224.9C274.963 222.7 274.029 220.867 272.763 219.4C270.629 216.867 267.596 215.6 263.663 215.6C258.929 215.6 255.496 217.2 253.363 220.4C251.429 223.267 250.463 227.133 250.463 232C250.463 237.067 251.363 240.933 253.163 243.6C254.229 245.267 255.629 246.5 257.363 247.3C259.163 248.033 261.096 248.4 263.163 248.4C267.229 248.4 270.429 247.133 272.763 244.6ZM301.131 215L302.231 213.4C306.898 206.867 313.965 203.6 323.431 203.6C328.498 203.6 332.931 204.5 336.731 206.3C340.598 208.033 343.598 210.7 345.731 214.3C347.665 217.5 348.631 221.1 348.631 225.1V259H336.731V249.8C336.265 251.133 335.365 252.5 334.031 253.9C332.698 255.233 331.365 256.3 330.031 257.1C328.231 258.233 326.198 259.067 323.931 259.6C321.731 260.133 319.565 260.4 317.431 260.4C314.831 260.4 312.265 259.833 309.731 258.7C307.198 257.567 305.198 256.133 303.731 254.4C302.198 252.267 301.098 250.4 300.431 248.8C299.831 247.2 299.531 245.3 299.531 243.1C299.531 240.233 300.331 237.5 301.931 234.9C303.531 232.233 305.631 230.133 308.231 228.6C310.498 227.4 312.631 226.567 314.631 226.1C316.631 225.567 319.231 225.1 322.431 224.7L326.131 224.1L334.831 222.9C334.298 220.767 332.965 219.1 330.831 217.9C328.698 216.633 326.131 216.067 323.131 216.2C319.331 216.2 316.498 217.3 314.631 219.5C314.165 219.967 313.798 220.433 313.531 220.9L301.131 215ZM325.131 235.7C321.131 236.433 318.098 237.233 316.031 238.1C314.031 238.967 313.031 240.433 313.031 242.5C313.031 244.033 313.631 245.333 314.831 246.4C316.098 247.467 317.698 248 319.631 248C322.898 248 325.965 247.2 328.831 245.6C331.765 244 333.631 241.633 334.431 238.5C334.898 236.767 335.131 235.2 335.131 233.8L325.131 235.7Z" fill="var(--Black)"/></g>
<defs><filter id="filter0_d" x="0" y="36.5" width="547.488" height="255" filterUnits="userSpaceOnUse" color-interpolation-filters="sRGB"><feFlood flood-opacity="0" result="BackgroundImageFix"/><feColorMatrix in="SourceAlpha" type="matrix" values="0 0 0 0 0 0 0 0 0 0 0 0 0 0 0 0 0 0 127 0"/><feOffset dy="1"/><feGaussianBlur stdDeviation="15"/><feColorMatrix type="matrix" values="0 0 0 0 0.12 0 0 0 0 0.213333 0 0 0 0 0.4 0 0 0 0.2 0"/><feBlend mode="normal" in2="BackgroundImageFix" result="effect1_dropShadow"/><feBlend mode="normal" in="SourceGraphic" in2="effect1_dropShadow" result="shape"/></filter></defs>
</svg>
