<svg width="96" height="96" viewBox="0 0 96 96" fill="none" xmlns="http://www.w3.org/2000/svg">
<path fill-rule="evenodd" clip-rule="evenodd" d="M28.869 65.3586C29.2154 66.509 29.8895 67.579 30.8915 68.5686C31.8934 69.5829 32.9696 70.257 34.12 70.591C35.2704 70.925 36.4146 70.9312 37.5526 70.6096C38.703 70.3003 39.773 69.6509 40.7626 68.6613C41.3068 68.1171 41.8449 67.4367 42.3768 66.6203C42.9087 65.8039 43.4221 64.938 43.9169 64.0227C44.424 63.1197 44.9064 62.2352 45.3641 61.3693C45.8342 60.5035 46.2733 59.7427 46.6815 59.0871L50.9491 63.3732C51.7036 64.1278 52.5015 64.5051 53.3426 64.5051C54.1838 64.5175 54.9631 64.1649 55.6805 63.4475L57.2391 61.8703C57.9813 61.1158 58.34 60.3303 58.3153 59.5139C58.3029 58.6975 57.9256 57.912 57.1835 57.1574L42.3026 42.2766C41.548 41.5344 40.7564 41.1571 39.9276 41.1447C39.0988 41.1324 38.3195 41.4911 37.5897 42.2209L36.0311 43.7795C35.3013 44.5093 34.9364 45.2948 34.9364 46.1359C34.9488 46.9771 35.326 47.7688 36.0682 48.5109L40.3544 52.7785C39.7111 53.1867 38.9566 53.6259 38.0907 54.0959C37.2248 54.5536 36.3342 55.036 35.4188 55.5432C34.5158 56.038 33.6561 56.5513 32.8397 57.0832C32.0357 57.6151 31.3553 58.1532 30.7987 58.6975C29.8091 59.687 29.1535 60.757 28.8319 61.9074C28.5227 63.0578 28.535 64.2082 28.869 65.3586ZM37.5526 65.2287C37.132 65.6617 36.6125 65.8781 35.994 65.8781C35.3755 65.8781 34.8498 65.6617 34.4169 65.2287C33.9839 64.7958 33.7674 64.2701 33.7674 63.6516C33.7674 63.0454 33.9839 62.5259 34.4169 62.093C34.8498 61.6724 35.3755 61.4621 35.994 61.4621C36.6125 61.4621 37.132 61.6724 37.5526 62.093C37.9855 62.5259 38.202 63.0454 38.202 63.6516C38.202 64.2701 37.9855 64.7958 37.5526 65.2287ZM60.1404 55.8347L42.7532 38.4475C42.9688 37.945 43.1897 37.403 43.4159 36.8215C43.7622 35.9309 44.1148 34.8918 44.4735 33.7043C44.8446 32.5168 45.2404 31.1314 45.661 29.5481C45.9579 28.3977 46.465 27.5441 47.1825 26.9875C47.9123 26.4309 48.6916 26.1773 49.5204 26.2268C50.3615 26.2639 51.1037 26.604 51.7469 27.2473L61.2841 36.8029C61.1604 37.9657 60.9191 39.0109 60.5604 39.9387C60.2017 40.854 59.7378 41.7014 59.1688 42.4807C58.5998 43.2476 57.9442 44.0022 57.202 44.7443C57.0783 44.868 57.0165 45.0041 57.0165 45.1525C57.0288 45.2886 57.0783 45.3999 57.1649 45.4865C57.4123 45.7587 57.8947 45.802 58.6122 45.6164C59.3296 45.4185 60.1398 45.0845 61.0428 44.6145C61.9582 44.1444 62.8241 43.6001 63.6405 42.9816C64.4693 42.3508 65.1249 41.7261 65.6073 41.1076L66.6835 42.2023C67.7844 43.3404 68.3472 44.5279 68.3719 45.7648C68.3967 46.9895 67.8648 48.1398 66.7762 49.216L60.1404 55.8347Z" fill="black" style="fill:black;fill:black;fill-opacity:1;"/>
</svg>
