<svg width="180" height="180" viewBox="0 0 180 180" fill="none" xmlns="http://www.w3.org/2000/svg">
    <rect width="180" height="180" rx="12" fill="#1769FF"/>
    <path d="M79.8084 59C81.307 59 82.6732 59.1321 83.9073 59.3968C85.1414 59.6612 86.1991 60.095 87.0804 60.6967C87.9618 61.2991 88.645 62.0999 89.1299 63.0991C89.6147 64.0983 89.8571 65.3321 89.8571 66.8011C89.8571 68.388 89.4971 69.7101 88.7774 70.7676C88.0571 71.8253 86.9924 72.6919 85.5822 73.3679C87.5212 73.9263 88.9682 74.9037 89.9234 76.2987C90.8776 77.6946 91.3561 79.377 91.3561 81.3451C91.3561 82.9317 91.0477 84.3057 90.4302 85.4665C89.8136 86.6275 88.983 87.5749 87.9405 88.3084C86.8973 89.0434 85.7072 89.5865 84.3706 89.9398C83.0255 90.2931 81.6404 90.4707 80.2497 90.4681H65V59H79.8084ZM78.9271 71.7375C80.1612 71.7375 81.1746 71.4438 81.9682 70.8559C82.7615 70.2685 83.158 69.3133 83.158 67.9912C83.158 67.2569 83.0259 66.6543 82.7615 66.1842C82.497 65.7144 82.1445 65.3464 81.7037 65.0824C81.2629 64.8178 80.7561 64.6349 80.1832 64.5313C79.5939 64.4272 78.9966 64.3757 78.3982 64.3772H71.9195V71.7378H78.9271V71.7375ZM79.3236 85.0912C79.9991 85.0912 80.6458 85.0249 81.2627 84.8928C81.8796 84.7605 82.423 84.5401 82.8936 84.2314C83.3631 83.9234 83.7379 83.5044 84.0173 82.9752C84.2963 82.4466 84.4359 81.7709 84.4359 80.9478C84.4359 79.3325 83.9801 78.1792 83.0697 77.4885C82.1586 76.798 80.954 76.4525 79.4557 76.4525H71.9195V85.0907L79.3236 85.0912ZM100.064 84.4302C101.004 85.3419 102.356 85.7964 104.119 85.7964C105.382 85.7964 106.469 85.4812 107.38 84.849C108.291 84.2181 108.849 83.5491 109.055 82.8437H114.564C113.682 85.576 112.33 87.5304 110.509 88.7052C108.687 89.8807 106.483 90.4681 103.898 90.4681C102.106 90.4681 100.489 90.1817 99.0497 89.6086C97.6097 89.0359 96.3901 88.2204 95.3919 87.1626C94.3927 86.1051 93.6214 84.8425 93.0778 83.3728C92.5339 81.904 92.2628 80.2876 92.2628 78.5247C92.2628 76.821 92.5412 75.2344 93.1001 73.7652C93.6577 72.2964 94.4508 71.0255 95.4802 69.9525C96.5079 68.8805 97.735 68.0357 99.1603 67.4185C100.585 66.8014 102.164 66.4932 103.898 66.4932C105.837 66.4932 107.527 66.8677 108.967 67.6169C110.406 68.3659 111.589 69.3734 112.515 70.6358C113.44 71.8994 114.108 73.3394 114.52 74.9547C114.932 76.5711 115.078 78.2603 114.961 80.0232H98.5218C98.6096 82.0501 99.123 83.5199 100.064 84.4302ZM107.137 72.4425C106.388 71.6202 105.249 71.2084 103.722 71.2084C102.723 71.2084 101.893 71.3778 101.232 71.7152C100.571 72.0537 100.042 72.4715 99.6451 72.9714C99.2488 73.4712 98.9691 74.0003 98.808 74.558C98.6461 75.1163 98.5506 75.6159 98.5213 76.0565H108.702C108.408 74.4696 107.887 73.2653 107.137 72.4425ZM97.4526 60.5978H110.173V64.1248H97.4526V60.5978Z" fill="white"/>
    <path d="M24.64 140.68H30.02C30.78 140.68 31.48 140.847 32.12 141.18C32.7733 141.513 33.2933 141.973 33.68 142.56C34.0667 143.147 34.26 143.793 34.26 144.5C34.26 145.207 34.08 145.82 33.72 146.34C33.3733 146.86 32.9133 147.253 32.34 147.52V147.64C33.06 147.893 33.64 148.313 34.08 148.9C34.5333 149.487 34.76 150.173 34.76 150.96C34.76 151.747 34.5533 152.447 34.14 153.06C33.74 153.673 33.1933 154.153 32.5 154.5C31.82 154.833 31.0733 155 30.26 155H24.64V140.68ZM29.92 146.68C30.56 146.68 31.0733 146.48 31.46 146.08C31.86 145.68 32.06 145.22 32.06 144.7C32.06 144.18 31.8667 143.727 31.48 143.34C31.1067 142.94 30.6133 142.74 30 142.74H26.88V146.68H29.92ZM30.26 152.92C30.94 152.92 31.48 152.707 31.88 152.28C32.2933 151.853 32.5 151.36 32.5 150.8C32.5 150.227 32.2867 149.733 31.86 149.32C31.4467 148.893 30.8867 148.68 30.18 148.68H26.88V152.92H30.26ZM41.4986 155.32C40.4986 155.32 39.5986 155.087 38.7986 154.62C38.0119 154.153 37.3919 153.513 36.9386 152.7C36.4986 151.873 36.2786 150.947 36.2786 149.92C36.2786 148.947 36.4919 148.047 36.9186 147.22C37.3586 146.38 37.9653 145.713 38.7386 145.22C39.5119 144.727 40.3919 144.48 41.3786 144.48C42.4053 144.48 43.2919 144.707 44.0386 145.16C44.7986 145.613 45.3719 146.233 45.7586 147.02C46.1586 147.807 46.3586 148.693 46.3586 149.68C46.3586 149.867 46.3386 150.1 46.2986 150.38H38.4786C38.5586 151.327 38.8919 152.06 39.4786 152.58C40.0786 153.087 40.7719 153.34 41.5586 153.34C42.1853 153.34 42.7253 153.2 43.1786 152.92C43.6453 152.627 44.0186 152.233 44.2986 151.74L46.1586 152.62C45.6786 153.46 45.0519 154.12 44.2786 154.6C43.5053 155.08 42.5786 155.32 41.4986 155.32ZM44.1186 148.7C44.0919 148.34 43.9786 147.987 43.7786 147.64C43.5786 147.28 43.2719 146.98 42.8586 146.74C42.4586 146.5 41.9653 146.38 41.3786 146.38C40.6719 146.38 40.0719 146.593 39.5786 147.02C39.0986 147.433 38.7653 147.993 38.5786 148.7H44.1186ZM48.362 140.68H50.562V144.58L50.462 146.14H50.562C50.8554 145.66 51.2887 145.267 51.862 144.96C52.4487 144.64 53.0754 144.48 53.742 144.48C54.982 144.48 55.9287 144.847 56.582 145.58C57.2354 146.3 57.562 147.287 57.562 148.54V155H55.362V148.84C55.362 148.067 55.1554 147.487 54.742 147.1C54.342 146.713 53.8154 146.52 53.162 146.52C52.6687 146.52 52.222 146.66 51.822 146.94C51.4354 147.22 51.1287 147.593 50.902 148.06C50.6754 148.513 50.562 149 50.562 149.52V155H48.362V140.68ZM63.1636 155.32C62.4303 155.32 61.7769 155.18 61.2036 154.9C60.6303 154.607 60.1836 154.2 59.8636 153.68C59.5436 153.147 59.3836 152.547 59.3836 151.88C59.3836 150.827 59.7769 149.993 60.5636 149.38C61.3636 148.767 62.3703 148.46 63.5836 148.46C64.1836 148.46 64.7236 148.52 65.2036 148.64C65.6836 148.747 66.0636 148.867 66.3436 149V148.48C66.3436 147.853 66.1103 147.347 65.6436 146.96C65.1769 146.56 64.5769 146.36 63.8436 146.36C63.3236 146.36 62.8303 146.473 62.3636 146.7C61.9103 146.927 61.5436 147.24 61.2636 147.64L59.7236 146.46C60.1769 145.833 60.7636 145.347 61.4836 145C62.2036 144.653 63.0036 144.48 63.8836 144.48C65.3636 144.48 66.5036 144.847 67.3036 145.58C68.1036 146.3 68.5036 147.32 68.5036 148.64V155H66.3436V153.78H66.2436C65.9503 154.22 65.5369 154.587 65.0036 154.88C64.4703 155.173 63.8569 155.32 63.1636 155.32ZM63.5436 153.5C64.0769 153.5 64.5569 153.373 64.9836 153.12C65.4103 152.867 65.7436 152.527 65.9836 152.1C66.2236 151.673 66.3436 151.213 66.3436 150.72C66.0369 150.547 65.6769 150.407 65.2636 150.3C64.8636 150.193 64.4436 150.14 64.0036 150.14C63.1769 150.14 62.5703 150.307 62.1836 150.64C61.7969 150.96 61.6036 151.38 61.6036 151.9C61.6036 152.367 61.7836 152.753 62.1436 153.06C62.5036 153.353 62.9703 153.5 63.5436 153.5ZM70.9011 144.8H73.0011V146.14H73.1011C73.3944 145.66 73.8278 145.267 74.4011 144.96C74.9878 144.64 75.6078 144.48 76.2611 144.48C77.5011 144.48 78.4411 144.847 79.0811 145.58C79.7344 146.3 80.0611 147.287 80.0611 148.54V155H77.8611V148.84C77.8611 148.04 77.6611 147.453 77.2611 147.08C76.8744 146.707 76.3344 146.52 75.6411 146.52C75.1478 146.52 74.7078 146.66 74.3211 146.94C73.9344 147.207 73.6344 147.567 73.4211 148.02C73.2078 148.473 73.1011 148.96 73.1011 149.48V155H70.9011V144.8ZM87.2617 155.32C86.2484 155.32 85.3351 155.087 84.5217 154.62C83.7217 154.153 83.0951 153.513 82.6417 152.7C82.2017 151.873 81.9817 150.94 81.9817 149.9C81.9817 148.86 82.2017 147.933 82.6417 147.12C83.0951 146.293 83.7217 145.647 84.5217 145.18C85.3351 144.713 86.2484 144.48 87.2617 144.48C88.3817 144.48 89.3351 144.733 90.1217 145.24C90.9084 145.747 91.4684 146.433 91.8017 147.3L89.7817 148.14C89.3284 147.06 88.4684 146.52 87.2017 146.52C86.6551 146.52 86.1484 146.66 85.6817 146.94C85.2284 147.22 84.8617 147.62 84.5817 148.14C84.3151 148.647 84.1817 149.233 84.1817 149.9C84.1817 150.567 84.3151 151.16 84.5817 151.68C84.8617 152.2 85.2284 152.6 85.6817 152.88C86.1484 153.16 86.6551 153.3 87.2017 153.3C87.8417 153.3 88.3884 153.16 88.8417 152.88C89.3084 152.587 89.6617 152.173 89.9017 151.64L91.8817 152.5C91.4951 153.367 90.9084 154.053 90.1217 154.56C89.3351 155.067 88.3817 155.32 87.2617 155.32ZM98.315 155.32C97.315 155.32 96.415 155.087 95.615 154.62C94.8283 154.153 94.2083 153.513 93.755 152.7C93.315 151.873 93.095 150.947 93.095 149.92C93.095 148.947 93.3083 148.047 93.735 147.22C94.175 146.38 94.7817 145.713 95.555 145.22C96.3283 144.727 97.2083 144.48 98.195 144.48C99.2217 144.48 100.108 144.707 100.855 145.16C101.615 145.613 102.188 146.233 102.575 147.02C102.975 147.807 103.175 148.693 103.175 149.68C103.175 149.867 103.155 150.1 103.115 150.38H95.295C95.375 151.327 95.7083 152.06 96.295 152.58C96.895 153.087 97.5883 153.34 98.375 153.34C99.0017 153.34 99.5417 153.2 99.995 152.92C100.462 152.627 100.835 152.233 101.115 151.74L102.975 152.62C102.495 153.46 101.868 154.12 101.095 154.6C100.322 155.08 99.395 155.32 98.315 155.32ZM100.935 148.7C100.908 148.34 100.795 147.987 100.595 147.64C100.395 147.28 100.088 146.98 99.675 146.74C99.275 146.5 98.7817 146.38 98.195 146.38C97.4883 146.38 96.8883 146.593 96.395 147.02C95.915 147.433 95.5817 147.993 95.395 148.7H100.935Z" fill="white"/>
</svg>
