<svg width="180" height="180" viewBox="0 0 180 180" fill="none" xmlns="http://www.w3.org/2000/svg">
    <rect width="180" height="180" rx="12" fill="#E74D89"/>
    <path d="M90 99.9414C76.2109 99.9414 65 88.75 65 74.9805C65 61.1914 76.2109 50 90 50C103.789 50 115 61.1914 115 74.9609C115 88.7305 103.789 99.9414 90 99.9414ZM111.074 78.3789C110.352 78.1445 104.473 76.4063 97.7734 77.4609C100.566 85.1172 101.699 91.3672 101.914 92.6562C106.719 89.4336 110.137 84.3164 111.074 78.3789ZM98.3398 94.6289C98.0273 92.7539 96.7773 86.2305 93.7891 78.457C93.75 78.4766 93.6914 78.4961 93.6523 78.4961C81.6016 82.6953 77.2852 91.0352 76.8945 91.8164C80.5078 94.6289 85.0586 96.3086 90 96.3086C92.9492 96.3281 95.7812 95.7227 98.3398 94.6289ZM74.1406 89.2578C74.6289 88.4375 80.4883 78.75 91.5039 75.1758C91.7773 75.0781 92.0703 75 92.3438 74.9219C91.8164 73.7109 91.2305 72.5 90.6055 71.3086C79.9414 74.4922 69.5898 74.3555 68.6523 74.3359C68.6523 74.5508 68.6328 74.7656 68.6328 74.9805C68.6523 80.4688 70.7227 85.4688 74.1406 89.2578ZM69.1016 70.625C70.0586 70.6445 78.8477 70.6836 88.8477 68.0273C85.3125 61.7383 81.4844 56.4648 80.9375 55.7031C74.9414 58.5156 70.4883 64.0234 69.1016 70.625ZM85 54.2578C85.5859 55.0391 89.4727 60.3125 92.9688 66.7383C100.566 63.8867 103.77 59.5898 104.16 59.043C100.391 55.7031 95.4297 53.6719 90 53.6719C88.2812 53.6719 86.6016 53.8867 85 54.2578ZM106.523 61.5039C106.074 62.1094 102.5 66.6992 94.6094 69.9219C95.0977 70.9375 95.5859 71.9727 96.0352 73.0078C96.1914 73.3789 96.3477 73.75 96.5039 74.1016C103.613 73.2031 110.664 74.6484 111.367 74.7852C111.309 69.7656 109.512 65.1367 106.523 61.5039Z" fill="white" stroke="white"/>
    <path d="M24.64 140.68H29.22C30.7 140.68 31.9933 140.98 33.1 141.58C34.2067 142.18 35.0533 143.027 35.64 144.12C36.24 145.2 36.54 146.44 36.54 147.84C36.54 149.24 36.24 150.487 35.64 151.58C35.0533 152.66 34.2067 153.5 33.1 154.1C31.9933 154.7 30.7 155 29.22 155H24.64V140.68ZM29.18 152.86C30.78 152.86 32.0267 152.42 32.92 151.54C33.8267 150.647 34.28 149.413 34.28 147.84C34.28 146.28 33.8267 145.053 32.92 144.16C32.0267 143.267 30.78 142.82 29.18 142.82H26.88V152.86H29.18ZM38.3425 144.8H40.4425V146.3H40.5425C40.7692 145.78 41.1625 145.353 41.7225 145.02C42.2825 144.673 42.8758 144.5 43.5025 144.5C43.9958 144.5 44.4092 144.567 44.7425 144.7V146.98C44.1558 146.767 43.6292 146.66 43.1625 146.66C42.6558 146.66 42.2025 146.793 41.8025 147.06C41.4158 147.327 41.1092 147.687 40.8825 148.14C40.6558 148.58 40.5425 149.067 40.5425 149.6V155H38.3425V144.8ZM47.6884 143.32C47.2751 143.32 46.9218 143.18 46.6284 142.9C46.3484 142.607 46.2084 142.253 46.2084 141.84C46.2084 141.427 46.3484 141.08 46.6284 140.8C46.9218 140.507 47.2751 140.36 47.6884 140.36C48.1018 140.36 48.4484 140.507 48.7284 140.8C49.0218 141.08 49.1684 141.427 49.1684 141.84C49.1684 142.253 49.0218 142.607 48.7284 142.9C48.4484 143.18 48.1018 143.32 47.6884 143.32ZM46.5884 144.8H48.7884V155H46.5884V144.8ZM56.9661 155.32C56.2461 155.32 55.5994 155.16 55.0261 154.84C54.4528 154.52 54.0194 154.133 53.7261 153.68H53.6261V155H51.5261V140.68H53.7261V144.7L53.6261 146.14H53.7261C54.0194 145.673 54.4528 145.28 55.0261 144.96C55.5994 144.64 56.2461 144.48 56.9661 144.48C57.8861 144.48 58.7194 144.713 59.4661 145.18C60.2128 145.647 60.7994 146.293 61.2261 147.12C61.6661 147.933 61.8861 148.86 61.8861 149.9C61.8861 150.94 61.6661 151.873 61.2261 152.7C60.7994 153.513 60.2128 154.153 59.4661 154.62C58.7194 155.087 57.8861 155.32 56.9661 155.32ZM56.6461 153.3C57.1794 153.3 57.6794 153.16 58.1461 152.88C58.6128 152.6 58.9861 152.2 59.2661 151.68C59.5461 151.16 59.6861 150.567 59.6861 149.9C59.6861 149.233 59.5461 148.647 59.2661 148.14C58.9861 147.62 58.6128 147.22 58.1461 146.94C57.6794 146.66 57.1794 146.52 56.6461 146.52C56.1128 146.52 55.6128 146.66 55.1461 146.94C54.6928 147.22 54.3261 147.62 54.0461 148.14C53.7661 148.647 53.6261 149.233 53.6261 149.9C53.6261 150.567 53.7661 151.16 54.0461 151.68C54.3261 152.2 54.6928 152.6 55.1461 152.88C55.6128 153.16 56.1128 153.3 56.6461 153.3ZM69.2317 155.32C68.5117 155.32 67.8651 155.16 67.2917 154.84C66.7184 154.52 66.2851 154.133 65.9917 153.68H65.8917V155H63.7917V140.68H65.9917V144.7L65.8917 146.14H65.9917C66.2851 145.673 66.7184 145.28 67.2917 144.96C67.8651 144.64 68.5117 144.48 69.2317 144.48C70.1517 144.48 70.9851 144.713 71.7317 145.18C72.4784 145.647 73.0651 146.293 73.4917 147.12C73.9317 147.933 74.1517 148.86 74.1517 149.9C74.1517 150.94 73.9317 151.873 73.4917 152.7C73.0651 153.513 72.4784 154.153 71.7317 154.62C70.9851 155.087 70.1517 155.32 69.2317 155.32ZM68.9117 153.3C69.4451 153.3 69.9451 153.16 70.4117 152.88C70.8784 152.6 71.2517 152.2 71.5317 151.68C71.8117 151.16 71.9517 150.567 71.9517 149.9C71.9517 149.233 71.8117 148.647 71.5317 148.14C71.2517 147.62 70.8784 147.22 70.4117 146.94C69.9451 146.66 69.4451 146.52 68.9117 146.52C68.3784 146.52 67.8784 146.66 67.4117 146.94C66.9584 147.22 66.5917 147.62 66.3117 148.14C66.0317 148.647 65.8917 149.233 65.8917 149.9C65.8917 150.567 66.0317 151.16 66.3117 151.68C66.5917 152.2 66.9584 152.6 67.4117 152.88C67.8784 153.16 68.3784 153.3 68.9117 153.3ZM81.4973 155.32C80.7773 155.32 80.1307 155.16 79.5573 154.84C78.984 154.52 78.5507 154.133 78.2573 153.68H78.1573V155H76.0573V140.68H78.2573V144.7L78.1573 146.14H78.2573C78.5507 145.673 78.984 145.28 79.5573 144.96C80.1307 144.64 80.7773 144.48 81.4973 144.48C82.4173 144.48 83.2507 144.713 83.9973 145.18C84.744 145.647 85.3307 146.293 85.7573 147.12C86.1973 147.933 86.4173 148.86 86.4173 149.9C86.4173 150.94 86.1973 151.873 85.7573 152.7C85.3307 153.513 84.744 154.153 83.9973 154.62C83.2507 155.087 82.4173 155.32 81.4973 155.32ZM81.1773 153.3C81.7107 153.3 82.2107 153.16 82.6773 152.88C83.144 152.6 83.5173 152.2 83.7973 151.68C84.0773 151.16 84.2173 150.567 84.2173 149.9C84.2173 149.233 84.0773 148.647 83.7973 148.14C83.5173 147.62 83.144 147.22 82.6773 146.94C82.2107 146.66 81.7107 146.52 81.1773 146.52C80.644 146.52 80.144 146.66 79.6773 146.94C79.224 147.22 78.8573 147.62 78.5773 148.14C78.2973 148.647 78.1573 149.233 78.1573 149.9C78.1573 150.567 78.2973 151.16 78.5773 151.68C78.8573 152.2 79.224 152.6 79.6773 152.88C80.144 153.16 80.644 153.3 81.1773 153.3ZM88.323 140.68H90.523V155H88.323V140.68ZM97.6705 155.32C96.6705 155.32 95.7705 155.087 94.9705 154.62C94.1838 154.153 93.5638 153.513 93.1105 152.7C92.6705 151.873 92.4505 150.947 92.4505 149.92C92.4505 148.947 92.6638 148.047 93.0905 147.22C93.5305 146.38 94.1371 145.713 94.9105 145.22C95.6838 144.727 96.5638 144.48 97.5505 144.48C98.5771 144.48 99.4638 144.707 100.21 145.16C100.97 145.613 101.544 146.233 101.93 147.02C102.33 147.807 102.53 148.693 102.53 149.68C102.53 149.867 102.51 150.1 102.47 150.38H94.6505C94.7305 151.327 95.0638 152.06 95.6505 152.58C96.2505 153.087 96.9438 153.34 97.7305 153.34C98.3571 153.34 98.8971 153.2 99.3505 152.92C99.8171 152.627 100.19 152.233 100.47 151.74L102.33 152.62C101.85 153.46 101.224 154.12 100.45 154.6C99.6771 155.08 98.7505 155.32 97.6705 155.32ZM100.29 148.7C100.264 148.34 100.15 147.987 99.9505 147.64C99.7505 147.28 99.4438 146.98 99.0305 146.74C98.6305 146.5 98.1371 146.38 97.5505 146.38C96.8438 146.38 96.2438 146.593 95.7505 147.02C95.2705 147.433 94.9371 147.993 94.7505 148.7H100.29Z" fill="white"/>
</svg>

