<svg width="180" height="180" viewBox="0 0 180 180" fill="none" xmlns="http://www.w3.org/2000/svg">
    <rect width="180" height="180" rx="12" fill="#1DA1F2"/>
    <path d="M80.724 95.6276C99.592 95.6276 109.912 79.9956 109.912 66.4396C109.912 65.9956 109.912 65.5536 109.882 65.1136C111.89 63.6614 113.623 61.8634 115 59.8036C113.128 60.6332 111.142 61.1773 109.108 61.4176C111.249 60.1356 112.852 58.1191 113.618 55.7436C111.604 56.9385 109.401 57.7806 107.104 58.2336C105.557 56.589 103.512 55.4999 101.284 55.135C99.0558 54.7701 96.7696 55.1497 94.7791 56.215C92.7886 57.2802 91.2046 58.9719 90.2724 61.0281C89.3401 63.0843 89.1115 65.3904 89.622 67.5896C85.5435 67.3851 81.5536 66.3253 77.9113 64.4788C74.269 62.6323 71.0557 60.0405 68.48 56.8716C67.1682 59.1299 66.7664 61.8033 67.3565 64.3475C67.9465 66.8916 69.484 69.1153 71.656 70.5656C70.0235 70.5172 68.4266 70.0768 67 69.2816C67 69.3236 67 69.3676 67 69.4116C67.0006 71.78 67.8205 74.0753 69.3206 75.9082C70.8206 77.7411 72.9085 78.9986 75.23 79.4676C73.7197 79.8795 72.1352 79.9397 70.598 79.6436C71.2535 81.6819 72.5297 83.4644 74.2481 84.7418C75.9666 86.0191 78.0412 86.7274 80.182 86.7676C76.5495 89.6225 72.0621 91.1723 67.442 91.1676C66.6258 91.166 65.8104 91.1166 65 91.0196C69.6913 94.0301 75.1498 95.627 80.724 95.6196" fill="white"/>
    <path d="M27.54 142.82H23.54V140.68H33.78V142.82H29.78V155H27.54V142.82ZM33.0423 144.8H35.4223L37.4823 152.1H37.5623L39.8623 144.8H42.1223L44.4023 152.1H44.4823L46.5423 144.8H48.8823L45.6223 155H43.3023L40.9623 147.68H40.9023L38.5823 155H36.3023L33.0423 144.8ZM51.5556 143.32C51.1423 143.32 50.789 143.18 50.4956 142.9C50.2156 142.607 50.0756 142.253 50.0756 141.84C50.0756 141.427 50.2156 141.08 50.4956 140.8C50.789 140.507 51.1423 140.36 51.5556 140.36C51.969 140.36 52.3156 140.507 52.5956 140.8C52.889 141.08 53.0356 141.427 53.0356 141.84C53.0356 142.253 52.889 142.607 52.5956 142.9C52.3156 143.18 51.969 143.32 51.5556 143.32ZM50.4556 144.8H52.6556V155H50.4556V144.8ZM59.4756 155.16C59.0223 155.16 58.5956 155.087 58.1956 154.94C57.7956 154.793 57.469 154.6 57.2156 154.36C56.6423 153.787 56.3556 153.007 56.3556 152.02V146.74H54.5756V144.8H56.3556V141.92H58.5556V144.8H62.8556V141.92H65.0556V144.8H67.5356V146.74H65.0556V151.54C65.0556 152.087 65.1623 152.473 65.3756 152.7C65.5756 152.967 65.9223 153.1 66.4156 153.1C66.6423 153.1 66.8423 153.073 67.0156 153.02C67.189 152.953 67.3756 152.853 67.5756 152.72V154.86C67.1223 155.06 66.589 155.16 65.9756 155.16C65.5223 155.16 65.0956 155.087 64.6956 154.94C64.2956 154.793 63.969 154.6 63.7156 154.36C63.1423 153.787 62.8556 153.007 62.8556 152.02V146.74H58.5556V151.54C58.5556 152.087 58.6623 152.473 58.8756 152.7C59.0756 152.967 59.4156 153.1 59.8956 153.1C60.2423 153.1 60.5956 152.987 60.9556 152.76V154.9C60.7423 154.993 60.5223 155.06 60.2956 155.1C60.0823 155.14 59.809 155.16 59.4756 155.16ZM73.9009 155.32C72.9009 155.32 72.0009 155.087 71.2009 154.62C70.4143 154.153 69.7943 153.513 69.3409 152.7C68.9009 151.873 68.6809 150.947 68.6809 149.92C68.6809 148.947 68.8943 148.047 69.3209 147.22C69.7609 146.38 70.3676 145.713 71.1409 145.22C71.9143 144.727 72.7943 144.48 73.7809 144.48C74.8076 144.48 75.6943 144.707 76.4409 145.16C77.2009 145.613 77.7743 146.233 78.1609 147.02C78.5609 147.807 78.7609 148.693 78.7609 149.68C78.7609 149.867 78.7409 150.1 78.7009 150.38H70.8809C70.9609 151.327 71.2943 152.06 71.8809 152.58C72.4809 153.087 73.1743 153.34 73.9609 153.34C74.5876 153.34 75.1276 153.2 75.5809 152.92C76.0476 152.627 76.4209 152.233 76.7009 151.74L78.5609 152.62C78.0809 153.46 77.4543 154.12 76.6809 154.6C75.9076 155.08 74.9809 155.32 73.9009 155.32ZM76.5209 148.7C76.4943 148.34 76.3809 147.987 76.1809 147.64C75.9809 147.28 75.6743 146.98 75.2609 146.74C74.8609 146.5 74.3676 146.38 73.7809 146.38C73.0743 146.38 72.4743 146.593 71.9809 147.02C71.5009 147.433 71.1676 147.993 70.9809 148.7H76.5209ZM80.7644 144.8H82.8644V146.3H82.9644C83.191 145.78 83.5844 145.353 84.1444 145.02C84.7044 144.673 85.2977 144.5 85.9244 144.5C86.4177 144.5 86.831 144.567 87.1644 144.7V146.98C86.5777 146.767 86.051 146.66 85.5844 146.66C85.0777 146.66 84.6244 146.793 84.2244 147.06C83.8377 147.327 83.531 147.687 83.3044 148.14C83.0777 148.58 82.9644 149.067 82.9644 149.6V155H80.7644V144.8Z" fill="white"/>
</svg>
