<svg width="180" height="180" viewBox="0 0 180 180" fill="none" xmlns="http://www.w3.org/2000/svg">
    <rect width="180" height="180" rx="12" fill="url(#paint0_linear)"/>
    <path d="M79.3218 58.0156V71.957C79.3218 74.2652 78.8596 75.9271 77.9351 76.9427C77.0106 77.9583 75.5314 78.5122 73.4976 78.5122C71.4637 78.5122 69.9845 78.0506 69.06 77.035C68.1355 76.0194 67.6733 74.3575 67.6733 71.957V58.0156H60V71.957C60 76.1117 60.832 79.1585 62.4961 81.3744C62.7735 81.6513 62.9584 82.0207 63.2357 82.2976C65.4545 84.5135 68.8751 85.6214 73.4976 85.6214C78.0276 85.6214 81.4482 84.5135 83.6669 82.2976C83.9443 82.0207 84.1292 81.7437 84.4065 81.3744C86.0706 79.1585 86.9027 76.0194 86.9027 71.957V58.0156H79.3218Z" fill="white"/>
    <path d="M91.7113 92.9153V57.9233H99.1073V62.2627C100.124 60.5084 101.326 59.2159 102.805 58.2926C104.284 57.4616 105.948 57 107.89 57C111.68 57 114.639 58.2926 116.765 60.7854C118.891 63.2783 120.001 66.7867 120.001 71.2184C120.001 75.5578 118.891 78.9739 116.765 81.5591C114.639 84.1442 111.773 85.4368 108.26 85.4368C106.133 85.4368 104.377 85.0675 102.898 84.2366C101.418 83.4979 100.124 82.2054 99.1073 80.5435C99.1997 81.1898 99.2922 81.9284 99.2922 82.7593C99.2922 83.4979 99.3846 84.4212 99.3846 85.4368V92.823H91.7113V92.9153ZM98.7375 71.2184C98.7375 73.6189 99.2922 75.4655 100.494 76.8504C101.696 78.143 103.36 78.8816 105.394 78.8816C107.52 78.8816 109.184 78.2353 110.294 76.8504C111.495 75.5578 112.05 73.6189 112.05 71.2184C112.05 68.8179 111.495 66.9714 110.294 65.5864C109.092 64.2015 107.428 63.5552 105.301 63.5552C103.267 63.5552 101.603 64.2939 100.402 65.6788C99.2922 66.879 98.7375 68.8179 98.7375 71.2184Z" fill="white"/>
    <path d="M84.5092 93.0264C84.2315 92.7472 84.0463 92.3748 83.7685 92.0956C81.5463 89.8616 78.1203 88.7446 73.4907 88.7446C68.9537 88.7446 65.5277 89.8616 63.3055 92.0956C63.0277 92.3748 62.8426 92.6541 62.5648 93.0264H84.5092Z" fill="white"/>
    <path d="M29.8 155.32C28.7333 155.32 27.7867 155.08 26.96 154.6C26.1467 154.12 25.5133 153.44 25.06 152.56C24.6067 151.68 24.38 150.66 24.38 149.5V140.68H26.6V149.62C26.6 150.673 26.8733 151.533 27.42 152.2C27.98 152.853 28.7733 153.18 29.8 153.18C30.8267 153.18 31.6133 152.853 32.16 152.2C32.7067 151.547 32.98 150.687 32.98 149.62V140.68H35.22V149.5C35.22 150.647 35 151.66 34.56 152.54C34.12 153.42 33.4933 154.107 32.68 154.6C31.8667 155.08 30.9067 155.32 29.8 155.32ZM37.7938 144.8H39.8938V146.14H39.9938C40.2871 145.673 40.7204 145.28 41.2938 144.96C41.8671 144.64 42.5138 144.48 43.2338 144.48C44.1538 144.48 44.9871 144.713 45.7338 145.18C46.4804 145.647 47.0671 146.293 47.4938 147.12C47.9338 147.933 48.1538 148.86 48.1538 149.9C48.1538 150.94 47.9338 151.873 47.4938 152.7C47.0671 153.513 46.4804 154.153 45.7338 154.62C44.9871 155.087 44.1538 155.32 43.2338 155.32C42.5138 155.32 41.8671 155.16 41.2938 154.84C40.7204 154.52 40.2871 154.133 39.9938 153.68H39.8938L39.9938 155.1V159.32H37.7938V144.8ZM42.9138 153.3C43.4471 153.3 43.9471 153.16 44.4138 152.88C44.8804 152.6 45.2538 152.2 45.5338 151.68C45.8138 151.16 45.9538 150.567 45.9538 149.9C45.9538 149.233 45.8138 148.647 45.5338 148.14C45.2538 147.62 44.8804 147.22 44.4138 146.94C43.9471 146.66 43.4471 146.52 42.9138 146.52C42.3804 146.52 41.8804 146.66 41.4138 146.94C40.9604 147.22 40.5938 147.62 40.3138 148.14C40.0338 148.647 39.8938 149.233 39.8938 149.9C39.8938 150.567 40.0338 151.16 40.3138 151.68C40.5938 152.2 40.9604 152.6 41.4138 152.88C41.8804 153.16 42.3804 153.3 42.9138 153.3ZM49.9636 140.68H52.1636V155H49.9636V140.68ZM57.8511 155.32C57.1178 155.32 56.4644 155.18 55.8911 154.9C55.3178 154.607 54.8711 154.2 54.5511 153.68C54.2311 153.147 54.0711 152.547 54.0711 151.88C54.0711 150.827 54.4644 149.993 55.2511 149.38C56.0511 148.767 57.0578 148.46 58.2711 148.46C58.8711 148.46 59.4111 148.52 59.8911 148.64C60.3711 148.747 60.7511 148.867 61.0311 149V148.48C61.0311 147.853 60.7978 147.347 60.3311 146.96C59.8644 146.56 59.2644 146.36 58.5311 146.36C58.0111 146.36 57.5178 146.473 57.0511 146.7C56.5978 146.927 56.2311 147.24 55.9511 147.64L54.4111 146.46C54.8644 145.833 55.4511 145.347 56.1711 145C56.8911 144.653 57.6911 144.48 58.5711 144.48C60.0511 144.48 61.1911 144.847 61.9911 145.58C62.7911 146.3 63.1911 147.32 63.1911 148.64V155H61.0311V153.78H60.9311C60.6378 154.22 60.2244 154.587 59.6911 154.88C59.1578 155.173 58.5444 155.32 57.8511 155.32ZM58.2311 153.5C58.7644 153.5 59.2444 153.373 59.6711 153.12C60.0978 152.867 60.4311 152.527 60.6711 152.1C60.9111 151.673 61.0311 151.213 61.0311 150.72C60.7244 150.547 60.3644 150.407 59.9511 150.3C59.5511 150.193 59.1311 150.14 58.6911 150.14C57.8644 150.14 57.2578 150.307 56.8711 150.64C56.4844 150.96 56.2911 151.38 56.2911 151.9C56.2911 152.367 56.4711 152.753 56.8311 153.06C57.1911 153.353 57.6578 153.5 58.2311 153.5ZM71.0286 155.32C70.3086 155.32 69.6619 155.16 69.0886 154.84C68.5153 154.52 68.0819 154.133 67.7886 153.68H67.6886V155H65.5886V140.68H67.7886V144.7L67.6886 146.14H67.7886C68.0819 145.673 68.5153 145.28 69.0886 144.96C69.6619 144.64 70.3086 144.48 71.0286 144.48C71.9486 144.48 72.7819 144.713 73.5286 145.18C74.2753 145.647 74.8619 146.293 75.2886 147.12C75.7286 147.933 75.9486 148.86 75.9486 149.9C75.9486 150.94 75.7286 151.873 75.2886 152.7C74.8619 153.513 74.2753 154.153 73.5286 154.62C72.7819 155.087 71.9486 155.32 71.0286 155.32ZM70.7086 153.3C71.2419 153.3 71.7419 153.16 72.2086 152.88C72.6753 152.6 73.0486 152.2 73.3286 151.68C73.6086 151.16 73.7486 150.567 73.7486 149.9C73.7486 149.233 73.6086 148.647 73.3286 148.14C73.0486 147.62 72.6753 147.22 72.2086 146.94C71.7419 146.66 71.2419 146.52 70.7086 146.52C70.1753 146.52 69.6753 146.66 69.2086 146.94C68.7553 147.22 68.3886 147.62 68.1086 148.14C67.8286 148.647 67.6886 149.233 67.6886 149.9C67.6886 150.567 67.8286 151.16 68.1086 151.68C68.3886 152.2 68.7553 152.6 69.2086 152.88C69.6753 153.16 70.1753 153.3 70.7086 153.3ZM81.5742 155.32C80.4009 155.32 79.4409 155.067 78.6942 154.56C77.9476 154.04 77.4209 153.38 77.1142 152.58L79.0742 151.72C79.3142 152.253 79.6476 152.66 80.0742 152.94C80.5142 153.22 81.0142 153.36 81.5742 153.36C82.1209 153.36 82.5809 153.267 82.9542 153.08C83.3276 152.88 83.5142 152.587 83.5142 152.2C83.5142 151.827 83.3542 151.533 83.0342 151.32C82.7142 151.107 82.2209 150.92 81.5542 150.76L80.3342 150.46C79.5209 150.26 78.8476 149.907 78.3142 149.4C77.7809 148.893 77.5142 148.253 77.5142 147.48C77.5142 146.88 77.6876 146.353 78.0342 145.9C78.3942 145.447 78.8742 145.1 79.4742 144.86C80.0742 144.607 80.7276 144.48 81.4342 144.48C82.3809 144.48 83.2142 144.673 83.9342 145.06C84.6542 145.433 85.1742 145.98 85.4942 146.7L83.5742 147.54C83.1876 146.753 82.4809 146.36 81.4542 146.36C80.9609 146.36 80.5476 146.46 80.2142 146.66C79.8809 146.86 79.7142 147.12 79.7142 147.44C79.7142 147.747 79.8409 148 80.0942 148.2C80.3476 148.387 80.7209 148.547 81.2142 148.68L82.7142 149.06C83.7142 149.313 84.4676 149.7 84.9742 150.22C85.4942 150.727 85.7542 151.353 85.7542 152.1C85.7542 152.74 85.5676 153.307 85.1942 153.8C84.8342 154.28 84.3342 154.653 83.6942 154.92C83.0542 155.187 82.3476 155.32 81.5742 155.32Z" fill="white"/>
    <defs>
        <linearGradient id="paint0_linear" x1="19.5" y1="21.5" x2="180" y2="180" gradientUnits="userSpaceOnUse">
            <stop stop-color="#621DD1"/>
            <stop offset="1" stop-color="#1769FF"/>
        </linearGradient>
    </defs>
</svg>
